<svg width="303" height="377" viewBox="0 0 303 377" fill="none" xmlns="http://www.w3.org/2000/svg">
<g clip-path="url(#clip0)">
<g clip-path="url(#clip1)">
<path d="M175.341 2.61193L41.4045 66.4452L98.4062 274.827L229.075 215.021L175.341 2.61193Z" fill="#00296B"/>
<path opacity="0.1" d="M175.341 2.61193L41.4045 66.4452L98.4062 274.827L229.075 215.021L175.341 2.61193Z" fill="black"/>
<path d="M44.2957 69.1816C47.7757 66.6602 51.5827 64.6234 55.6123 63.1273L171.322 20.1666C171.322 20.1666 200.829 28.3747 200.154 44.7138L61.4864 79.9733L44.2957 69.1816Z" fill="#F2F2F2"/>
<path d="M41.0998 65.6097L74.5448 297.702C74.5448 297.702 82.2324 311.001 95.7673 311.761L252.462 286.99L215.128 36.4305L59.5805 72.1457L41.0998 65.6097Z" fill="#5193DE"/>
<path d="M187.961 57.5484L90.4915 75.9268L90.8708 77.9301L188.34 59.5517L187.961 57.5484Z" fill="#00296B"/>
<path d="M80.3727 95.0984L78.3552 95.3984L106.68 284.857L108.697 284.557L80.3727 95.0984Z" fill="#00296B"/>
<path d="M220.923 272.75L116.773 293.603L117.175 295.602L221.325 274.75L220.923 272.75Z" fill="#00296B"/>
<path d="M200.64 66.5035L198.631 66.8511L231.441 255.625L233.45 255.277L200.64 66.5035Z" fill="#00296B"/>
<path d="M183.02 24.2459L54.1406 64.9346L54.5202 66.1334L183.4 25.4447L183.02 24.2459Z" fill="#3F3D56"/>
<path d="M190.209 28.4622L57.0503 67.6914L57.407 68.8986L190.566 29.6694L190.209 28.4622Z" fill="#3F3D56"/>
<path d="M195.338 32.8729L59.355 68.7749L59.6773 69.9918L195.66 34.0898L195.338 32.8729Z" fill="#3F3D56"/>
<path d="M118.477 277.155L119.291 282.626L138.35 279.839L137.529 274.321L118.477 277.155Z" fill="#00296B"/>
<path d="M120.147 271.999C120.295 272.392 120.586 274.702 120.713 275.808C123.21 275.507 128.192 274.861 128.147 274.679C128.091 274.451 128.218 274.102 128.892 271.571C129.567 269.04 129.336 268.839 129.268 266.584C129.201 264.328 127.263 261.219 127.008 260.856C126.804 260.565 126.417 260.039 126.249 259.812C126.313 259.842 126.499 259.931 126.731 260.047C126.963 260.164 128.107 261.683 128.65 262.428C130.136 264.718 130.679 267.451 130.766 268.532C130.854 270.689 131.784 273.123 132.238 274.07L135.497 273.585L135.717 270.556L136.213 264.418C136.274 262.277 136.309 257.519 135.953 255.608C135.598 253.698 135.819 249.493 135.974 247.63C136.25 244.726 136.813 238.359 136.856 236.125C136.91 233.333 135.981 233.094 135.906 232.892C135.831 232.691 135.383 232.38 134.294 232.424C133.422 232.459 132.81 234.021 132.612 234.798C131.939 241.245 130.557 254.353 130.415 255.205C130.274 256.057 129.961 256.61 129.822 256.78C128.982 258.226 127.357 257.791 126.649 257.393C124.286 255.574 122.414 257.024 121.773 257.977L120.793 258.005L120.393 259.22C120.165 259.648 119.6 260.688 119.157 261.434C118.713 262.179 117.863 263.01 117.494 263.333C118.063 262.446 119.243 260.571 119.416 260.168C119.588 259.765 120.171 258.483 120.441 257.892C120.224 257.754 120.2 257.527 120.216 257.43C120.258 257.361 120.37 257.143 120.483 256.824C120.597 256.505 120.509 256.348 120.451 256.309C120.28 256.24 119.908 255.911 119.743 255.754C118.999 255.204 118.876 254.286 118.908 253.896C119.041 254.49 119.841 255.362 120.355 255.663C120.767 255.904 121.993 255.703 122.555 255.572C124.863 255.606 126.867 253.444 126.963 253.335C127.058 253.227 127.6 252.509 127.687 251.741C127.756 251.127 127.475 250.766 127.325 250.662C127.31 250.712 127.117 250.887 126.465 251.191C125.813 251.496 125.027 251.397 124.716 251.31C124.469 251.299 123.816 250.972 123.554 250.562C123.344 250.235 123.312 249.788 123.322 249.606L123.221 249.527L119.112 248.958C118.862 248.932 118.201 248.966 117.554 249.308C116.908 249.649 115.994 251.294 115.618 252.073C114.95 253.596 113.553 256.802 113.309 257.443C113.064 258.083 112.931 259.261 112.895 259.769C112.941 260.329 113.169 261.64 113.712 262.409C114.392 263.369 116.206 265.648 116.47 265.915C116.68 266.129 118.49 268.879 119.369 270.227C119.567 270.654 119.999 271.606 120.147 271.999Z" fill="#00296B"/>
<path d="M119.584 246.268C119.508 246.601 119.868 247.823 120.057 248.393L125.146 249.24C125.135 248.51 125.056 246.677 124.833 245.181C124.555 243.311 124.439 244.036 123.312 243.071C122.41 242.299 121.037 242.906 120.463 243.306C119.092 243.864 119.679 245.853 119.584 246.268Z" fill="#00296B"/>
<path d="M125.957 244.471C125.426 245.23 125.312 247.949 125.321 249.214L126.595 249.662C127.279 249.749 127.916 250.575 128.041 250.815C128.166 251.056 128.299 251.65 128.095 252.53C127.931 253.234 126.55 254.522 125.88 255.077C125.944 255.389 126.349 255.676 126.544 255.781C128.806 256.86 129.575 255.118 129.888 254.363C130.2 253.609 130.55 250.702 130.738 248.503C130.887 246.744 130.71 245.66 130.602 245.338C130.469 244.941 130.037 244.03 129.377 243.562C128.717 243.093 127.549 243.251 127.048 243.389C126.906 243.434 126.488 243.713 125.957 244.471Z" fill="#00296B"/>
<path d="M110.94 235.803C111.114 236.495 113.968 246.443 115.374 251.331C116.767 248.311 118.843 248.148 119.707 248.445C119.692 248.107 119.008 245.45 118.667 244.163L116.312 236.444C115.967 235.48 115.147 233.271 114.621 232.141C114.095 231.011 113.503 230.64 113.273 230.596C112.084 230.055 111.302 230.873 111.06 231.349C110.37 231.971 110.722 234.939 110.94 235.803Z" fill="#00296B"/>
</g>
</g>
<defs>
<clipPath id="clip0">
<rect width="303" height="310" rx="25" fill="white"/>
</clipPath>
<clipPath id="clip1">
<rect width="284" height="315" fill="white" transform="translate(90.1248 -37) rotate(25)"/>
</clipPath>
</defs>
</svg>
