<svg width="303" height="377" viewBox="0 0 303 377" fill="none" xmlns="http://www.w3.org/2000/svg">
<rect width="303" height="377" rx="25" fill="#D0D0D0"/>
<g clip-path="url(#clip0)">
<g clip-path="url(#clip1)">
<path d="M175.341 0.611933L41.4045 64.4452L98.4062 272.827L229.075 213.021L175.341 0.611933Z" fill="#00296B"/>
<path opacity="0.1" d="M175.341 0.611933L41.4045 64.4452L98.4062 272.827L229.075 213.021L175.341 0.611933Z" fill="black"/>
<path d="M44.2957 67.1816C47.7757 64.6602 51.5827 62.6234 55.6123 61.1273L171.322 18.1666C171.322 18.1666 200.829 26.3747 200.154 42.7138L61.4864 77.9733L44.2957 67.1816Z" fill="#F2F2F2"/>
<path d="M41.0998 63.6097L74.5448 295.702C74.5448 295.702 82.2324 309.001 95.7673 309.761L252.462 284.99L215.128 34.4305L59.5805 70.1457L41.0998 63.6097Z" fill="#00296B"/>
<path d="M187.961 55.5484L90.4915 73.9268L90.8708 75.9301L188.34 57.5517L187.961 55.5484Z" fill="#F3BB02"/>
<path d="M80.3727 93.0984L78.3552 93.3984L106.68 282.857L108.697 282.557L80.3727 93.0984Z" fill="#F3BB02"/>
<path d="M220.923 270.75L116.773 291.603L117.175 293.602L221.325 272.75L220.923 270.75Z" fill="#F3BB02"/>
<path d="M200.64 64.5035L198.631 64.8511L231.441 253.625L233.45 253.277L200.64 64.5035Z" fill="#F3BB02"/>
<path d="M183.02 22.2459L54.1406 62.9346L54.5202 64.1334L183.4 23.4447L183.02 22.2459Z" fill="#3F3D56"/>
<path d="M190.209 26.4622L57.0503 65.6914L57.407 66.8986L190.566 27.6694L190.209 26.4622Z" fill="#3F3D56"/>
<path d="M195.338 30.8729L59.355 66.7749L59.6773 67.9918L195.66 32.0898L195.338 30.8729Z" fill="#3F3D56"/>
<path d="M118.477 275.155L119.291 280.626L138.35 277.839L137.529 272.321L118.477 275.155Z" fill="#F3BB02"/>
<path d="M120.147 269.999C120.295 270.392 120.586 272.702 120.713 273.808C123.21 273.507 128.192 272.861 128.147 272.679C128.091 272.451 128.218 272.102 128.892 269.571C129.567 267.04 129.336 266.839 129.268 264.584C129.201 262.328 127.263 259.219 127.008 258.856C126.804 258.565 126.417 258.039 126.249 257.812C126.313 257.842 126.499 257.931 126.731 258.047C126.963 258.164 128.107 259.683 128.65 260.428C130.136 262.718 130.679 265.451 130.766 266.532C130.854 268.689 131.784 271.123 132.238 272.07L135.497 271.585L135.717 268.556L136.213 262.418C136.274 260.277 136.309 255.519 135.953 253.608C135.598 251.698 135.819 247.493 135.974 245.63C136.25 242.726 136.813 236.359 136.856 234.125C136.91 231.333 135.981 231.094 135.906 230.892C135.831 230.691 135.383 230.38 134.294 230.424C133.422 230.459 132.81 232.021 132.612 232.798C131.939 239.245 130.557 252.353 130.415 253.205C130.274 254.057 129.961 254.61 129.822 254.78C128.982 256.226 127.357 255.791 126.649 255.393C124.286 253.574 122.414 255.024 121.773 255.977L120.793 256.005L120.393 257.22C120.165 257.648 119.6 258.688 119.157 259.434C118.713 260.179 117.863 261.01 117.494 261.333C118.063 260.446 119.243 258.571 119.416 258.168C119.588 257.765 120.171 256.483 120.441 255.892C120.224 255.754 120.2 255.527 120.216 255.43C120.258 255.361 120.37 255.143 120.483 254.824C120.597 254.505 120.509 254.348 120.451 254.309C120.28 254.24 119.908 253.911 119.743 253.754C118.999 253.204 118.876 252.286 118.908 251.896C119.041 252.49 119.841 253.362 120.355 253.663C120.767 253.904 121.993 253.703 122.555 253.572C124.863 253.606 126.867 251.444 126.963 251.335C127.058 251.227 127.6 250.509 127.687 249.741C127.756 249.127 127.475 248.766 127.325 248.662C127.31 248.712 127.117 248.887 126.465 249.191C125.813 249.496 125.027 249.397 124.716 249.31C124.469 249.299 123.816 248.972 123.554 248.562C123.344 248.235 123.312 247.788 123.322 247.606L123.221 247.527L119.112 246.958C118.862 246.932 118.201 246.966 117.554 247.308C116.908 247.649 115.994 249.294 115.618 250.073C114.95 251.596 113.553 254.802 113.309 255.443C113.064 256.083 112.931 257.261 112.895 257.769C112.941 258.329 113.169 259.64 113.712 260.409C114.392 261.369 116.206 263.648 116.47 263.915C116.68 264.129 118.49 266.879 119.369 268.227C119.567 268.654 119.999 269.606 120.147 269.999Z" fill="#F3BB02"/>
<path d="M119.584 244.268C119.508 244.601 119.868 245.823 120.057 246.393L125.146 247.24C125.135 246.51 125.056 244.677 124.833 243.181C124.555 241.311 124.439 242.036 123.312 241.071C122.41 240.299 121.037 240.906 120.463 241.306C119.092 241.864 119.679 243.853 119.584 244.268Z" fill="#F3BB02"/>
<path d="M125.957 242.471C125.426 243.23 125.312 245.949 125.321 247.214L126.595 247.662C127.279 247.749 127.916 248.575 128.041 248.815C128.166 249.056 128.299 249.65 128.095 250.53C127.931 251.234 126.55 252.522 125.88 253.077C125.944 253.389 126.349 253.676 126.544 253.781C128.806 254.86 129.575 253.118 129.888 252.363C130.2 251.609 130.55 248.702 130.738 246.503C130.887 244.744 130.71 243.66 130.602 243.338C130.469 242.941 130.037 242.03 129.377 241.562C128.717 241.093 127.549 241.251 127.048 241.389C126.906 241.434 126.488 241.713 125.957 242.471Z" fill="#F3BB02"/>
<path d="M110.94 233.803C111.114 234.495 113.968 244.443 115.374 249.331C116.767 246.311 118.843 246.148 119.707 246.445C119.692 246.107 119.008 243.45 118.667 242.163L116.312 234.444C115.967 233.48 115.147 231.271 114.621 230.141C114.095 229.011 113.503 228.64 113.273 228.596C112.084 228.055 111.302 228.873 111.06 229.349C110.37 229.971 110.722 232.939 110.94 233.803Z" fill="#F3BB02"/>
</g>
</g>
<defs>
<clipPath id="clip0">
<rect width="303" height="310" rx="25" fill="white"/>
</clipPath>
<clipPath id="clip1">
<rect width="284" height="315" fill="white" transform="translate(90.1248 -39) rotate(25)"/>
</clipPath>
</defs>
</svg>
