<svg width="32" height="32" viewBox="0 0 32 32" fill="none" xmlns="http://www.w3.org/2000/svg">
<mask id="mask0" mask-type="alpha" maskUnits="userSpaceOnUse" x="0" y="0" width="32" height="32">
<g clip-path="url(#clip0)">
<path d="M27.6879 0H4.31231C1.93087 0 0.000244141 1.93055 0.000244141 4.31206V27.6878C0.000244141 30.0693 1.93079 31.9998 4.31231 31.9998H15.841L15.8607 20.5648H12.8899C12.5038 20.5648 12.1904 20.2526 12.1889 19.8666L12.1747 16.1806C12.1732 15.7924 12.4875 15.4769 12.8757 15.4769H15.8411V11.9153C15.8411 7.78215 18.3654 5.53159 22.0525 5.53159H25.078C25.4651 5.53159 25.779 5.84542 25.779 6.23259V9.34063C25.779 9.72764 25.4653 10.0414 25.0784 10.0416L23.2217 10.0425C21.2165 10.0425 20.8282 10.9953 20.8282 12.3936V15.477H25.2342C25.6541 15.477 25.9798 15.8436 25.9303 16.2605L25.4934 19.9465C25.4516 20.2992 25.1525 20.565 24.7974 20.565H20.8479L20.8282 32H27.688C30.0695 32 32 30.0695 32 27.688V4.31206C31.9999 1.93055 30.0694 0 27.6879 0Z" fill="#475993"/>
</g>
</mask>
<g mask="url(#mask0)">
<rect x="-4.0708" y="-5.63611" width="40.1577" height="43.1324" fill="#595959"/>
</g>
<defs>
<clipPath id="clip0">
<rect width="32" height="32" fill="white"/>
</clipPath>
</defs>
</svg>
