<svg width="33" height="32" viewBox="0 0 33 32" fill="none" xmlns="http://www.w3.org/2000/svg">
<mask id="mask0" mask-type="alpha" maskUnits="userSpaceOnUse" x="0" y="0" width="33" height="32">
<g clip-path="url(#clip0)">
<path d="M29.9337 0H3.72303C2.12437 0 0.828369 1.296 0.828369 2.89466V29.1053C0.828369 30.704 2.12437 32 3.72303 32H29.9336C31.5324 32 32.8284 30.704 32.8284 29.1053V2.89466C32.8284 1.296 31.5324 0 29.9337 0ZM10.7305 27.6309C10.7305 28.0962 10.3534 28.4733 9.88814 28.4733H6.3023C5.83704 28.4733 5.45991 28.0962 5.45991 27.6309V12.5992C5.45991 12.1339 5.83704 11.7568 6.3023 11.7568H9.88814C10.3534 11.7568 10.7305 12.1339 10.7305 12.5992V27.6309ZM8.09522 10.3399C6.21384 10.3399 4.68864 8.81466 4.68864 6.93328C4.68864 5.0519 6.21384 3.5267 8.09522 3.5267C9.9766 3.5267 11.5018 5.0519 11.5018 6.93328C11.5018 8.81466 9.97668 10.3399 8.09522 10.3399ZM29.47 27.6988C29.47 28.1265 29.1232 28.4733 28.6955 28.4733H24.8476C24.4199 28.4733 24.0731 28.1265 24.0731 27.6988V20.648C24.0731 19.5962 24.3816 16.039 21.3244 16.039C18.9529 16.039 18.4719 18.4738 18.3753 19.5665V27.6988C18.3753 28.1265 18.0286 28.4733 17.6008 28.4733H13.8793C13.4515 28.4733 13.1047 28.1265 13.1047 27.6988V12.5314C13.1047 12.1036 13.4515 11.7568 13.8793 11.7568H17.6008C18.0285 11.7568 18.3753 12.1036 18.3753 12.5314V13.8428C19.2547 12.5231 20.5615 11.5046 23.3439 11.5046C29.5053 11.5046 29.47 17.2609 29.47 20.4237V27.6988Z" fill="#0077B7"/>
</g>
</mask>
<g mask="url(#mask0)">
<rect x="-2.18726" y="-7.12036" width="41.6335" height="50.178" fill="#595959"/>
</g>
<defs>
<clipPath id="clip0">
<rect width="32" height="32" fill="white" transform="translate(0.828369)"/>
</clipPath>
</defs>
</svg>
