<svg width="303" height="377" viewBox="0 0 303 377" fill="none" xmlns="http://www.w3.org/2000/svg">
<rect width="303" height="377" rx="25" fill="#D0D0D0"/>
<g filter="url(#filter0_d)">
<path d="M263.138 15H51.8325V309.06H263.138C263.897 309.06 264.625 308.758 265.162 308.221C265.699 307.684 266 306.955 266 306.195V17.8642C266 17.1046 265.699 16.3761 265.162 15.8389C264.625 15.3018 263.897 15 263.138 15ZM63.7572 300.944C62.7195 300.944 61.705 300.636 60.8422 300.059C59.9794 299.482 59.3068 298.662 58.9097 297.703C58.5126 296.743 58.4087 295.688 58.6111 294.669C58.8136 293.65 59.3133 292.715 60.0471 291.98C60.7809 291.246 61.7158 290.746 62.7336 290.543C63.7514 290.341 64.8063 290.445 65.7651 290.842C66.7238 291.239 67.5433 291.912 68.1198 292.776C68.6964 293.64 69.0041 294.655 69.0041 295.693C69.0041 296.383 68.8684 297.066 68.6047 297.703C68.341 298.34 67.9545 298.919 67.4673 299.406C66.9801 299.894 66.4017 300.281 65.7651 300.545C65.1285 300.809 64.4462 300.944 63.7572 300.944ZM63.7572 274.212C62.7195 274.212 61.705 273.904 60.8422 273.327C59.9794 272.75 59.3069 271.93 58.9097 270.97C58.5126 270.011 58.4087 268.955 58.6112 267.936C58.8136 266.918 59.3133 265.982 60.0471 265.248C60.7809 264.513 61.7158 264.013 62.7336 263.811C63.7514 263.608 64.8064 263.712 65.7651 264.109C66.7238 264.507 67.5433 265.18 68.1198 266.043C68.6964 266.907 69.0041 267.922 69.0041 268.961C69.0041 269.65 68.8684 270.333 68.6047 270.97C68.341 271.607 67.9545 272.186 67.4673 272.674C66.9801 273.161 66.4017 273.548 65.7651 273.812C65.1285 274.076 64.4462 274.212 63.7572 274.212ZM63.7572 247.479C62.7195 247.479 61.705 247.171 60.8422 246.594C59.9794 246.017 59.3069 245.197 58.9097 244.237C58.5126 243.278 58.4087 242.222 58.6112 241.204C58.8136 240.185 59.3133 239.249 60.0471 238.515C60.7809 237.78 61.7158 237.28 62.7336 237.078C63.7514 236.875 64.8064 236.979 65.7651 237.377C66.7238 237.774 67.5433 238.447 68.1198 239.311C68.6964 240.174 69.0041 241.189 69.0041 242.228C69.0041 242.918 68.8684 243.6 68.6047 244.237C68.341 244.875 67.9545 245.453 67.4673 245.941C66.9801 246.429 66.4017 246.815 65.7651 247.079C65.1285 247.343 64.4462 247.479 63.7572 247.479ZM63.7572 220.746C62.7195 220.746 61.705 220.438 60.8422 219.861C59.9794 219.284 59.3069 218.464 58.9097 217.505C58.5126 216.545 58.4087 215.489 58.6112 214.471C58.8136 213.452 59.3133 212.517 60.0471 211.782C60.7809 211.048 61.7158 210.548 62.7336 210.345C63.7514 210.142 64.8064 210.246 65.7651 210.644C66.7238 211.041 67.5433 211.714 68.1198 212.578C68.6964 213.441 69.0041 214.457 69.0041 215.495C69.0041 216.185 68.8684 216.868 68.6047 217.505C68.341 218.142 67.9545 218.721 67.4673 219.208C66.9801 219.696 66.4017 220.083 65.7651 220.347C65.1285 220.61 64.4462 220.746 63.7572 220.746ZM63.7572 194.014C62.7195 194.014 61.705 193.706 60.8422 193.129C59.9794 192.552 59.3069 191.732 58.9097 190.772C58.5126 189.813 58.4087 188.757 58.6112 187.738C58.8136 186.72 59.3133 185.784 60.0471 185.049C60.7809 184.315 61.7158 183.815 62.7336 183.612C63.7514 183.41 64.8064 183.514 65.7651 183.911C66.7238 184.309 67.5433 184.982 68.1198 185.845C68.6964 186.709 69.0041 187.724 69.0041 188.763C69.0041 189.452 68.8684 190.135 68.6047 190.772C68.341 191.409 67.9545 191.988 67.4673 192.476C66.9801 192.963 66.4017 193.35 65.7651 193.614C65.1285 193.878 64.4462 194.014 63.7572 194.014ZM63.7572 167.281C62.7195 167.281 61.705 166.973 60.8422 166.396C59.9794 165.819 59.3069 164.999 58.9097 164.039C58.5126 163.08 58.4087 162.024 58.6112 161.005C58.8136 159.987 59.3133 159.051 60.0471 158.317C60.7809 157.582 61.7158 157.082 62.7336 156.88C63.7514 156.677 64.8064 156.781 65.7651 157.179C66.7238 157.576 67.5433 158.249 68.1198 159.113C68.6964 159.976 69.0041 160.991 69.0041 162.03C69.0041 162.719 68.8684 163.402 68.6047 164.039C68.341 164.676 67.9545 165.255 67.4673 165.743C66.9801 166.231 66.4017 166.617 65.7651 166.881C65.1285 167.145 64.4462 167.281 63.7572 167.281ZM63.7572 140.548C62.7195 140.548 61.705 140.24 60.8422 139.663C59.9794 139.086 59.3069 138.266 58.9097 137.307C58.5126 136.347 58.4087 135.291 58.6112 134.273C58.8136 133.254 59.3133 132.318 60.0471 131.584C60.7809 130.85 61.7158 130.35 62.7336 130.147C63.7514 129.944 64.8064 130.048 65.7651 130.446C66.7238 130.843 67.5433 131.516 68.1198 132.38C68.6964 133.243 69.0041 134.259 69.0041 135.297C69.0041 135.987 68.8684 136.67 68.6047 137.307C68.341 137.944 67.9545 138.523 67.4673 139.01C66.9801 139.498 66.4017 139.885 65.7651 140.149C65.1285 140.412 64.4462 140.548 63.7572 140.548ZM63.7572 113.816C62.7195 113.816 61.705 113.508 60.8422 112.931C59.9794 112.354 59.3069 111.533 58.9097 110.574C58.5126 109.614 58.4087 108.559 58.6112 107.54C58.8136 106.521 59.3133 105.586 60.0471 104.851C60.7809 104.117 61.7158 103.617 62.7336 103.414C63.7514 103.212 64.8064 103.316 65.7651 103.713C66.7238 104.111 67.5433 104.784 68.1198 105.647C68.6964 106.511 69.0041 107.526 69.0041 108.564C69.0041 109.254 68.8684 109.937 68.6047 110.574C68.341 111.211 67.9545 111.79 67.4673 112.278C66.9801 112.765 66.4017 113.152 65.7651 113.416C65.1285 113.68 64.4462 113.816 63.7572 113.816ZM63.7572 87.0828C62.7195 87.0828 61.705 86.7749 60.8422 86.1979C59.9794 85.6209 59.3069 84.8008 58.9097 83.8412C58.5126 82.8817 58.4087 81.8259 58.6112 80.8073C58.8136 79.7887 59.3133 78.8531 60.0471 78.1187C60.7809 77.3843 61.7158 76.8842 62.7336 76.6816C63.7514 76.479 64.8064 76.583 65.7651 76.9804C66.7238 77.3778 67.5433 78.0509 68.1198 78.9144C68.6964 79.778 69.0041 80.7932 69.0041 81.8317C69.0041 82.5213 68.8684 83.2042 68.6047 83.8412C68.341 84.4783 67.9545 85.0572 67.4673 85.5448C66.9801 86.0324 66.4017 86.4192 65.7651 86.6831C65.1285 86.947 64.4462 87.0828 63.7572 87.0828ZM63.7572 60.3501C62.7195 60.3501 61.705 60.0422 60.8422 59.4652C59.9794 58.8882 59.3068 58.0681 58.9097 57.1086C58.5126 56.149 58.4087 55.0932 58.6111 54.0746C58.8136 53.056 59.3133 52.1204 60.0471 51.386C60.7809 50.6516 61.7158 50.1515 62.7336 49.9489C63.7514 49.7463 64.8063 49.8502 65.7651 50.2477C66.7238 50.6451 67.5433 51.3182 68.1198 52.1817C68.6964 53.0452 69.0041 54.0605 69.0041 55.099C69.0041 55.7886 68.8684 56.4715 68.6047 57.1086C68.341 57.7456 67.9545 58.3245 67.4673 58.8121C66.9801 59.2997 66.4017 59.6865 65.7651 59.9504C65.1285 60.2143 64.4462 60.3501 63.7572 60.3501ZM63.7572 33.6174C62.7195 33.6174 61.705 33.3095 60.8422 32.7325C59.9794 32.1555 59.3068 31.3354 58.9097 30.3759C58.5126 29.4163 58.4087 28.3605 58.6111 27.3419C58.8136 26.3233 59.3133 25.3877 60.0471 24.6533C60.7809 23.9189 61.7158 23.4188 62.7336 23.2162C63.7514 23.0136 64.8063 23.1175 65.7651 23.515C66.7238 23.9124 67.5433 24.5855 68.1198 25.449C68.6964 26.3125 69.0041 27.3278 69.0041 28.3664C69.0041 29.0559 68.8684 29.7388 68.6047 30.3758C68.341 31.0129 67.9545 31.5918 67.4673 32.0794C66.9801 32.567 66.4017 32.9538 65.7651 33.2177C65.1285 33.4816 64.4462 33.6174 63.7572 33.6174Z" fill="#00296B"/>
<path d="M51.8326 31.2307C50.4168 31.2307 38 31.1638 38 28.8439C38 26.5239 50.4168 26.457 51.8326 26.457V27.4118C44.5193 27.4118 39.7772 28.2311 39.0135 28.8439C39.7772 29.4567 44.5193 30.276 51.8326 30.276C59.1297 30.276 63.8669 29.4601 64.6466 28.8481C64.2755 28.5859 62.7599 28.0362 58.6945 27.6845L58.7766 26.7335C65.6653 27.3293 65.6653 28.4297 65.6653 28.8439C65.6653 31.1638 53.2485 31.2307 51.8326 31.2307Z" fill="#2F2E41"/>
<path d="M51.8326 57.4861C50.4168 57.4861 38 57.4192 38 55.0992C38 52.7793 50.4168 52.7124 51.8326 52.7124V53.6672C44.5193 53.6672 39.7772 54.4865 39.0135 55.0993C39.7772 55.7121 44.5193 56.5314 51.8326 56.5314C59.1297 56.5314 63.8669 55.7155 64.6466 55.1035C64.2755 54.8412 62.7599 54.2916 58.6945 53.9399L58.7766 52.9889C65.6653 53.5847 65.6653 54.6851 65.6653 55.0993C65.6653 57.4192 53.2485 57.4861 51.8326 57.4861Z" fill="#2F2E41"/>
<path d="M51.8326 84.2185C50.4168 84.2185 38 84.1516 38 81.8317C38 79.5117 50.4168 79.4448 51.8326 79.4448V80.3996C44.5193 80.3996 39.7772 81.2189 39.0135 81.8317C39.7772 82.4445 44.5193 83.2638 51.8326 83.2638C59.1297 83.2638 63.8669 82.4479 64.6466 81.8359C64.2755 81.5736 62.7599 81.024 58.6945 80.6723L58.7766 79.7213C65.6653 80.3171 65.6653 81.4175 65.6653 81.8317C65.6653 84.1516 53.2485 84.2185 51.8326 84.2185Z" fill="#2F2E41"/>
<path d="M51.8326 110.951C50.4168 110.951 38 110.885 38 108.565C38 106.245 50.4168 106.178 51.8326 106.178V107.132C44.5193 107.132 39.7772 107.952 39.0135 108.565C39.7772 109.177 44.5193 109.997 51.8326 109.997C59.1297 109.997 63.8669 109.181 64.6466 108.569C64.2755 108.307 62.7599 107.757 58.6945 107.405L58.7766 106.454C65.6653 107.05 65.6653 108.15 65.6653 108.565C65.6653 110.885 53.2485 110.951 51.8326 110.951Z" fill="#2F2E41"/>
<path d="M51.8326 137.684C50.4168 137.684 38 137.617 38 135.297C38 132.977 50.4168 132.91 51.8326 132.91V133.865C44.5193 133.865 39.7772 134.684 39.0135 135.297C39.7772 135.91 44.5193 136.729 51.8326 136.729C59.1297 136.729 63.8669 135.913 64.6466 135.301C64.2755 135.039 62.7599 134.489 58.6945 134.138L58.7766 133.187C65.6653 133.782 65.6653 134.883 65.6653 135.297C65.6653 137.617 53.2485 137.684 51.8326 137.684Z" fill="#2F2E41"/>
<path d="M51.8326 164.417C50.4168 164.417 38 164.35 38 162.03C38 159.71 50.4168 159.643 51.8326 159.643V160.598C44.5193 160.598 39.7772 161.417 39.0135 162.03C39.7772 162.643 44.5193 163.462 51.8326 163.462C59.1297 163.462 63.8669 162.646 64.6466 162.034C64.2755 161.772 62.7599 161.222 58.6945 160.871L58.7766 159.92C65.6653 160.515 65.6653 161.616 65.6653 162.03C65.6653 164.35 53.2485 164.417 51.8326 164.417Z" fill="#2F2E41"/>
<path d="M51.8326 191.15C50.4168 191.15 38 191.083 38 188.763C38 186.443 50.4168 186.376 51.8326 186.376V187.331C44.5193 187.331 39.7772 188.15 39.0135 188.763C39.7772 189.376 44.5193 190.195 51.8326 190.195C59.1297 190.195 63.8669 189.379 64.6466 188.767C64.2755 188.505 62.7599 187.955 58.6945 187.603L58.7766 186.652C65.6653 187.248 65.6653 188.349 65.6653 188.763C65.6653 191.083 53.2485 191.15 51.8326 191.15Z" fill="#2F2E41"/>
<path d="M51.8326 217.882C50.4168 217.882 38 217.815 38 215.495C38 213.175 50.4168 213.108 51.8326 213.108V214.063C44.5193 214.063 39.7772 214.882 39.0135 215.495C39.7772 216.108 44.5193 216.927 51.8326 216.927C59.1297 216.927 63.8669 216.112 64.6466 215.499C64.2755 215.237 62.7599 214.688 58.6945 214.336L58.7766 213.385C65.6653 213.981 65.6653 215.081 65.6653 215.495C65.6653 217.815 53.2485 217.882 51.8326 217.882Z" fill="#2F2E41"/>
<path d="M51.8326 244.615C50.4168 244.615 38 244.548 38 242.228C38 239.908 50.4168 239.841 51.8326 239.841V240.796C44.5193 240.796 39.7772 241.615 39.0135 242.228C39.7772 242.841 44.5193 243.66 51.8326 243.66C59.1297 243.66 63.8669 242.844 64.6466 242.232C64.2755 241.97 62.7599 241.421 58.6945 241.069L58.7766 240.118C65.6653 240.714 65.6653 241.814 65.6653 242.228C65.6653 244.548 53.2485 244.615 51.8326 244.615Z" fill="#2F2E41"/>
<path d="M51.8326 271.347C50.4168 271.347 38 271.281 38 268.961C38 266.641 50.4168 266.574 51.8326 266.574V267.528C44.5193 267.528 39.7772 268.348 39.0135 268.961C39.7772 269.573 44.5193 270.393 51.8326 270.393C59.1297 270.393 63.8669 269.577 64.6466 268.965C64.2755 268.703 62.7599 268.153 58.6945 267.801L58.7766 266.85C65.6653 267.446 65.6653 268.546 65.6653 268.961C65.6653 271.281 53.2485 271.347 51.8326 271.347Z" fill="#2F2E41"/>
<path d="M51.8326 298.08C50.4168 298.08 38 298.013 38 295.693C38 293.374 50.4168 293.307 51.8326 293.307V294.261C44.5193 294.261 39.7772 295.081 39.0135 295.693C39.7772 296.306 44.5193 297.126 51.8326 297.126C59.1297 297.126 63.8669 296.31 64.6466 295.698C64.2755 295.435 62.7599 294.886 58.6945 294.534L58.7766 293.583C65.6653 294.179 65.6653 295.279 65.6653 295.693C65.6653 298.013 53.2485 298.08 51.8326 298.08Z" fill="#2F2E41"/>
<path d="M219.971 127.421H115.034C114.212 127.42 113.423 127.093 112.842 126.511C112.261 125.929 111.934 125.14 111.933 124.318V83.264C111.934 82.4414 112.261 81.6527 112.842 81.071C113.423 80.4893 114.212 80.1621 115.034 80.1611H219.971C220.793 80.1621 221.581 80.4893 222.162 81.071C222.743 81.6527 223.07 82.4414 223.071 83.264V124.318C223.07 125.14 222.743 125.929 222.162 126.511C221.581 127.093 220.793 127.42 219.971 127.421Z" fill="#F3BB02"/>
<path d="M180.858 94.2434H154.147C153.514 94.2434 152.908 93.9919 152.46 93.5443C152.013 93.0967 151.762 92.4896 151.762 91.8566C151.762 91.2235 152.013 90.6164 152.46 90.1688C152.908 89.7212 153.514 89.4697 154.147 89.4697H180.858C181.491 89.4697 182.097 89.7212 182.544 90.1688C182.992 90.6164 183.243 91.2235 183.243 91.8566C183.243 92.4896 182.992 93.0967 182.544 93.5443C182.097 93.9919 181.491 94.2434 180.858 94.2434H180.858Z" fill="#003F88"/>
<path d="M195.645 106.177H139.36C138.728 106.177 138.121 105.926 137.674 105.478C137.226 105.031 136.975 104.424 136.975 103.791C136.975 103.158 137.226 102.551 137.674 102.103C138.121 101.655 138.728 101.404 139.36 101.404H195.645C196.277 101.404 196.884 101.655 197.331 102.103C197.778 102.551 198.03 103.158 198.03 103.791C198.03 104.424 197.778 105.031 197.331 105.478C196.884 105.926 196.277 106.177 195.645 106.177Z" fill="#003F88"/>
<path d="M195.645 118.112H139.36C138.728 118.112 138.121 117.861 137.674 117.413C137.226 116.965 136.975 116.358 136.975 115.725C136.975 115.092 137.226 114.485 137.674 114.037C138.121 113.59 138.728 113.338 139.36 113.338H195.645C196.277 113.338 196.884 113.59 197.331 114.037C197.778 114.485 198.03 115.092 198.03 115.725C198.03 116.358 197.778 116.965 197.331 117.413C196.884 117.861 196.277 118.112 195.645 118.112Z" fill="#003F88"/>
<path d="M235.996 293.679V298.298L252.083 298.337V293.679H235.996Z" fill="#F3BB02"/>
<path d="M238.009 289.624C238.083 289.967 238.04 291.911 238.009 292.84C240.108 292.899 244.303 292.977 244.289 292.821C244.27 292.626 244.418 292.353 245.286 290.345C246.154 288.338 245.988 288.143 246.21 286.271C246.431 284.4 245.212 281.593 245.046 281.262C244.913 280.997 244.658 280.515 244.547 280.307C244.597 280.339 244.739 280.435 244.917 280.56C245.094 280.685 245.852 282.081 246.21 282.763C247.155 284.837 247.268 287.162 247.207 288.065C247.015 289.858 247.484 291.983 247.743 292.821H250.494L251.049 290.345L252.212 285.336C252.526 283.575 253.139 279.648 253.08 278.026C253.021 276.405 253.721 272.958 254.078 271.438C254.663 269.073 255.91 263.883 256.22 262.043C256.608 259.743 255.869 259.431 255.832 259.255C255.795 259.08 255.463 258.768 254.558 258.671C253.834 258.593 253.136 259.808 252.877 260.425C251.529 265.668 248.777 276.327 248.555 277.013C248.334 277.699 248.007 278.117 247.872 278.241C247 279.332 245.711 278.773 245.175 278.358C243.446 276.564 241.721 277.532 241.075 278.241L240.262 278.143L239.782 279.098C239.542 279.423 238.947 280.213 238.489 280.775C238.031 281.336 237.227 281.918 236.882 282.139C237.461 281.476 238.667 280.073 238.859 279.761C239.051 279.449 239.69 278.462 239.985 278.007C239.823 277.866 239.831 277.675 239.856 277.597C239.899 277.545 240.019 277.379 240.151 277.13C240.284 276.88 240.232 276.74 240.188 276.701C240.055 276.623 239.788 276.304 239.671 276.155C239.125 275.609 239.136 274.836 239.21 274.518C239.246 275.024 239.801 275.843 240.188 276.155C240.499 276.405 241.537 276.389 242.017 276.35C243.919 276.662 245.84 275.122 245.932 275.044C246.025 274.966 246.56 274.44 246.727 273.816C246.86 273.317 246.671 272.984 246.56 272.88C246.542 272.919 246.361 273.04 245.785 273.212C245.208 273.383 244.572 273.205 244.326 273.095C244.122 273.056 243.624 272.705 243.458 272.335C243.325 272.038 243.353 271.665 243.384 271.516L243.31 271.438L239.985 270.463C239.782 270.411 239.232 270.358 238.655 270.561C238.079 270.763 237.122 272.01 236.716 272.607C235.977 273.783 234.43 276.26 234.149 276.759C233.868 277.258 233.613 278.215 233.521 278.631C233.49 279.098 233.517 280.209 233.872 280.911C234.315 281.788 235.534 283.893 235.719 284.147C235.867 284.35 237.024 286.843 237.584 288.065C237.695 288.442 237.935 289.281 238.009 289.624Z" fill="#F3BB02"/>
<path d="M240.706 268.3C240.602 268.565 240.749 269.619 240.835 270.113L244.935 271.438C245.015 270.834 245.175 269.309 245.175 268.046C245.175 266.468 244.991 267.052 244.178 266.117C243.528 265.368 242.319 265.701 241.795 265.961C240.595 266.253 240.835 267.968 240.706 268.3Z" fill="#F3BB02"/>
<path d="M246.191 267.598C245.659 268.159 245.231 270.392 245.083 271.438L246.08 271.964C246.634 272.12 247.059 272.88 247.133 273.095C247.207 273.309 247.244 273.816 246.967 274.518C246.745 275.079 245.446 275.973 244.824 276.35C244.839 276.615 245.138 276.902 245.286 277.013C247.022 278.182 247.872 276.837 248.223 276.252C248.574 275.668 249.22 273.309 249.645 271.516C249.985 270.081 249.971 269.164 249.922 268.884C249.86 268.54 249.615 267.734 249.128 267.267C248.64 266.799 247.656 266.786 247.225 266.838C247.102 266.857 246.723 267.037 246.191 267.598Z" fill="#F3BB02"/>
<path d="M234.851 258.593C234.91 259.185 236.045 267.754 236.605 271.964C238.127 269.641 239.862 269.762 240.539 270.112C240.569 269.832 240.33 267.553 240.207 266.448L239.21 259.782C239.043 258.943 238.637 257.018 238.342 256.02C238.046 255.022 237.603 254.642 237.418 254.577C236.502 253.985 235.756 254.564 235.497 254.928C234.851 255.357 234.777 257.852 234.851 258.593Z" fill="#F3BB02"/>
</g>
<defs>
<filter id="filter0_d" x="23" y="4" width="258" height="324.06" filterUnits="userSpaceOnUse" color-interpolation-filters="sRGB">
<feFlood flood-opacity="0" result="BackgroundImageFix"/>
<feColorMatrix in="SourceAlpha" type="matrix" values="0 0 0 0 0 0 0 0 0 0 0 0 0 0 0 0 0 0 127 0"/>
<feOffset dy="4"/>
<feGaussianBlur stdDeviation="7.5"/>
<feColorMatrix type="matrix" values="0 0 0 0 0 0 0 0 0 0 0 0 0 0 0 0 0 0 0.25 0"/>
<feBlend mode="normal" in2="BackgroundImageFix" result="effect1_dropShadow"/>
<feBlend mode="normal" in="SourceGraphic" in2="effect1_dropShadow" result="shape"/>
</filter>
</defs>
</svg>
