<svg width="182" height="58" viewBox="0 0 182 58" fill="none" xmlns="http://www.w3.org/2000/svg">
<path d="M9.42363 43.48C6.89563 43.48 4.95963 42.76 3.61563 41.32C2.30363 39.88 1.64763 37.848 1.64763 35.224V17.176C1.64763 14.552 2.30363 12.52 3.61563 11.08C4.95963 9.64 6.89563 8.92 9.42363 8.92C11.9516 8.92 13.8716 9.64 15.1836 11.08C16.5276 12.52 17.1996 14.552 17.1996 17.176V20.728H12.2076V16.84C12.2076 14.76 11.3276 13.72 9.56763 13.72C7.80763 13.72 6.92763 14.76 6.92763 16.84V35.608C6.92763 37.656 7.80763 38.68 9.56763 38.68C11.3276 38.68 12.2076 37.656 12.2076 35.608V30.472H17.1996V35.224C17.1996 37.848 16.5276 39.88 15.1836 41.32C13.8716 42.76 11.9516 43.48 9.42363 43.48ZM28.0844 43.48C25.4924 43.48 23.5084 42.744 22.1324 41.272C20.7564 39.8 20.0684 37.72 20.0684 35.032V17.368C20.0684 14.68 20.7564 12.6 22.1324 11.128C23.5084 9.656 25.4924 8.92 28.0844 8.92C30.6764 8.92 32.6604 9.656 34.0364 11.128C35.4124 12.6 36.1004 14.68 36.1004 17.368V35.032C36.1004 37.72 35.4124 39.8 34.0364 41.272C32.6604 42.744 30.6764 43.48 28.0844 43.48ZM28.0844 38.68C29.9084 38.68 30.8204 37.576 30.8204 35.368V17.032C30.8204 14.824 29.9084 13.72 28.0844 13.72C26.2604 13.72 25.3484 14.824 25.3484 17.032V35.368C25.3484 37.576 26.2604 38.68 28.0844 38.68ZM47.3511 43.48C44.7911 43.48 42.8391 42.76 41.4951 41.32C40.1511 39.848 39.4791 37.752 39.4791 35.032V9.4H44.7591V35.416C44.7591 36.568 44.9831 37.4 45.4311 37.912C45.9111 38.424 46.5831 38.68 47.4471 38.68C48.3111 38.68 48.9671 38.424 49.4151 37.912C49.8951 37.4 50.1351 36.568 50.1351 35.416V9.4H55.2231V35.032C55.2231 37.752 54.5511 39.848 53.2071 41.32C51.8631 42.76 49.9111 43.48 47.3511 43.48ZM58.9836 9.4H66.8076C69.5276 9.4 71.5116 10.04 72.7596 11.32C74.0076 12.568 74.6316 14.504 74.6316 17.128V19.192C74.6316 22.68 73.4796 24.888 71.1756 25.816V25.912C72.4556 26.296 73.3516 27.08 73.8636 28.264C74.4076 29.448 74.6796 31.032 74.6796 33.016V38.92C74.6796 39.88 74.7116 40.664 74.7756 41.272C74.8396 41.848 74.9996 42.424 75.2556 43H69.8796C69.6876 42.456 69.5596 41.944 69.4956 41.464C69.4316 40.984 69.3996 40.12 69.3996 38.872V32.728C69.3996 31.192 69.1436 30.12 68.6316 29.512C68.1516 28.904 67.3036 28.6 66.0876 28.6H64.2636V43H58.9836V9.4ZM66.1836 23.8C67.2396 23.8 68.0236 23.528 68.5356 22.984C69.0796 22.44 69.3516 21.528 69.3516 20.248V17.656C69.3516 16.44 69.1276 15.56 68.6796 15.016C68.2636 14.472 67.5916 14.2 66.6636 14.2H64.2636V23.8H66.1836ZM85.207 43.48C82.647 43.48 80.711 42.76 79.399 41.32C78.087 39.848 77.431 37.752 77.431 35.032V33.112H82.423V35.416C82.423 37.592 83.335 38.68 85.159 38.68C86.055 38.68 86.727 38.424 87.175 37.912C87.655 37.368 87.895 36.504 87.895 35.32C87.895 33.912 87.575 32.68 86.935 31.624C86.295 30.536 85.111 29.24 83.383 27.736C81.207 25.816 79.687 24.088 78.823 22.552C77.959 20.984 77.527 19.224 77.527 17.272C77.527 14.616 78.199 12.568 79.543 11.128C80.887 9.656 82.839 8.92 85.399 8.92C87.927 8.92 89.831 9.656 91.111 11.128C92.423 12.568 93.079 14.648 93.079 17.368V18.76H88.087V17.032C88.087 15.88 87.863 15.048 87.415 14.536C86.967 13.992 86.311 13.72 85.447 13.72C83.687 13.72 82.807 14.792 82.807 16.936C82.807 18.152 83.127 19.288 83.767 20.344C84.439 21.4 85.639 22.68 87.367 24.184C89.575 26.104 91.095 27.848 91.927 29.416C92.759 30.984 93.175 32.824 93.175 34.936C93.175 37.688 92.487 39.8 91.111 41.272C89.767 42.744 87.799 43.48 85.207 43.48ZM96.2024 9.4H110.602V14.2H101.482V23.08H108.73V27.88H101.482V38.2H110.602V43H96.2024V9.4ZM121.327 9.4H126.607V23.08H132.271V9.4H137.551V43H132.271V27.88H126.607V43H121.327V9.4ZM164.546 9.4H172.514C175.234 9.4 177.218 10.04 178.466 11.32C179.714 12.568 180.338 14.504 180.338 17.128V18.472C180.338 20.2 180.05 21.608 179.474 22.696C178.93 23.784 178.082 24.568 176.93 25.048V25.144C179.554 26.04 180.866 28.376 180.866 32.152V35.032C180.866 37.624 180.178 39.608 178.802 40.984C177.458 42.328 175.474 43 172.85 43H164.546V9.4ZM171.89 23.08C172.946 23.08 173.73 22.808 174.242 22.264C174.786 21.72 175.058 20.808 175.058 19.528V17.656C175.058 16.44 174.834 15.56 174.386 15.016C173.97 14.472 173.298 14.2 172.37 14.2H169.826V23.08H171.89ZM172.85 38.2C173.778 38.2 174.466 37.96 174.914 37.48C175.362 36.968 175.586 36.104 175.586 34.888V31.96C175.586 30.424 175.314 29.368 174.77 28.792C174.258 28.184 173.394 27.88 172.178 27.88H169.826V38.2H172.85Z" fill="white"/>
<path d="M143.186 38.7015V42.6574L157.344 42.6908V38.7015H143.186Z" fill="#F3BB02"/>
<path d="M144.958 35.2295C145.023 35.5233 144.985 37.188 144.958 37.9836C146.806 38.0337 150.497 38.1005 150.484 37.967C150.468 37.8 150.598 37.5664 151.362 35.8471C152.126 34.1279 151.98 33.9609 152.175 32.3585C152.37 30.7561 151.297 28.3525 151.151 28.0688C151.034 27.8418 150.81 27.4289 150.712 27.2509C150.755 27.2787 150.881 27.361 151.037 27.4679C151.193 27.5747 151.861 28.7698 152.175 29.354C153.007 31.13 153.107 33.1208 153.053 33.8942C152.884 35.4298 153.296 37.2492 153.524 37.967H155.946L156.433 35.8471L157.457 31.5573C157.734 30.0495 158.273 26.6867 158.221 25.2979C158.169 23.9092 158.785 20.9581 159.099 19.6562C159.614 17.6309 160.712 13.1864 160.985 11.6107C161.326 9.64113 160.676 9.37406 160.643 9.22383C160.611 9.07361 160.318 8.80654 159.522 8.72308C158.885 8.65632 158.27 9.69678 158.043 10.2253C156.856 14.7154 154.434 23.8424 154.239 24.43C154.044 25.0175 153.757 25.3759 153.638 25.4816C152.871 26.4163 151.736 25.9378 151.265 25.5817C149.743 24.0461 148.225 24.8751 147.656 25.4816L146.941 25.3981L146.518 26.216C146.307 26.4942 145.784 27.1708 145.381 27.6515C144.978 28.1322 144.27 28.6308 143.967 28.8199C144.476 28.2524 145.537 27.0506 145.706 26.7835C145.875 26.5164 146.437 25.6707 146.697 25.2813C146.554 25.1611 146.562 24.9975 146.583 24.9307C146.621 24.8862 146.726 24.7438 146.844 24.5301C146.961 24.3165 146.914 24.1963 146.876 24.1629C146.759 24.0961 146.524 23.8235 146.421 23.6955C145.94 23.2282 145.95 22.5661 146.015 22.2934C146.047 22.7274 146.535 23.4285 146.876 23.6955C147.149 23.9092 148.063 23.8958 148.485 23.8625C150.159 24.1295 151.85 22.8109 151.931 22.7441C152.012 22.6774 152.484 22.2267 152.63 21.6925C152.747 21.2652 152.581 20.9804 152.484 20.8913C152.467 20.9247 152.308 21.0282 151.801 21.1751C151.294 21.322 150.734 21.1696 150.517 21.0749C150.338 21.0416 149.899 20.7411 149.753 20.424C149.636 20.1703 149.661 19.8509 149.688 19.7229L149.623 19.6562L146.697 18.8216C146.518 18.7771 146.034 18.7314 145.527 18.905C145.02 19.0786 144.178 20.1458 143.82 20.6577C143.17 21.6647 141.808 23.7857 141.561 24.213C141.314 24.6403 141.09 25.4593 141.008 25.8154C140.981 26.216 141.005 27.1674 141.317 27.7683C141.707 28.5194 142.78 30.3222 142.943 30.5391C143.073 30.7127 144.091 32.8482 144.584 33.8942C144.682 34.2169 144.893 34.9357 144.958 35.2295Z" fill="#F3BB02"/>
<path d="M142.179 8.65642C142.231 9.16385 143.23 16.5015 143.723 20.1069C145.062 18.1173 146.589 18.2208 147.185 18.5212C147.211 18.2809 147.001 16.3291 146.892 15.3832L146.015 9.67461C145.868 8.95687 145.511 7.30774 145.251 6.45312C144.991 5.59851 144.6 5.27358 144.438 5.21794C143.632 4.71051 142.975 5.20681 142.748 5.51839C142.179 5.88561 142.114 8.02215 142.179 8.65642Z" fill="#F3BB02"/>
<path d="M147.331 16.9688C147.24 17.1958 147.369 18.0983 147.445 18.5211L151.053 19.6562C151.124 19.1387 151.265 17.8334 151.265 16.7518C151.265 15.3998 151.102 15.9005 150.387 15.0993C149.815 14.4584 148.751 14.7433 148.29 14.9658C147.234 15.2162 147.445 16.685 147.331 16.9688Z" fill="#F3BB02"/>
<path d="M152.159 16.3679C151.691 16.8486 151.314 18.7604 151.183 19.6561L152.061 20.1068C152.549 20.2404 152.923 20.8913 152.988 21.0749C153.053 21.2586 153.085 21.6925 152.841 22.2934C152.646 22.7742 151.503 23.5398 150.956 23.8625C150.969 24.0895 151.232 24.3354 151.362 24.43C152.89 25.4315 153.638 24.2797 153.947 23.779C154.256 23.2782 154.824 21.2586 155.198 19.7229C155.497 18.4944 155.485 17.7088 155.442 17.4695C155.388 17.1747 155.172 16.4847 154.743 16.0841C154.314 15.6835 153.448 15.6724 153.069 15.7169C152.961 15.7336 152.627 15.8872 152.159 16.3679Z" fill="#F3BB02"/>
</svg>
