<svg width="303" height="377" viewBox="0 0 303 377" fill="none" xmlns="http://www.w3.org/2000/svg">
<rect width="303" height="377" rx="25" fill="#D0D0D0"/>
<g filter="url(#filter0_d)">
<path d="M285.094 42.7998V280.479C285.094 282.417 284.597 284.277 283.714 285.648C282.83 287.02 281.631 287.791 280.381 287.792H22.7131C21.4628 287.791 20.264 287.02 19.3802 285.648C18.4965 284.277 18 282.417 18 280.479V42.7998H285.094Z" fill="#00296B"/>
<path d="M285.094 30.3862V42.8H18V30.3862C17.9996 29.8266 18.0597 29.2724 18.1769 28.7552C18.2941 28.238 18.4661 27.768 18.6831 27.372C18.9 26.9761 19.1577 26.662 19.4413 26.4477C19.7249 26.2334 20.0289 26.123 20.3359 26.123H282.774C283.391 26.1307 283.982 26.5834 284.416 27.3822C284.851 28.181 285.095 29.261 285.094 30.3862V30.3862Z" fill="#EDEDF4"/>
<path opacity="0.8" d="M24.8829 36.4719C25.8483 36.4719 26.6309 35.5725 26.6309 34.463C26.6309 33.3535 25.8483 32.4541 24.8829 32.4541C23.9174 32.4541 23.1348 33.3535 23.1348 34.463C23.1348 35.5725 23.9174 36.4719 24.8829 36.4719Z" fill="#FA5959"/>
<path opacity="0.8" d="M29.6868 36.4719C30.6522 36.4719 31.4349 35.5725 31.4349 34.463C31.4349 33.3535 30.6522 32.4541 29.6868 32.4541C28.7214 32.4541 27.9387 33.3535 27.9387 34.463C27.9387 35.5725 28.7214 36.4719 29.6868 36.4719Z" fill="#FED253"/>
<path opacity="0.8" d="M34.4898 36.4719C35.4552 36.4719 36.2379 35.5725 36.2379 34.463C36.2379 33.3535 35.4552 32.4541 34.4898 32.4541C33.5243 32.4541 32.7417 33.3535 32.7417 34.463C32.7417 35.5725 33.5243 36.4719 34.4898 36.4719Z" fill="#8CCF4D"/>
<path d="M256.456 19.0089V17H253.836V19.0089H256.456Z" fill="url(#paint0_linear)"/>
<path d="M77.298 54.3149H36.2561V59.3342H77.298V54.3149Z" fill="#F3BB02"/>
<path d="M266.775 68.8608H36.2559V73.8801H266.775V68.8608Z" fill="#F3BB02"/>
<path d="M266.775 83.4116H36.2559V88.4309H266.775V83.4116Z" fill="#F3BB02"/>
<path d="M266.775 97.9629H36.2559V102.982H266.775V97.9629Z" fill="#F3BB02"/>
<path d="M266.775 112.515H36.2559V117.534H266.775V112.515Z" fill="#F3BB02"/>
<path d="M222.607 140.266H80.2776V266.703H222.607V140.266Z" fill="#F3BB02"/>
<path d="M140.425 226.447V232.538L161.637 232.59V226.447H140.425Z" fill="#00296B"/>
<path d="M143.079 221.101C143.177 221.553 143.12 224.117 143.079 225.342C145.848 225.419 151.379 225.522 151.36 225.316C151.335 225.059 151.53 224.699 152.675 222.052C153.819 219.405 153.6 219.148 153.892 216.68C154.185 214.213 152.577 210.512 152.358 210.075C152.183 209.725 151.847 209.09 151.701 208.815C151.766 208.858 151.954 208.985 152.188 209.149C152.421 209.314 153.422 211.154 153.892 212.054C155.139 214.788 155.289 217.854 155.208 219.045C154.954 221.409 155.573 224.211 155.914 225.316H159.543L160.273 222.052L161.807 215.446C162.221 213.125 163.03 207.947 162.952 205.808C162.874 203.67 163.796 199.126 164.267 197.121C165.038 194.002 166.683 187.159 167.092 184.732C167.604 181.7 166.63 181.288 166.581 181.057C166.532 180.826 166.094 180.414 164.9 180.286C163.946 180.183 163.025 181.785 162.684 182.599C160.906 189.513 157.278 203.567 156.985 204.472C156.693 205.376 156.263 205.928 156.084 206.091C154.935 207.53 153.235 206.793 152.529 206.245C150.249 203.881 147.974 205.157 147.122 206.091L146.051 205.962L145.417 207.222C145.101 207.65 144.317 208.692 143.713 209.432C143.109 210.172 142.048 210.94 141.594 211.231C142.357 210.357 143.946 208.507 144.2 208.096C144.453 207.684 145.296 206.382 145.685 205.782C145.471 205.597 145.482 205.346 145.515 205.243C145.572 205.174 145.729 204.955 145.904 204.626C146.08 204.297 146.01 204.112 145.953 204.06C145.778 203.958 145.425 203.538 145.271 203.341C144.55 202.621 144.565 201.602 144.662 201.182C144.711 201.85 145.442 202.93 145.953 203.341C146.362 203.67 147.731 203.649 148.364 203.598C150.873 204.009 153.405 201.979 153.527 201.876C153.649 201.773 154.355 201.079 154.574 200.257C154.75 199.599 154.501 199.16 154.355 199.023C154.331 199.074 154.092 199.234 153.332 199.46C152.572 199.686 151.733 199.451 151.408 199.306C151.14 199.254 150.483 198.791 150.264 198.303C150.088 197.912 150.126 197.421 150.166 197.224L150.069 197.121L145.685 195.836C145.417 195.767 144.692 195.697 143.932 195.964C143.172 196.232 141.91 197.875 141.375 198.663C140.4 200.214 138.36 203.48 137.989 204.138C137.619 204.796 137.283 206.057 137.161 206.605C137.121 207.222 137.156 208.687 137.624 209.612C138.209 210.769 139.816 213.545 140.059 213.879C140.254 214.146 141.78 217.434 142.519 219.045C142.665 219.542 142.982 220.649 143.079 221.101Z" fill="#00296B"/>
<path d="M146.635 192.983C146.498 193.332 146.692 194.722 146.805 195.373L152.212 197.121C152.317 196.324 152.528 194.314 152.528 192.649C152.528 190.567 152.285 191.338 151.213 190.104C150.356 189.117 148.762 189.556 148.072 189.899C146.489 190.284 146.805 192.546 146.635 192.983Z" fill="#00296B"/>
<path d="M153.868 192.057C153.166 192.797 152.601 195.741 152.406 197.12L153.721 197.814C154.452 198.02 155.012 199.022 155.11 199.305C155.207 199.587 155.256 200.256 154.89 201.181C154.598 201.921 152.885 203.1 152.065 203.597C152.085 203.946 152.479 204.325 152.674 204.471C154.964 206.013 156.084 204.239 156.547 203.468C157.009 202.697 157.862 199.587 158.422 197.223C158.87 195.331 158.852 194.121 158.787 193.753C158.706 193.299 158.383 192.237 157.74 191.62C157.097 191.003 155.8 190.986 155.231 191.054C155.069 191.08 154.569 191.316 153.868 192.057Z" fill="#00296B"/>
<path d="M138.915 180.182C138.993 180.964 140.49 192.262 141.228 197.814C143.235 194.75 145.523 194.91 146.416 195.372C146.455 195.002 146.14 191.997 145.977 190.54L144.662 181.75C144.443 180.645 143.907 178.106 143.517 176.79C143.128 175.474 142.543 174.974 142.3 174.888C141.092 174.106 140.108 174.871 139.767 175.35C138.915 175.916 138.817 179.206 138.915 180.182Z" fill="#00296B"/>
</g>
<defs>
<filter id="filter0_d" x="3" y="6" width="297.094" height="300.792" filterUnits="userSpaceOnUse" color-interpolation-filters="sRGB">
<feFlood flood-opacity="0" result="BackgroundImageFix"/>
<feColorMatrix in="SourceAlpha" type="matrix" values="0 0 0 0 0 0 0 0 0 0 0 0 0 0 0 0 0 0 127 0"/>
<feOffset dy="4"/>
<feGaussianBlur stdDeviation="7.5"/>
<feColorMatrix type="matrix" values="0 0 0 0 0 0 0 0 0 0 0 0 0 0 0 0 0 0 0.25 0"/>
<feBlend mode="normal" in2="BackgroundImageFix" result="effect1_dropShadow"/>
<feBlend mode="normal" in="SourceGraphic" in2="effect1_dropShadow" result="shape"/>
</filter>
<linearGradient id="paint0_linear" x1="-2279.41" y1="1192.97" x2="-2265.86" y2="1192.97" gradientUnits="userSpaceOnUse">
<stop stop-color="#808080" stop-opacity="0.25"/>
<stop offset="0.54" stop-color="#808080" stop-opacity="0.12"/>
<stop offset="1" stop-color="#808080" stop-opacity="0.1"/>
</linearGradient>
</defs>
</svg>
