<svg width="455" height="591" viewBox="0 0 455 591" fill="none" xmlns="http://www.w3.org/2000/svg">
<g clip-path="url(#clip0)">
<rect width="455" height="590.032" rx="25" fill="#00296B"/>
<g clip-path="url(#clip1)">
<path d="M372.269 267.6L370.174 474.394L360.402 472.953L362.496 267.6H372.269Z" fill="#3F3D56"/>
<path d="M313.635 305.068L311.541 511.862L301.769 510.421L303.863 305.068H313.635Z" fill="#3F3D56"/>
<path d="M131.082 409.531L131.124 405.561V403.198L131.494 366.825L132.073 309.96L132.171 305.053H141.943L141.894 309.78L141.587 340.237L141.455 353.423L141.343 364.101L141.162 382.562L141.05 393.449V394.602L140.903 408.912L140.778 421.528L139.982 420.62C138.702 419.146 137.45 417.647 136.227 416.124L131.082 409.531Z" fill="#3F3D56"/>
<path d="M324.454 338.573L330.039 347.191L324.454 386.453L276.989 399.862H200.207L154.138 402.737L132.192 387.231L135.989 360.6L152.742 338.573H324.454Z" fill="#003F88"/>
<path d="M330.039 347.19L332.831 371.127C332.831 371.127 347.489 418.055 229.524 415.18C111.558 412.305 131.801 402.729 131.801 402.729L132.499 374.96C132.499 374.96 128.388 388.102 188.34 386.323C248.293 384.543 304.212 378.793 304.212 378.793C304.212 378.793 325.152 382.619 330.039 347.19Z" fill="#3F3D56"/>
<path d="M231.757 132.644C238.486 135.807 243.582 141.939 246.995 148.719C250.409 155.499 252.328 162.942 254.22 170.335C256.216 178.131 258.219 185.949 259.252 193.94C261.095 208.149 259.713 223.085 253.389 235.846C247.065 248.607 235.38 258.903 221.699 261.36C216.415 262.319 210.984 262.124 205.644 261.555C195.993 260.5 186.485 258.337 177.298 255.106C167.7 251.756 157.711 246.596 153.44 237.093C150.962 231.58 150.752 225.297 150.871 219.23C151.2 202.695 153.62 186.274 158.067 170.385C159.359 165.774 160.86 161.126 163.596 157.243C166.332 153.359 170.073 150.513 173.892 147.876C190.218 136.527 211.675 123.219 231.757 132.644Z" fill="#FBBEBE"/>
<path opacity="0.05" d="M231.757 132.644C238.486 135.807 243.582 141.939 246.995 148.719C250.409 155.499 252.328 162.942 254.22 170.335C256.216 178.131 258.219 185.949 259.252 193.94C261.095 208.149 259.713 223.085 253.389 235.846C247.065 248.607 235.38 258.903 221.699 261.36C216.415 262.319 210.984 262.124 205.644 261.555C195.993 260.5 186.485 258.337 177.298 255.106C167.7 251.756 157.711 246.596 153.44 237.093C150.962 231.58 150.752 225.297 150.871 219.23C151.2 202.695 153.62 186.274 158.067 170.385C159.359 165.774 160.86 161.126 163.596 157.243C166.332 153.359 170.073 150.513 173.892 147.876C190.218 136.527 211.675 123.219 231.757 132.644Z" fill="black"/>
<path d="M239.317 223.337C237.369 226.101 235.014 228.532 232.337 230.543C225.692 235.284 217.162 235.925 209.093 236.185C202.615 236.386 195.188 236.004 191.126 230.788C189.297 228.439 188.473 225.441 187.733 222.523C183.167 204.604 179.924 186.353 178.031 167.928L159.547 167.993C151.548 203.35 152.204 240.104 152.902 276.412L153.914 329.357L165.823 328.053C194.099 324.962 222.418 321.871 250.848 321.338C267.506 321.021 284.169 321.589 300.771 323.038L274.839 243.448C271.475 233.101 268.076 222.617 267.287 211.744C266.149 195.971 270.435 179.32 264.495 164.729C264.02 163.554 263.42 162.337 262.338 161.724C261.256 161.112 259.888 161.263 258.645 161.429C256.3 161.753 249.131 161.429 247.428 162.978C244.915 165.226 246.576 165.565 247.463 169.189C249.047 175.674 250.548 181.676 250.527 188.435C250.506 200.705 246.821 213.661 239.317 223.337Z" fill="#003F88"/>
<path d="M145.594 426.415C142.481 422.15 139.547 417.733 136.792 413.164C138.188 410.081 139.724 407.069 140.945 403.92C142.816 399.092 143.891 393.977 144.952 388.897C145.315 387.167 145.676 385.438 146.034 383.709C149.943 364.896 153.615 345.816 154.375 326.743C154.445 325.158 154.489 323.573 154.508 321.988C154.508 321.757 154.508 321.534 154.508 321.267C154.508 319.531 154.508 317.794 154.508 316.065C154.424 311.742 154.159 307.382 153.677 303.045C153.587 302.195 153.482 301.344 153.37 300.494C153.37 300.307 153.328 300.127 153.3 299.939L105.835 298.152L101.842 298.001C99.0992 297.9 96.1954 297.742 93.9339 296.135C90.1296 293.44 89.6829 287.914 89.7457 283.165C89.9767 271.164 91.2947 259.211 93.6825 247.463C95.4834 238.629 98.0521 229.601 103.818 222.813C108.55 217.236 115.405 213.179 117.869 206.241C118.783 203.661 119.014 200.83 120.2 198.365C121.387 195.901 123.348 194.092 125.198 192.19C131.708 185.531 137.109 177.809 141.183 169.335C144.01 163.455 147.074 156.97 150.767 152.907C150.948 152.698 151.13 152.503 151.318 152.316C154.459 149.109 158.054 147.704 162.312 149.888C163.077 150.284 163.806 150.752 164.49 151.285V151.285C166.007 152.482 167.395 153.845 168.629 155.349C172.93 160.454 176.703 166.008 179.888 171.922C182.127 176.085 184.05 180.421 185.64 184.891C186.894 188.423 187.932 192.033 188.746 195.699C189.346 198.416 189.821 201.161 190.198 203.913C191.594 214.26 191.594 224.809 191.398 235.286C191.189 244.912 190.777 254.56 189.932 264.15C189.723 266.47 189.49 268.788 189.234 271.103C188.723 275.681 188.09 280.245 187.336 284.794C187.036 286.53 186.729 288.267 186.387 289.996C186.303 290.457 186.212 290.918 186.121 291.372L186.079 291.567C185.157 295.586 184.442 299.653 183.936 303.751C183.881 304.265 183.839 304.777 183.811 305.286C183.693 307.641 183.712 310.001 183.867 312.354C184.027 315.135 184.278 317.909 184.404 320.691C184.404 321.181 184.404 321.663 184.453 322.132C184.488 323.537 184.453 324.942 184.453 326.347C184.311 329.708 183.924 333.054 183.294 336.355C182.117 342.496 180.083 348.427 177.256 353.965C176.991 354.484 176.719 354.996 176.447 355.5C172.908 362.028 168.44 368.016 165.167 374.695C162.343 380.706 160.233 387.047 158.885 393.58C158.419 395.737 157.977 397.899 157.558 400.065C156.909 403.524 156.33 407.011 155.736 410.498C155.681 410.844 155.618 411.219 155.555 411.536C154.766 416.162 153.936 420.766 152.868 425.284C152.246 427.914 151.548 430.508 150.732 433.058L145.594 426.415Z" fill="#464353"/>
<path d="M140.408 352.739C140.408 353.387 140.45 354.036 140.478 354.691C140.602 357.853 140.884 361.006 141.322 364.137C141.901 368.412 142.914 372.612 144.345 376.668C145.293 379.334 146.5 381.896 147.946 384.312C149.229 386.458 150.732 388.456 152.428 390.271C156.616 394.767 162.647 396.201 168.482 398.096C171.167 398.899 173.762 399.993 176.223 401.36C176.663 401.613 177.096 401.886 177.515 402.175L184.816 407.168C187.091 408.717 189.416 410.324 190.979 412.622C191.236 413.013 191.469 413.42 191.677 413.84C192.665 415.956 193.388 418.193 193.827 420.498C197.625 436.825 201.429 453.167 204.032 469.739C204.207 470.835 204.374 471.937 204.556 473.039L204.619 473.385C204.65 473.303 204.688 473.224 204.73 473.147C223.409 484.806 242.779 495.326 262.736 503.749L267.071 466.281C267.522 463.235 267.672 460.149 267.517 457.072C267.105 452.223 265.193 447.626 264.676 442.791C264.187 438.058 265.053 433.281 267.168 429.051C267.992 427.408 269.025 425.794 269.213 423.956C269.402 422.119 268.376 420.44 266.589 420.253C265.193 418.653 265.081 416.47 265.493 414.308C265.712 413.18 266.039 412.077 266.47 411.016C267.657 408.004 269.158 404.725 268.138 401.649C267.869 401.091 267.748 400.469 267.789 399.847C267.782 399.809 267.782 399.77 267.789 399.732C268.027 398.925 268.955 398.572 269.437 397.887C270.344 396.612 269.437 394.876 268.878 393.406C268.335 391.826 268.02 390.173 267.943 388.499C267.866 387.569 267.81 386.633 267.713 385.71C267.577 384.462 267.36 383.225 267.064 382.007C265.368 375.104 261.29 369.078 255.595 365.06C252.88 363.172 249.857 361.796 247.086 360.016C244.248 358.041 241.538 355.874 238.975 353.531C232.828 348.247 226.436 343.266 219.801 338.587C212.665 333.557 205.274 328.925 197.659 324.71C196.031 323.802 194.402 322.918 192.773 322.058C191 321.097 189.216 320.187 187.419 319.327C181.668 316.496 175.141 317.555 168.782 319.443C166.116 320.228 163.484 321.165 160.944 322.015C158.462 322.848 156.075 323.954 153.824 325.315C148.191 328.73 143.535 333.774 141.601 340.144C141.598 340.184 141.598 340.225 141.601 340.266C140.373 344.258 140.296 348.538 140.408 352.739Z" fill="#F3BB02"/>
<path opacity="0.1" d="M140.408 352.739C140.408 353.387 140.45 354.036 140.478 354.691C140.602 357.853 140.884 361.006 141.322 364.137C141.901 368.412 142.914 372.612 144.345 376.668C145.293 379.334 146.5 381.896 147.946 384.312C149.229 386.458 150.732 388.456 152.428 390.271C156.616 394.767 162.647 396.201 168.482 398.096C171.167 398.899 173.762 399.993 176.223 401.36C176.663 401.613 177.096 401.886 177.515 402.175L184.816 407.168C187.091 408.717 189.416 410.324 190.979 412.622C191.236 413.013 191.469 413.42 191.677 413.84C192.665 415.956 193.388 418.193 193.827 420.498C197.625 436.825 201.429 453.167 204.032 469.739C204.207 470.835 204.374 471.937 204.556 473.039L204.619 473.385C204.65 473.303 204.688 473.224 204.73 473.147C223.409 484.806 242.779 495.326 262.736 503.749L267.071 466.281C267.522 463.235 267.672 460.149 267.517 457.072C267.105 452.223 265.193 447.626 264.676 442.791C264.187 438.058 265.053 433.281 267.168 429.051C267.992 427.408 269.025 425.794 269.213 423.956C269.402 422.119 268.376 420.44 266.589 420.253C265.193 418.653 265.081 416.47 265.493 414.308C265.712 413.18 266.039 412.077 266.47 411.016C267.657 408.004 269.158 404.725 268.138 401.649C267.869 401.091 267.748 400.469 267.789 399.847C267.782 399.809 267.782 399.77 267.789 399.732C268.027 398.925 268.955 398.572 269.437 397.887C270.344 396.612 269.437 394.876 268.878 393.406C268.335 391.826 268.02 390.173 267.943 388.499C267.866 387.569 267.81 386.633 267.713 385.71C267.577 384.462 267.36 383.225 267.064 382.007C265.368 375.104 261.29 369.078 255.595 365.06C252.88 363.172 249.857 361.796 247.086 360.016C244.248 358.041 241.538 355.874 238.975 353.531C232.828 348.247 226.436 343.266 219.801 338.587C212.665 333.557 205.274 328.925 197.659 324.71C196.031 323.802 194.402 322.918 192.773 322.058C191 321.097 189.216 320.187 187.42 319.327C181.668 316.496 175.141 317.555 168.782 319.443C166.116 320.228 163.484 321.165 160.944 322.015C158.462 322.848 156.075 323.954 153.824 325.315C148.191 328.73 143.535 333.774 141.601 340.144C141.598 340.184 141.598 340.225 141.601 340.266C140.373 344.258 140.296 348.538 140.408 352.739Z" fill="black"/>
<path d="M206.685 233.389C206.755 233.222 206.858 233.071 206.986 232.945C207.115 232.82 207.267 232.723 207.433 232.659C207.599 232.596 207.775 232.568 207.952 232.577C208.128 232.586 208.301 232.632 208.461 232.711C208.62 232.791 208.762 232.903 208.878 233.041C208.994 233.178 209.082 233.339 209.136 233.513C209.191 233.686 209.21 233.87 209.195 234.051C209.179 234.233 209.128 234.41 209.044 234.571L209.742 234.924L188.927 278.963L185.165 277.068L205.98 233L206.685 233.389Z" fill="#3F3D56"/>
<path d="M266.4 138.61C271.656 137.94 276.871 135.562 282.057 136.729C285.303 137.45 288.095 139.532 290.691 141.672C300.355 149.667 308.571 159.363 314.962 170.313C316.045 171.95 316.806 173.791 317.202 175.732C317.537 177.98 316.944 180.264 316.239 182.418C311.464 196.98 301.252 209.143 296.604 223.748C291.717 239.11 293.414 255.899 297.015 271.635C301.48 291.062 308.736 309.69 318.542 326.9C319.874 329.459 321.542 331.816 323.498 333.904C326.039 336.426 329.452 338.227 330.96 341.527C331.658 342.968 331.861 344.611 332.356 346.153C333.752 350.476 337.131 354.18 337.459 358.741C337.703 362.221 336.105 365.514 335.134 368.828C333.498 374.523 333.672 380.608 335.63 386.193C339.169 396.209 348.425 405.316 345.737 415.613C339.741 413.833 333.096 411.52 330.269 405.777C329.271 403.745 328.775 401.324 327.093 399.84C323.736 396.893 318.019 399.559 314.452 396.85C311.758 394.789 311.66 390.567 312.861 387.324C314.061 384.082 316.127 381.229 317.049 377.893C318.654 371.876 316.085 365.514 316.56 359.296C316.783 356.413 317.642 353.654 317.705 350.786C317.823 345.216 314.836 339.978 310.864 336.195C306.892 332.412 301.985 329.905 297.155 327.433L278.895 318.066C272.271 314.68 265.011 310.551 262.84 303.259C262.017 300.529 262.01 297.618 261.968 294.764C261.347 251.165 250.765 208.444 240.246 166.213C238.612 159.671 236.951 153.1 234.522 146.817C232.093 140.533 227.339 135.49 224.917 129.653C238.968 127.953 251.805 140.497 266.4 138.61Z" fill="#464353"/>
<path d="M188.646 179.219C163.974 179.219 143.973 158.573 143.973 133.104C143.973 107.636 163.974 86.99 188.646 86.99C213.319 86.99 233.32 107.636 233.32 133.104C233.32 158.573 213.319 179.219 188.646 179.219Z" fill="#FBBEBE"/>
<path d="M133.563 113.202C133.772 109.536 134.3 105.897 135.141 102.329C137.765 90.6782 142.56 79.2073 150.818 70.8419C151.327 68.7966 151.935 66.7789 152.64 64.7966C152.653 64.7475 152.669 64.6993 152.689 64.6525C155.152 57.6689 158.713 51.1521 163.229 45.3637C165.846 42.006 169.239 38.6915 173.413 38.5618C174.586 38.5186 175.828 38.7276 176.903 38.1727C177.694 37.6451 178.359 36.9409 178.851 36.112C180.918 33.4156 183.659 31.3535 186.779 30.1484C189.899 28.9432 193.278 28.6409 196.552 29.2741L196.985 29.3678C197.229 29.4182 197.474 29.4759 197.683 29.5407C197.893 29.6056 198.269 29.7136 198.563 29.8073C198.242 30.3549 197.927 30.9097 197.62 31.4718C196.792 32.9945 196.024 34.5508 195.317 36.1408C194.73 37.4666 194.188 38.814 193.69 40.183C200.838 41.0261 206.66 46.2644 211.979 51.2505L224.501 62.9808C224.524 63.0006 224.545 63.0223 224.564 63.0457L224.927 63.4059C225.018 63.4996 225.108 63.5933 225.192 63.6941C225.226 63.7242 225.256 63.758 225.283 63.795C225.388 63.9103 225.485 64.0328 225.583 64.1553C225.757 64.3822 225.914 64.6232 226.051 64.8758C226.119 64.984 226.18 65.0972 226.232 65.2145C226.251 65.249 226.268 65.2852 226.281 65.3225C226.327 65.4208 226.366 65.5219 226.4 65.6252C226.403 65.6394 226.403 65.6542 226.4 65.6684C226.419 65.7275 226.435 65.7876 226.449 65.8485C226.591 66.3556 226.549 66.8989 226.33 67.3761L218.072 67.4697H217.102C217.06 68.6082 217.025 69.7538 216.983 70.8923C218.294 71.9047 219.552 72.987 220.753 74.1347C222.062 75.3859 223.291 76.7242 224.431 78.1409C231.879 87.4286 235.767 99.4255 236.158 111.502C236.158 111.876 236.158 112.222 236.158 112.611C236.158 113.714 236.158 114.816 236.158 115.911C236.158 116.632 236.095 117.352 236.039 118.073C236.036 119.012 235.795 119.933 235.341 120.746C235.282 120.837 235.216 120.924 235.146 121.006C234.727 121.475 234.225 121.856 233.666 122.13L233.066 122.432C232.766 122.584 232.479 122.728 232.2 122.893C229.569 124.428 228.012 127.39 225.618 129.292C225.478 129.4 225.339 129.508 225.199 129.602L224.885 129.818L224.689 129.947L224.424 130.106C224.25 130.214 224.071 130.313 223.887 130.401V130.401L223.552 130.574H223.496C223.217 130.704 222.937 130.827 222.651 130.935L222.253 131.079L222.135 131.122C222.023 131.158 221.904 131.201 221.786 131.23C221.548 131.302 221.316 131.367 221.088 131.425L220.39 131.583C220.117 131.634 219.838 131.684 219.559 131.72L219.147 131.778L218.728 131.821C218.063 131.883 217.393 131.919 216.718 131.929C214.601 131.915 212.486 131.764 210.387 131.475L192.574 129.313C188.532 128.831 184.407 128.348 180.421 129.198C177.043 129.919 173.93 131.576 170.649 132.75C169.909 133.017 169.169 133.262 168.422 133.471C168.15 133.55 167.871 133.637 167.591 133.709L167.208 133.81L166.314 134.033C165.993 134.112 165.672 134.191 165.351 134.256C164.897 134.357 164.45 134.444 163.997 134.53C163.69 134.595 163.375 134.645 163.061 134.703H162.999L162.105 134.847H161.889L161.226 134.941C160.904 134.991 160.583 135.034 160.255 135.07C159.543 135.162 158.831 135.241 158.119 135.308C156.968 135.424 155.809 135.51 154.629 135.582L153.471 135.654L152.312 135.712L148.822 135.87H148.668H148.18C146.729 135.975 145.271 135.897 143.838 135.64C143.587 135.589 143.342 135.532 143.098 135.46C142.854 135.388 142.651 135.315 142.4 135.229C139.782 134.191 137.87 131.806 136.544 129.256C136.264 128.715 136.006 128.175 135.769 127.62C135.531 127.065 135.315 126.503 135.12 125.941C134.875 125.221 134.666 124.536 134.484 123.816C134.429 123.621 134.38 123.427 134.338 123.225C134.296 123.023 134.198 122.627 134.142 122.324C133.968 121.496 133.835 120.66 133.738 119.817C133.738 119.55 133.675 119.276 133.647 119.01C133.584 118.289 133.535 117.619 133.507 116.913C133.507 116.38 133.507 115.839 133.507 115.299C133.514 114.715 133.563 113.944 133.563 113.202ZM151.46 70.1862C152.026 69.6386 152.605 69.1126 153.191 68.6154C152.539 69.0404 151.957 69.5707 151.467 70.1862H151.46Z" fill="#464353"/>
<path d="M165.739 412.133C164.126 422.22 163.142 432.524 162.374 442.777C174.939 453.527 188.466 462.88 202.21 471.555C202.992 472.052 203.781 472.542 204.57 472.996L204.632 473.342C204.664 473.26 204.701 473.181 204.744 473.104C205.81 470.726 207.675 468.827 209.993 467.758C215.145 456.59 220.291 445.421 225.433 434.253C228.225 428.222 231.018 422.134 232.414 415.627C232.414 415.49 232.476 415.346 232.497 415.209C233.558 410.165 233.803 404.927 234.508 399.819C234.865 396.893 235.503 394.011 236.413 391.215C237.251 388.73 238.403 386.316 239.422 383.887C240.678 380.89 241.732 377.857 241.781 374.621C241.781 373.591 241.718 372.46 242.207 371.595C242.729 370.851 243.374 370.207 244.112 369.693C245.034 368.85 245.732 367.778 246.143 366.58C246.553 365.381 246.661 364.094 246.458 362.841C250.646 363.064 253.005 367.711 254.687 371.653C256.217 375.508 258.225 379.141 260.662 382.461C262.439 384.833 264.698 386.773 267.28 388.146C267.51 388.261 267.74 388.376 267.978 388.477C273.806 391.129 280.612 390.192 286.929 388.996C292.45 387.951 298.16 386.654 302.599 383.109L303.074 382.72C304.388 381.593 305.561 380.3 306.564 378.873C310.285 373.627 311.932 366.717 312.846 360.139C312.93 359.519 313.014 358.899 313.091 358.28C313.725 353.631 313.901 348.929 313.614 344.244C313.53 343.091 313.412 341.938 313.265 340.792C313.167 340.072 313.063 339.293 312.944 338.544C312.947 338.523 312.947 338.501 312.944 338.479C312.763 337.29 312.567 336.094 312.372 334.877C311.674 330.791 310.976 326.598 308.882 323.081C307.504 320.894 305.765 318.972 303.744 317.404C302.99 316.791 302.216 316.208 301.434 315.646C300.163 314.738 298.858 313.873 297.532 313.059C294.195 310.997 290.692 309.237 287.062 307.799C286.196 307.453 285.316 307.129 284.437 306.819C281.018 305.564 277.339 305.263 273.771 305.947C270.61 306.419 267.415 306.612 264.222 306.524C256.035 306.358 247.812 304.744 239.638 303.699C228.288 302.258 216.094 302.085 206.196 308.022C205.721 308.303 205.261 308.599 204.8 308.908C199.914 312.209 195.977 316.834 192.801 322.001C192.103 323.089 191.496 324.205 190.895 325.337C189.512 327.933 188.26 330.603 187.147 333.335C186.488 334.676 186.132 336.154 186.107 337.658C186.123 337.944 186.16 338.228 186.219 338.508C186.407 339.531 186.784 340.526 186.917 341.563C187.356 345.49 184.125 348.769 182.917 352.508C182.135 354.944 182.219 357.552 181.779 360.117C181.144 363.72 179.434 366.962 177.898 370.204C175.472 375.424 173.396 380.809 171.686 386.323C170.471 390.163 169.431 394.061 168.517 397.996C168.219 399.259 167.937 400.525 167.672 401.793C166.911 405.28 166.29 408.696 165.739 412.133Z" fill="#F3BB02"/>
<path d="M91.3162 305.428V310.472L92.2166 310.458L93.2217 310.443L104.446 310.299L132.101 309.925L139.863 309.824L141.874 309.795L153.524 309.644L169.941 309.42L204.772 308.952L265.214 308.145L287.027 307.857L295.78 307.741L303.835 307.633L308.854 307.561L313.608 307.496L348.851 307.028L358.623 306.898L360.752 306.869L362.134 303.188L372.178 276.448L374.014 271.563L372.618 265.799L366.336 270.122L362.469 270.619L298.803 278.79L286.852 280.325L261.514 283.582L236.693 286.766L226.962 288.013L169.383 295.406L153.293 297.474L139.975 299.181L92.6215 305.263L91.3162 305.428Z" fill="#3F3D56"/>
<path d="M372.618 265.799L360.053 299.664L91.3157 305.428V268.681L372.618 265.799Z" fill="#504F60"/>
<path d="M358.657 303.267L356.563 510.061L346.791 508.62L348.885 303.267H358.657Z" fill="#3F3D56"/>
<path d="M92.2162 310.45L92.8375 343.881C92.8375 350.542 92.8375 348.487 101.27 348.487L104.446 310.299L104.578 308.671L92.8375 307.273L92.4466 307.229L92.2162 310.45Z" fill="#3F3D56"/>
<path d="M130.405 285.974L232.665 288.136L264.425 277.327L179.266 272.284L130.405 285.974Z" fill="white"/>
<path d="M272.43 243.616C273.514 244.045 274.475 244.752 275.222 245.669C275.806 246.664 276.162 247.783 276.262 248.941L277.979 259.511C278.241 260.478 278.195 261.506 277.847 262.444C277.4 263.33 276.102 263.791 275.453 263.056C275.536 265.124 275.362 267.329 274.196 269.015C273.03 270.701 270.587 271.587 268.94 270.413C268.682 270.847 268.335 271.219 267.924 271.501C267.513 271.783 267.047 271.97 266.559 272.048C266.071 272.126 265.572 272.094 265.097 271.953C264.623 271.813 264.183 271.567 263.81 271.234C264.801 271.58 264.871 273.144 264.166 273.936C263.376 274.655 262.37 275.07 261.318 275.111C249.051 276.895 236.546 275.271 225.09 270.406C224.008 269.944 226.856 256.175 227.143 254.763C227.841 251.441 228.19 247.384 230.905 245.151C237.397 239.804 248.928 238.752 256.836 239.386C262.24 239.808 267.524 241.242 272.43 243.616V243.616Z" fill="#FBBEBE"/>
<path opacity="0.1" d="M154.633 245.552C179.881 246.049 205.652 246.474 229.747 238.67C227.446 247.878 227.605 257.557 230.208 266.678L112.159 276.765C107.154 277.19 86.4019 279.611 81.5227 278.394C76.6436 277.176 122.462 261.598 120.612 256.778C115.523 243.498 98.4776 235.716 110.756 235.219C126.252 234.585 139.019 245.249 154.633 245.552Z" fill="black"/>
<path d="M170.956 243.873C196.204 244.37 221.975 244.795 246.07 236.992C243.769 246.199 243.928 255.878 246.531 264.999L128.482 275.087C123.477 275.512 102.725 277.969 97.8457 276.715C92.9666 275.461 94.1113 269.286 92.2616 264.466C87.173 251.186 114.801 234.038 127.079 233.54C142.575 232.906 155.342 243.57 170.956 243.873Z" fill="#464353"/>
<path d="M194.078 248.996C192.994 249.424 192.033 250.131 191.286 251.049C190.703 252.044 190.345 253.163 190.239 254.321L188.522 264.891C188.264 265.858 188.31 266.885 188.655 267.823C189.102 268.71 190.407 269.171 191.049 268.436C190.972 270.504 191.14 272.709 192.306 274.395C193.471 276.081 195.914 276.967 197.569 275.793C197.827 276.227 198.174 276.598 198.585 276.881C198.996 277.163 199.462 277.35 199.95 277.428C200.438 277.506 200.936 277.474 201.411 277.333C201.886 277.193 202.325 276.947 202.699 276.614C201.708 276.96 201.631 278.523 202.336 279.316C203.128 280.035 204.137 280.45 205.191 280.49C217.455 282.275 229.958 280.651 241.411 275.785C242.493 275.324 239.652 261.555 239.359 260.143C238.661 256.821 238.312 252.764 235.597 250.531C229.112 245.184 217.574 244.132 209.665 244.766C204.264 245.189 198.983 246.622 194.078 248.996V248.996Z" fill="#FBBEBE"/>
<path d="M360.905 226.047C363.222 229.131 365.547 232.279 367.041 235.875C369.896 242.734 369.477 250.502 369.002 257.952C368.869 260.114 368.702 262.319 367.606 264.113C366.659 265.468 365.409 266.568 363.962 267.319C357.918 270.864 350.84 271.923 343.929 272.716C333.347 273.926 322.728 274.664 312.072 274.928C285.672 275.591 258.868 273.364 233.153 279.539C236.336 274.546 236.329 267.939 234.549 262.247C232.77 256.554 229.342 251.597 225.985 246.719C237.753 242.871 250.374 248.881 262.701 248.283C275.356 247.67 287.069 240.119 299.738 240.126C302.46 240.126 305.231 240.479 307.876 239.802C310.522 239.125 313.084 237.064 313.328 234.261C309.95 235.046 306.746 232.063 305.35 228.792C303.954 225.521 303.702 221.824 302.348 218.532C298.977 210.339 289.868 206.542 284.2 199.798C283.306 198.731 282.462 197.47 282.489 196.058C282.623 194.862 283.11 193.737 283.886 192.837C288.597 186.352 295.696 182.75 301.594 177.706C303.646 175.948 307.786 169.319 310.089 168.706C314.361 167.575 317.984 173.945 320.762 177.05C334.787 192.782 348.169 209.114 360.905 226.047Z" fill="#464353"/>
<path opacity="0.07" d="M220.548 224.217C218.778 225.571 217.206 227.18 215.878 228.994C215.216 229.905 214.745 230.948 214.494 232.057C214.243 233.165 214.217 234.316 214.419 235.435C214.636 233.347 214.185 231.243 213.135 229.444C212.085 227.644 210.494 226.249 208.605 225.47L220.548 224.217Z" fill="black"/>
<g opacity="0.1">
<path opacity="0.1" d="M181.836 35.2631C182.657 33.011 183.603 30.8097 184.67 28.6702C185.359 28.807 186.04 28.9874 186.708 29.2106C185.51 31.2639 184.431 33.3884 183.476 35.5729C182.938 35.4288 182.394 35.3279 181.836 35.2631Z" fill="black"/>
<path opacity="0.1" d="M141.336 63.6738C141.148 63.8323 140.966 64.0125 140.785 64.1782C140.798 64.1315 140.814 64.0857 140.834 64.0413C140.992 63.9212 141.16 63.7987 141.336 63.6738Z" fill="black"/>
<path opacity="0.1" d="M206.225 66.8442C205.862 66.5488 205.526 66.239 205.136 65.9508L205.247 62.5282L212.702 62.449C213.91 63.5946 215.194 65.2375 214.482 66.7722L206.225 66.8442Z" fill="black"/>
<path opacity="0.1" d="M124.724 124.458C126.05 127.009 127.962 129.401 130.58 130.431C132.597 131.224 134.817 131.152 136.974 131.051C144.331 130.741 151.814 130.403 158.766 127.888C162.019 126.706 165.132 125.056 168.538 124.328C172.524 123.478 176.649 123.961 180.691 124.451L198.504 126.613C203.76 127.247 209.617 127.722 213.812 124.393C216.213 122.491 217.763 119.53 220.394 118.002C221.504 117.354 222.823 116.936 223.542 115.841C223.996 115.027 224.237 114.106 224.24 113.167C224.296 112.411 224.331 111.654 224.359 110.898C224.435 113.096 224.395 115.297 224.24 117.491C224.237 118.429 223.996 119.351 223.542 120.164C222.844 121.252 221.504 121.67 220.394 122.325C217.763 123.853 216.206 126.814 213.812 128.717C209.624 132.045 203.76 131.599 198.504 130.936L180.691 128.774C176.649 128.284 172.524 127.801 168.538 128.652C165.16 129.372 162.047 131.029 158.766 132.211C151.786 134.726 144.331 135.093 136.974 135.374C134.817 135.468 132.597 135.547 130.58 134.755C127.962 133.724 126.05 131.332 124.724 128.781C122.155 123.846 121.436 118.247 121.708 112.605C121.858 116.737 122.887 120.784 124.724 124.458V124.458Z" fill="black"/>
</g>
<path opacity="0.1" d="M182.038 39.896L172.266 49.263C172.266 49.263 180.642 45.6603 182.038 39.896Z" fill="black"/>
</g>
<line x1="82" y1="396.5" x2="384.002" y2="396.5" stroke="#F3BB02" stroke-width="3"/>
<path d="M122.579 428.648C122.579 429.992 122.255 431.252 121.607 432.428C120.983 433.604 119.987 434.552 118.619 435.272C117.275 435.992 115.571 436.352 113.507 436.352H109.295V446H104.255V420.872H113.507C115.451 420.872 117.107 421.208 118.475 421.88C119.843 422.552 120.863 423.476 121.535 424.652C122.231 425.828 122.579 427.16 122.579 428.648ZM113.291 432.284C114.683 432.284 115.715 431.972 116.387 431.348C117.059 430.7 117.395 429.8 117.395 428.648C117.395 426.2 116.027 424.976 113.291 424.976H109.295V432.284H113.291ZM139.118 446L133.574 436.208H131.198V446H126.158V420.872H135.59C137.534 420.872 139.19 421.22 140.558 421.916C141.926 422.588 142.946 423.512 143.618 424.688C144.314 425.84 144.662 427.136 144.662 428.576C144.662 430.232 144.182 431.732 143.222 433.076C142.262 434.396 140.834 435.308 138.938 435.812L144.95 446H139.118ZM131.198 432.428H135.41C136.778 432.428 137.798 432.104 138.47 431.456C139.142 430.784 139.478 429.86 139.478 428.684C139.478 427.532 139.142 426.644 138.47 426.02C137.798 425.372 136.778 425.048 135.41 425.048H131.198V432.428ZM154.26 424.94V431.24H162.72V435.236H154.26V441.896H163.8V446H149.22V420.836H163.8V424.94H154.26ZM183.896 420.872V424.94H173.42V431.384H181.448V435.38H173.42V446H168.38V420.872H183.896ZM192.51 420.872V446H187.47V420.872H192.51ZM218.982 446H213.942L202.53 428.756V446H197.49V420.836H202.53L213.942 438.116V420.836H218.982V446ZM239.371 441.212H229.363L227.707 446H222.415L231.451 420.836H237.319L246.355 446H241.027L239.371 441.212ZM238.003 437.18L234.367 426.668L230.731 437.18H238.003ZM254.772 442.004H263.052V446H249.732V420.872H254.772V442.004ZM294.814 420.872L286.318 437.252V446H281.278V437.252L272.746 420.872H278.434L283.834 432.356L289.198 420.872H294.814ZM302.76 424.94V431.24H311.22V435.236H302.76V441.896H312.3V446H297.72V420.836H312.3V424.94H302.76ZM332.288 441.212H322.28L320.624 446H315.332L324.368 420.836H330.236L339.272 446H333.944L332.288 441.212ZM330.92 437.18L327.284 426.668L323.648 437.18H330.92ZM355.61 446L350.066 436.208H347.69V446H342.65V420.872H352.082C354.026 420.872 355.682 421.22 357.05 421.916C358.418 422.588 359.438 423.512 360.11 424.688C360.806 425.84 361.154 427.136 361.154 428.576C361.154 430.232 360.674 431.732 359.714 433.076C358.754 434.396 357.326 435.308 355.43 435.812L361.442 446H355.61ZM347.69 432.428H351.902C353.27 432.428 354.29 432.104 354.962 431.456C355.634 430.784 355.97 429.86 355.97 428.684C355.97 427.532 355.634 426.644 354.962 426.02C354.29 425.372 353.27 425.048 351.902 425.048H347.69V432.428Z" fill="#F3BB02"/>
<path d="M43.8142 480.696C46.2463 480.696 48.3476 481.155 50.1183 482.072C51.9103 482.968 53.2756 484.259 54.2143 485.944C55.1743 487.629 55.6543 489.613 55.6543 491.896C55.6543 494.179 55.1743 496.163 54.2143 497.848C53.2756 499.512 51.9103 500.792 50.1183 501.688C48.3476 502.563 46.2463 503 43.8142 503H36.8703V480.696H43.8142ZM43.8142 500.6C46.6943 500.6 48.8916 499.843 50.4062 498.328C51.9209 496.792 52.6783 494.648 52.6783 491.896C52.6783 489.123 51.9103 486.957 50.3743 485.4C48.8596 483.843 46.6729 483.064 43.8142 483.064H39.7823V500.6H43.8142ZM75.4953 493.56C75.4953 494.115 75.4633 494.701 75.3993 495.32H61.3833C61.4899 497.048 62.0766 498.403 63.1433 499.384C64.2313 500.344 65.5433 500.824 67.0793 500.824C68.3379 500.824 69.3833 500.536 70.2153 499.96C71.0686 499.363 71.6659 498.573 72.0073 497.592H75.1433C74.6739 499.277 73.7353 500.653 72.3273 501.72C70.9193 502.765 69.1699 503.288 67.0793 503.288C65.4153 503.288 63.9219 502.915 62.5993 502.168C61.2979 501.421 60.2739 500.365 59.5273 499C58.7806 497.613 58.4073 496.013 58.4073 494.2C58.4073 492.387 58.7699 490.797 59.4953 489.432C60.2206 488.067 61.2339 487.021 62.5353 486.296C63.8579 485.549 65.3726 485.176 67.0793 485.176C68.7433 485.176 70.2153 485.539 71.4953 486.264C72.7753 486.989 73.7566 487.992 74.4393 489.272C75.1433 490.531 75.4953 491.96 75.4953 493.56ZM72.4873 492.952C72.4873 491.843 72.2419 490.893 71.7513 490.104C71.2606 489.293 70.5886 488.685 69.7353 488.28C68.9033 487.853 67.9753 487.64 66.9513 487.64C65.4793 487.64 64.2206 488.109 63.1753 489.048C62.1513 489.987 61.5646 491.288 61.4153 492.952H72.4873ZM82.251 488.696C82.827 487.693 83.6803 486.861 84.811 486.2C85.963 485.517 87.2963 485.176 88.811 485.176C90.3683 485.176 91.7763 485.549 93.035 486.296C94.315 487.043 95.3177 488.099 96.043 489.464C96.7683 490.808 97.131 492.376 97.131 494.168C97.131 495.939 96.7683 497.517 96.043 498.904C95.3177 500.291 94.315 501.368 93.035 502.136C91.7763 502.904 90.3683 503.288 88.811 503.288C87.3177 503.288 85.995 502.957 84.843 502.296C83.7123 501.613 82.8483 500.771 82.251 499.768V511.32H79.339V485.464H82.251V488.696ZM94.155 494.168C94.155 492.845 93.8883 491.693 93.355 490.712C92.8217 489.731 92.0963 488.984 91.179 488.472C90.283 487.96 89.291 487.704 88.203 487.704C87.1363 487.704 86.1443 487.971 85.227 488.504C84.331 489.016 83.6057 489.773 83.051 490.776C82.5177 491.757 82.251 492.899 82.251 494.2C82.251 495.523 82.5177 496.685 83.051 497.688C83.6057 498.669 84.331 499.427 85.227 499.96C86.1443 500.472 87.1363 500.728 88.203 500.728C89.291 500.728 90.283 500.472 91.179 499.96C92.0963 499.427 92.8217 498.669 93.355 497.688C93.8883 496.685 94.155 495.512 94.155 494.168ZM99.876 494.168C99.876 492.376 100.239 490.808 100.964 489.464C101.689 488.099 102.681 487.043 103.94 486.296C105.22 485.549 106.639 485.176 108.196 485.176C109.732 485.176 111.065 485.507 112.196 486.168C113.327 486.829 114.169 487.661 114.724 488.664V485.464H117.668V503H114.724V499.736C114.148 500.76 113.284 501.613 112.132 502.296C111.001 502.957 109.679 503.288 108.164 503.288C106.607 503.288 105.199 502.904 103.94 502.136C102.681 501.368 101.689 500.291 100.964 498.904C100.239 497.517 99.876 495.939 99.876 494.168ZM114.724 494.2C114.724 492.877 114.457 491.725 113.924 490.744C113.391 489.763 112.665 489.016 111.748 488.504C110.852 487.971 109.86 487.704 108.772 487.704C107.684 487.704 106.692 487.96 105.796 488.472C104.9 488.984 104.185 489.731 103.652 490.712C103.119 491.693 102.852 492.845 102.852 494.168C102.852 495.512 103.119 496.685 103.652 497.688C104.185 498.669 104.9 499.427 105.796 499.96C106.692 500.472 107.684 500.728 108.772 500.728C109.86 500.728 110.852 500.472 111.748 499.96C112.665 499.427 113.391 498.669 113.924 497.688C114.457 496.685 114.724 495.523 114.724 494.2ZM125.501 488.312C126.013 487.309 126.738 486.531 127.677 485.976C128.637 485.421 129.8 485.144 131.165 485.144V488.152H130.397C127.133 488.152 125.501 489.923 125.501 493.464V503H122.589V485.464H125.501V488.312ZM138.079 487.864V498.2C138.079 499.053 138.26 499.661 138.623 500.024C138.985 500.365 139.615 500.536 140.51 500.536H142.655V503H140.031C138.409 503 137.193 502.627 136.383 501.88C135.572 501.133 135.167 499.907 135.167 498.2V487.864H132.895V485.464H135.167V481.048H138.079V485.464H142.655V487.864H138.079ZM167.271 485.144C168.636 485.144 169.852 485.432 170.919 486.008C171.985 486.563 172.828 487.405 173.447 488.536C174.065 489.667 174.375 491.043 174.375 492.664V503H171.495V493.08C171.495 491.331 171.057 489.997 170.183 489.08C169.329 488.141 168.167 487.672 166.695 487.672C165.18 487.672 163.975 488.163 163.079 489.144C162.183 490.104 161.735 491.501 161.735 493.336V503H158.855V493.08C158.855 491.331 158.417 489.997 157.543 489.08C156.689 488.141 155.527 487.672 154.055 487.672C152.54 487.672 151.335 488.163 150.439 489.144C149.543 490.104 149.095 491.501 149.095 493.336V503H146.183V485.464H149.095V487.992C149.671 487.075 150.439 486.371 151.399 485.88C152.38 485.389 153.457 485.144 154.631 485.144C156.103 485.144 157.404 485.475 158.535 486.136C159.665 486.797 160.508 487.768 161.063 489.048C161.553 487.811 162.364 486.851 163.495 486.168C164.625 485.485 165.884 485.144 167.271 485.144ZM195.152 493.56C195.152 494.115 195.12 494.701 195.056 495.32H181.04C181.146 497.048 181.733 498.403 182.8 499.384C183.888 500.344 185.2 500.824 186.736 500.824C187.994 500.824 189.04 500.536 189.872 499.96C190.725 499.363 191.322 498.573 191.664 497.592H194.8C194.33 499.277 193.392 500.653 191.984 501.72C190.576 502.765 188.826 503.288 186.736 503.288C185.072 503.288 183.578 502.915 182.256 502.168C180.954 501.421 179.93 500.365 179.184 499C178.437 497.613 178.064 496.013 178.064 494.2C178.064 492.387 178.426 490.797 179.152 489.432C179.877 488.067 180.89 487.021 182.192 486.296C183.514 485.549 185.029 485.176 186.736 485.176C188.4 485.176 189.872 485.539 191.152 486.264C192.432 486.989 193.413 487.992 194.096 489.272C194.8 490.531 195.152 491.96 195.152 493.56ZM192.144 492.952C192.144 491.843 191.898 490.893 191.408 490.104C190.917 489.293 190.245 488.685 189.392 488.28C188.56 487.853 187.632 487.64 186.608 487.64C185.136 487.64 183.877 488.109 182.832 489.048C181.808 489.987 181.221 491.288 181.072 492.952H192.144ZM207.539 485.144C209.673 485.144 211.401 485.795 212.723 487.096C214.046 488.376 214.707 490.232 214.707 492.664V503H211.827V493.08C211.827 491.331 211.39 489.997 210.515 489.08C209.641 488.141 208.446 487.672 206.931 487.672C205.395 487.672 204.169 488.152 203.251 489.112C202.355 490.072 201.907 491.469 201.907 493.304V503H198.995V485.464H201.907V487.96C202.483 487.064 203.262 486.371 204.243 485.88C205.246 485.389 206.345 485.144 207.539 485.144ZM223.016 487.864V498.2C223.016 499.053 223.197 499.661 223.56 500.024C223.923 500.365 224.552 500.536 225.448 500.536H227.592V503H224.968C223.347 503 222.131 502.627 221.32 501.88C220.509 501.133 220.104 499.907 220.104 498.2V487.864H217.832V485.464H220.104V481.048H223.016V485.464H227.592V487.864H223.016ZM230.032 494.168C230.032 492.376 230.395 490.808 231.12 489.464C231.846 488.099 232.838 487.043 234.096 486.296C235.376 485.549 236.795 485.176 238.352 485.176C239.888 485.176 241.222 485.507 242.352 486.168C243.483 486.829 244.326 487.661 244.88 488.664V485.464H247.824V503H244.88V499.736C244.304 500.76 243.44 501.613 242.288 502.296C241.158 502.957 239.835 503.288 238.32 503.288C236.763 503.288 235.355 502.904 234.096 502.136C232.838 501.368 231.846 500.291 231.12 498.904C230.395 497.517 230.032 495.939 230.032 494.168ZM244.88 494.2C244.88 492.877 244.614 491.725 244.08 490.744C243.547 489.763 242.822 489.016 241.904 488.504C241.008 487.971 240.016 487.704 238.928 487.704C237.84 487.704 236.848 487.96 235.952 488.472C235.056 488.984 234.342 489.731 233.808 490.712C233.275 491.693 233.008 492.845 233.008 494.168C233.008 495.512 233.275 496.685 233.808 497.688C234.342 498.669 235.056 499.427 235.952 499.96C236.848 500.472 237.84 500.728 238.928 500.728C240.016 500.728 241.008 500.472 241.904 499.96C242.822 499.427 243.547 498.669 244.08 497.688C244.614 496.685 244.88 495.523 244.88 494.2ZM255.657 479.32V503H252.745V479.32H255.657ZM280.896 503L275.584 493.88H272.064V503H269.152V480.696H276.352C278.037 480.696 279.456 480.984 280.608 481.56C281.781 482.136 282.656 482.915 283.232 483.896C283.808 484.877 284.096 485.997 284.096 487.256C284.096 488.792 283.648 490.147 282.752 491.32C281.877 492.493 280.554 493.272 278.784 493.656L284.384 503H280.896ZM272.064 491.544H276.352C277.93 491.544 279.114 491.16 279.904 490.392C280.693 489.603 281.088 488.557 281.088 487.256C281.088 485.933 280.693 484.909 279.904 484.184C279.136 483.459 277.952 483.096 276.352 483.096H272.064V491.544ZM304.62 493.56C304.62 494.115 304.588 494.701 304.524 495.32H290.508C290.615 497.048 291.202 498.403 292.268 499.384C293.356 500.344 294.668 500.824 296.204 500.824C297.463 500.824 298.508 500.536 299.34 499.96C300.194 499.363 300.791 498.573 301.132 497.592H304.268C303.799 499.277 302.86 500.653 301.452 501.72C300.044 502.765 298.295 503.288 296.204 503.288C294.54 503.288 293.047 502.915 291.724 502.168C290.423 501.421 289.399 500.365 288.652 499C287.906 497.613 287.532 496.013 287.532 494.2C287.532 492.387 287.895 490.797 288.62 489.432C289.346 488.067 290.359 487.021 291.66 486.296C292.983 485.549 294.498 485.176 296.204 485.176C297.868 485.176 299.34 485.539 300.62 486.264C301.9 486.989 302.882 487.992 303.564 489.272C304.268 490.531 304.62 491.96 304.62 493.56ZM301.612 492.952C301.612 491.843 301.367 490.893 300.876 490.104C300.386 489.293 299.714 488.685 298.86 488.28C298.028 487.853 297.1 487.64 296.076 487.64C294.604 487.64 293.346 488.109 292.3 489.048C291.276 489.987 290.69 491.288 290.54 492.952H301.612ZM314.672 503.288C313.328 503.288 312.123 503.064 311.056 502.616C309.989 502.147 309.147 501.507 308.528 500.696C307.909 499.864 307.568 498.915 307.504 497.848H310.512C310.597 498.723 311.003 499.437 311.728 499.992C312.475 500.547 313.445 500.824 314.64 500.824C315.749 500.824 316.624 500.579 317.264 500.088C317.904 499.597 318.224 498.979 318.224 498.232C318.224 497.464 317.883 496.899 317.2 496.536C316.517 496.152 315.461 495.779 314.032 495.416C312.731 495.075 311.664 494.733 310.832 494.392C310.021 494.029 309.317 493.507 308.72 492.824C308.144 492.12 307.856 491.203 307.856 490.072C307.856 489.176 308.123 488.355 308.656 487.608C309.189 486.861 309.947 486.275 310.928 485.848C311.909 485.4 313.029 485.176 314.288 485.176C316.229 485.176 317.797 485.667 318.992 486.648C320.187 487.629 320.827 488.973 320.912 490.68H318C317.936 489.763 317.563 489.027 316.88 488.472C316.219 487.917 315.323 487.64 314.192 487.64C313.147 487.64 312.315 487.864 311.696 488.312C311.077 488.76 310.768 489.347 310.768 490.072C310.768 490.648 310.949 491.128 311.312 491.512C311.696 491.875 312.165 492.173 312.72 492.408C313.296 492.621 314.085 492.867 315.088 493.144C316.347 493.485 317.371 493.827 318.16 494.168C318.949 494.488 319.621 494.979 320.176 495.64C320.752 496.301 321.051 497.165 321.072 498.232C321.072 499.192 320.805 500.056 320.272 500.824C319.739 501.592 318.981 502.2 318 502.648C317.04 503.075 315.931 503.288 314.672 503.288ZM332.831 503.288C331.188 503.288 329.695 502.915 328.351 502.168C327.028 501.421 325.983 500.365 325.215 499C324.468 497.613 324.095 496.013 324.095 494.2C324.095 492.408 324.479 490.829 325.247 489.464C326.036 488.077 327.103 487.021 328.447 486.296C329.791 485.549 331.295 485.176 332.959 485.176C334.623 485.176 336.127 485.549 337.471 486.296C338.815 487.021 339.871 488.067 340.639 489.432C341.428 490.797 341.823 492.387 341.823 494.2C341.823 496.013 341.417 497.613 340.607 499C339.817 500.365 338.74 501.421 337.375 502.168C336.009 502.915 334.495 503.288 332.831 503.288ZM332.831 500.728C333.876 500.728 334.857 500.483 335.775 499.992C336.692 499.501 337.428 498.765 337.983 497.784C338.559 496.803 338.847 495.608 338.847 494.2C338.847 492.792 338.569 491.597 338.015 490.616C337.46 489.635 336.735 488.909 335.839 488.44C334.943 487.949 333.972 487.704 332.927 487.704C331.86 487.704 330.879 487.949 329.983 488.44C329.108 488.909 328.404 489.635 327.871 490.616C327.337 491.597 327.071 492.792 327.071 494.2C327.071 495.629 327.327 496.835 327.839 497.816C328.372 498.797 329.076 499.533 329.951 500.024C330.825 500.493 331.785 500.728 332.831 500.728ZM361.204 485.464V503H358.292V500.408C357.737 501.304 356.958 502.008 355.956 502.52C354.974 503.011 353.886 503.256 352.692 503.256C351.326 503.256 350.1 502.979 349.012 502.424C347.924 501.848 347.06 500.995 346.42 499.864C345.801 498.733 345.492 497.357 345.492 495.736V485.464H348.372V495.352C348.372 497.08 348.809 498.413 349.684 499.352C350.558 500.269 351.753 500.728 353.268 500.728C354.825 500.728 356.052 500.248 356.948 499.288C357.844 498.328 358.292 496.931 358.292 495.096V485.464H361.204ZM369.032 488.312C369.544 487.309 370.27 486.531 371.208 485.976C372.168 485.421 373.331 485.144 374.696 485.144V488.152H373.928C370.664 488.152 369.032 489.923 369.032 493.464V503H366.12V485.464H369.032V488.312ZM376.97 494.2C376.97 492.387 377.332 490.808 378.058 489.464C378.783 488.099 379.786 487.043 381.066 486.296C382.367 485.549 383.85 485.176 385.514 485.176C387.668 485.176 389.439 485.699 390.826 486.744C392.234 487.789 393.162 489.24 393.61 491.096H390.474C390.175 490.029 389.588 489.187 388.714 488.568C387.86 487.949 386.794 487.64 385.514 487.64C383.85 487.64 382.506 488.216 381.482 489.368C380.458 490.499 379.946 492.109 379.946 494.2C379.946 496.312 380.458 497.944 381.482 499.096C382.506 500.248 383.85 500.824 385.514 500.824C386.794 500.824 387.86 500.525 388.714 499.928C389.567 499.331 390.154 498.477 390.474 497.368H393.61C393.14 499.16 392.202 500.6 390.794 501.688C389.386 502.755 387.626 503.288 385.514 503.288C383.85 503.288 382.367 502.915 381.066 502.168C379.786 501.421 378.783 500.365 378.058 499C377.332 497.635 376.97 496.035 376.97 494.2ZM413.495 493.56C413.495 494.115 413.463 494.701 413.399 495.32H399.383C399.49 497.048 400.077 498.403 401.143 499.384C402.231 500.344 403.543 500.824 405.079 500.824C406.338 500.824 407.383 500.536 408.215 499.96C409.069 499.363 409.666 498.573 410.007 497.592H413.143C412.674 499.277 411.735 500.653 410.327 501.72C408.919 502.765 407.17 503.288 405.079 503.288C403.415 503.288 401.922 502.915 400.599 502.168C399.298 501.421 398.274 500.365 397.527 499C396.781 497.613 396.407 496.013 396.407 494.2C396.407 492.387 396.77 490.797 397.495 489.432C398.221 488.067 399.234 487.021 400.535 486.296C401.858 485.549 403.373 485.176 405.079 485.176C406.743 485.176 408.215 485.539 409.495 486.264C410.775 486.989 411.757 487.992 412.439 489.272C413.143 490.531 413.495 491.96 413.495 493.56ZM410.487 492.952C410.487 491.843 410.242 490.893 409.751 490.104C409.261 489.293 408.589 488.685 407.735 488.28C406.903 487.853 405.975 487.64 404.951 487.64C403.479 487.64 402.221 488.109 401.175 489.048C400.151 489.987 399.565 491.288 399.415 492.952H410.487ZM423.547 503.288C422.203 503.288 420.998 503.064 419.931 502.616C418.864 502.147 418.022 501.507 417.403 500.696C416.784 499.864 416.443 498.915 416.379 497.848H419.387C419.472 498.723 419.878 499.437 420.603 499.992C421.35 500.547 422.32 500.824 423.515 500.824C424.624 500.824 425.499 500.579 426.139 500.088C426.779 499.597 427.099 498.979 427.099 498.232C427.099 497.464 426.758 496.899 426.075 496.536C425.392 496.152 424.336 495.779 422.907 495.416C421.606 495.075 420.539 494.733 419.707 494.392C418.896 494.029 418.192 493.507 417.595 492.824C417.019 492.12 416.731 491.203 416.731 490.072C416.731 489.176 416.998 488.355 417.531 487.608C418.064 486.861 418.822 486.275 419.803 485.848C420.784 485.4 421.904 485.176 423.163 485.176C425.104 485.176 426.672 485.667 427.867 486.648C429.062 487.629 429.702 488.973 429.787 490.68H426.875C426.811 489.763 426.438 489.027 425.755 488.472C425.094 487.917 424.198 487.64 423.067 487.64C422.022 487.64 421.19 487.864 420.571 488.312C419.952 488.76 419.643 489.347 419.643 490.072C419.643 490.648 419.824 491.128 420.187 491.512C420.571 491.875 421.04 492.173 421.595 492.408C422.171 492.621 422.96 492.867 423.963 493.144C425.222 493.485 426.246 493.827 427.035 494.168C427.824 494.488 428.496 494.979 429.051 495.64C429.627 496.301 429.926 497.165 429.947 498.232C429.947 499.192 429.68 500.056 429.147 500.824C428.614 501.592 427.856 502.2 426.875 502.648C425.915 503.075 424.806 503.288 423.547 503.288Z" fill="#F3BB02"/>
<line x1="230.5" y1="583.009" x2="230.5" y2="524" stroke="#F3BB02" stroke-width="2"/>
<path d="M78.0829 559.224C76.6109 559.224 75.2882 558.968 74.1149 558.456C72.9629 557.923 72.0562 557.197 71.3949 556.28C70.7335 555.341 70.3922 554.264 70.3709 553.048H73.4749C73.5815 554.093 74.0082 554.979 74.7549 555.704C75.5229 556.408 76.6322 556.76 78.0829 556.76C79.4695 556.76 80.5575 556.419 81.3469 555.736C82.1575 555.032 82.5629 554.136 82.5629 553.048C82.5629 552.195 82.3282 551.501 81.8589 550.968C81.3895 550.435 80.8029 550.029 80.0989 549.752C79.3949 549.475 78.4455 549.176 77.2509 548.856C75.7789 548.472 74.5949 548.088 73.6989 547.704C72.8242 547.32 72.0669 546.723 71.4269 545.912C70.8082 545.08 70.4989 543.971 70.4989 542.584C70.4989 541.368 70.8082 540.291 71.4269 539.352C72.0455 538.413 72.9095 537.688 74.0189 537.176C75.1495 536.664 76.4402 536.408 77.8909 536.408C79.9815 536.408 81.6882 536.931 83.0109 537.976C84.3549 539.021 85.1122 540.408 85.2829 542.136H82.0829C81.9762 541.283 81.5282 540.536 80.7389 539.896C79.9495 539.235 78.9042 538.904 77.6029 538.904C76.3869 538.904 75.3949 539.224 74.6269 539.864C73.8589 540.483 73.4749 541.357 73.4749 542.488C73.4749 543.299 73.6989 543.96 74.1469 544.472C74.6162 544.984 75.1815 545.379 75.8429 545.656C76.5255 545.912 77.4749 546.211 78.6909 546.552C80.1629 546.957 81.3469 547.363 82.2429 547.768C83.1389 548.152 83.9069 548.76 84.5469 549.592C85.1869 550.403 85.5069 551.512 85.5069 552.92C85.5069 554.008 85.2189 555.032 84.6429 555.992C84.0669 556.952 83.2135 557.731 82.0829 558.328C80.9522 558.925 79.6189 559.224 78.0829 559.224ZM92.7041 539.064V546.52H100.832V548.92H92.7041V556.6H101.792V559H89.7921V536.664H101.792V539.064H92.7041ZM128.822 536.856V559H125.91V542.488L118.55 559H116.502L109.11 542.456V559H106.198V536.856H109.334L117.526 555.16L125.718 536.856H128.822ZM160.724 536.696L152.308 559H148.948L140.532 536.696H143.636L150.644 555.928L157.652 536.696H160.724Z" fill="#F3BB02"/>
<path d="M307.145 559.224C305.673 559.224 304.351 558.968 303.177 558.456C302.025 557.923 301.119 557.197 300.457 556.28C299.796 555.341 299.455 554.264 299.433 553.048H302.537C302.644 554.093 303.071 554.979 303.817 555.704C304.585 556.408 305.695 556.76 307.145 556.76C308.532 556.76 309.62 556.419 310.409 555.736C311.22 555.032 311.625 554.136 311.625 553.048C311.625 552.195 311.391 551.501 310.921 550.968C310.452 550.435 309.865 550.029 309.161 549.752C308.457 549.475 307.508 549.176 306.313 548.856C304.841 548.472 303.657 548.088 302.761 547.704C301.887 547.32 301.129 546.723 300.489 545.912C299.871 545.08 299.561 543.971 299.561 542.584C299.561 541.368 299.871 540.291 300.489 539.352C301.108 538.413 301.972 537.688 303.081 537.176C304.212 536.664 305.503 536.408 306.953 536.408C309.044 536.408 310.751 536.931 312.073 537.976C313.417 539.021 314.175 540.408 314.345 542.136H311.145C311.039 541.283 310.591 540.536 309.801 539.896C309.012 539.235 307.967 538.904 306.665 538.904C305.449 538.904 304.457 539.224 303.689 539.864C302.921 540.483 302.537 541.357 302.537 542.488C302.537 543.299 302.761 543.96 303.209 544.472C303.679 544.984 304.244 545.379 304.905 545.656C305.588 545.912 306.537 546.211 307.753 546.552C309.225 546.957 310.409 547.363 311.305 547.768C312.201 548.152 312.969 548.76 313.609 549.592C314.249 550.403 314.569 551.512 314.569 552.92C314.569 554.008 314.281 555.032 313.705 555.992C313.129 556.952 312.276 557.731 311.145 558.328C310.015 558.925 308.681 559.224 307.145 559.224ZM321.767 539.064V546.52H329.895V548.92H321.767V556.6H330.855V559H318.855V536.664H330.855V539.064H321.767ZM357.885 536.856V559H354.973V542.488L347.613 559H345.565L338.173 542.456V559H335.261V536.856H338.397L346.589 555.16L354.781 536.856H357.885ZM389.787 536.696L381.371 559H378.011L369.595 536.696H372.699L379.707 555.928L386.715 536.696H389.787ZM395.892 536.696V559H392.98V536.696H395.892Z" fill="#F3BB02"/>
</g>
<defs>
<clipPath id="clip0">
<rect width="455" height="590.032" rx="25" fill="white"/>
</clipPath>
<clipPath id="clip1">
<rect width="282" height="320.639" fill="white" transform="matrix(-1 0 0 1 374 28)"/>
</clipPath>
</defs>
</svg>
