<svg width="465" height="603" viewBox="0 0 465 603" fill="none" xmlns="http://www.w3.org/2000/svg">
<g clip-path="url(#clip0)">
<rect width="465" height="603" rx="25" fill="#00296B"/>
<g clip-path="url(#clip1)">
<path d="M267.908 100.02C267.908 100.02 270.645 131.483 277.49 132.851C284.335 134.219 262.432 188.937 262.432 188.937H229.578L203.568 182.097L215.888 152.002C215.888 152.002 232.315 130.115 219.995 112.332C207.675 94.5484 267.908 100.02 267.908 100.02Z" fill="#E6A7A7"/>
<path opacity="0.1" d="M267.908 100.02C267.908 100.02 270.645 131.483 277.49 132.851C284.335 134.219 262.432 188.937 262.432 188.937H229.578L203.568 182.097L215.888 152.002C215.888 152.002 232.315 130.115 219.995 112.332C207.675 94.5484 267.908 100.02 267.908 100.02Z" fill="white"/>
<path d="M332.668 338.573C332.668 338.573 368.26 406.97 339.513 420.65C310.765 434.329 303.921 432.961 303.921 437.065C303.921 441.169 309.396 439.801 306.659 446.641C303.921 453.481 312.134 480.84 303.921 497.255C295.707 513.671 298.445 525.982 298.445 525.982C298.445 525.982 298.445 527.35 295.707 532.822C292.969 538.294 291.6 542.398 292.969 545.133C294.338 547.869 302.552 565.653 294.338 569.757C286.125 573.86 243.688 576.596 239.581 569.757C235.474 562.917 243.688 558.813 239.581 554.709C235.474 550.605 232.736 549.237 235.474 546.501C238.212 543.766 240.95 509.567 240.95 509.567C240.95 509.567 234.105 469.896 236.843 464.424C239.581 458.952 243.688 453.481 240.95 449.377C238.212 445.273 235.474 446.641 234.105 441.169C232.736 435.697 229.998 423.386 229.998 423.386L214.94 422.018L179.348 428.858C179.348 428.858 139.649 472.632 95.843 486.312C95.843 486.312 83.5226 498.623 79.4158 498.623C75.309 498.623 75.309 498.623 76.6779 501.359C78.0468 504.095 82.1536 504.095 79.4158 506.831C76.6779 509.567 72.5711 505.463 75.309 509.567C78.0468 513.671 80.7847 513.671 78.0468 516.406C75.309 519.142 79.4158 534.19 79.4158 535.558C79.4158 536.926 91.7361 665.513 87.6294 668.249C83.5226 670.985 26.0274 679.193 21.9206 668.249C17.8138 657.306 24.6585 643.626 24.6585 643.626C24.6585 643.626 4.12451 479.472 9.60022 468.528C15.076 457.585 34.241 408.338 136.911 376.875C136.911 376.875 165.658 371.403 165.658 367.3C165.658 363.196 168.396 337.205 173.872 335.837C179.348 334.469 210.833 333.101 210.833 333.101L250.532 345.412L305.29 335.837L332.668 338.573Z" fill="#2F2E41"/>
<path d="M235.053 128.747C211.616 128.747 192.616 109.761 192.616 86.3409C192.616 62.9204 211.616 43.9343 235.053 43.9343C258.491 43.9343 277.49 62.9204 277.49 86.3409C277.49 109.761 258.491 128.747 235.053 128.747Z" fill="#FFB9B9"/>
<path d="M239.16 182.097L255.587 164.314L273.796 128.747C273.796 128.747 287.073 124.643 289.81 131.483C292.548 138.323 341.83 160.21 341.83 160.21C341.83 160.21 329.509 275.118 334.985 286.062C340.461 297.006 350.043 340.78 341.83 344.884C333.616 348.988 295.286 344.884 282.966 350.356C270.645 355.827 235.053 355.827 225.471 348.988C215.888 342.148 213.15 336.676 203.568 340.78C195.41 344.274 176.339 224.831 170.848 189.237C170.385 186.247 170.77 183.188 171.957 180.406C173.144 177.623 175.088 175.228 177.567 173.492C189.85 164.882 211.972 150.046 215.888 152.003C221.364 154.738 239.16 182.097 239.16 182.097Z" fill="#575A89"/>
<path d="M180.296 176.626C177.081 177.429 174.19 179.196 172.009 181.689C169.829 184.182 168.464 187.282 168.098 190.573L157.024 290.166C157.024 290.166 184.403 348.988 198.092 309.317C211.781 269.646 180.296 176.626 180.296 176.626Z" fill="#575A89"/>
<path d="M183.034 299.741L152.918 291.534C152.918 291.534 147.442 329.836 141.966 329.836C136.49 329.836 161.131 351.724 173.452 348.988C185.772 346.252 203.568 336.676 204.937 329.836C206.306 322.997 192.617 294.27 192.617 294.27L183.034 299.741Z" fill="#575A89"/>
<path d="M267.088 104.634C264.203 98.2762 264.704 90.8596 262.318 84.2977C261.041 80.7841 258.968 77.6132 256.261 75.0326C253.554 72.4521 250.287 70.5318 246.715 69.4219C243.142 68.3119 239.362 68.0423 235.668 68.6341C231.974 69.2259 228.467 70.663 225.421 72.8333C222.352 75.0199 219.276 78.092 215.53 77.6745C211.496 77.225 207.898 72.7281 204.189 74.3762C200.079 76.2028 201.189 83.5644 197.024 85.2647C194.832 86.1597 192.242 84.7816 190.978 82.7809C189.872 80.6784 189.269 78.3483 189.217 75.9737C188.643 70.1392 188.124 63.9644 190.656 58.676C191.721 56.8835 192.649 55.0133 193.432 53.0812C193.875 51.2769 194.053 49.4178 193.96 47.5623C193.983 40.7046 194.484 33.5516 197.938 27.6256C201.77 21.0497 208.854 16.8447 216.245 15.0099C223.636 13.1751 231.378 13.4565 238.967 14.0984C251.51 15.1596 264.592 17.4342 274.475 25.2267C275.818 26.2073 276.974 27.421 277.888 28.8101C278.755 30.4602 279.368 32.2319 279.706 34.065C281.843 42.7599 285.046 51.1576 289.244 59.0673C291.263 62.4205 292.914 65.9821 294.166 69.6901C295.214 73.458 295.143 77.752 292.95 80.9905C291.163 83.6272 288.308 85.0323 286.065 87.1879C283.842 89.3239 282.802 93.4318 280.339 95.0492C278.189 96.4611 275.614 95.4645 273.422 96.9609C270.607 98.8823 270.404 103.095 267.088 104.634Z" fill="#2F2E41"/>
<path d="M232.316 202.617L228.209 194.409C228.209 194.409 167.976 212.192 155.655 228.608C155.655 228.608 125.539 209.456 109.112 212.192L92.6845 214.928L143.335 260.071L207.675 254.599L232.316 202.617Z" fill="#F2F2F2"/>
<path d="M235.053 194.409L291.18 272.382L210.413 312.053C210.413 312.053 202.862 316.157 197.055 312.053L143.335 287.43L92.6844 214.928L143.335 240.919C143.335 240.919 148.811 229.976 159.762 235.448L235.053 194.409Z" fill="#5193DE"/>
<path d="M148.811 332.572L137.859 303.845C137.859 303.845 113.218 272.382 126.908 257.335C140.597 242.287 155.655 301.109 155.655 301.109L148.811 332.572Z" fill="#FFB9B9"/>
<path d="M275.166 327.988L251.27 308.629C251.27 308.629 214.158 293.766 218.445 273.886C222.732 254.007 265.29 297.34 265.29 297.34L275.166 327.988Z" fill="#FFB9B9"/>
<path opacity="0.1" d="M334.301 189.621H335.67C335.67 189.621 356.888 164.314 360.995 198.513C365.102 232.712 378.791 346.252 343.199 350.356C307.607 354.46 282.281 333.256 282.281 333.256C282.281 333.256 256.272 293.586 265.854 293.586C270.491 293.586 283.101 291.505 294.602 292.218C306.871 292.978 317.896 296.432 317.189 292.902C315.82 286.062 295.971 199.197 334.301 189.621Z" fill="black"/>
<path d="M336.354 162.946L341.83 160.21C341.83 160.21 363.733 164.314 367.84 198.513C371.946 232.712 385.636 346.252 350.044 350.356C314.451 354.459 266.539 344.884 266.539 344.884C266.539 344.884 256.956 292.902 266.539 292.902C276.121 292.902 325.403 299.741 324.034 292.902C322.665 286.062 298.024 172.522 336.354 162.946Z" fill="#575A89"/>
<path d="M168.66 316.841L153.565 293.722L144.019 331.889L168.66 342.833V316.841Z" fill="#575A89"/>
</g>
<line x1="82" y1="396.5" x2="384.002" y2="396.5" stroke="#F3BB02" stroke-width="3"/>
<path d="M79.41 446.252C77.658 446.252 76.074 445.952 74.658 445.352C73.266 444.752 72.162 443.888 71.346 442.76C70.53 441.632 70.11 440.3 70.086 438.764H75.486C75.558 439.796 75.918 440.612 76.566 441.212C77.238 441.812 78.15 442.112 79.302 442.112C80.478 442.112 81.402 441.836 82.074 441.284C82.746 440.708 83.082 439.964 83.082 439.052C83.082 438.308 82.854 437.696 82.398 437.216C81.942 436.736 81.366 436.364 80.67 436.1C79.998 435.812 79.062 435.5 77.862 435.164C76.23 434.684 74.898 434.216 73.866 433.76C72.858 433.28 71.982 432.572 71.238 431.636C70.518 430.676 70.158 429.404 70.158 427.82C70.158 426.332 70.53 425.036 71.274 423.932C72.018 422.828 73.062 421.988 74.406 421.412C75.75 420.812 77.286 420.512 79.014 420.512C81.606 420.512 83.706 421.148 85.314 422.42C86.946 423.668 87.846 425.42 88.014 427.676H82.47C82.422 426.812 82.05 426.104 81.354 425.552C80.682 424.976 79.782 424.688 78.654 424.688C77.67 424.688 76.878 424.94 76.278 425.444C75.702 425.948 75.414 426.68 75.414 427.64C75.414 428.312 75.63 428.876 76.062 429.332C76.518 429.764 77.07 430.124 77.718 430.412C78.39 430.676 79.326 430.988 80.526 431.348C82.158 431.828 83.49 432.308 84.522 432.788C85.554 433.268 86.442 433.988 87.186 434.948C87.93 435.908 88.302 437.168 88.302 438.728C88.302 440.072 87.954 441.32 87.258 442.472C86.562 443.624 85.542 444.548 84.198 445.244C82.854 445.916 81.258 446.252 79.41 446.252ZM104.336 446.252C101.984 446.252 99.8235 445.7 97.8555 444.596C95.8875 443.492 94.3275 441.968 93.1755 440.024C92.0235 438.056 91.4475 435.836 91.4475 433.364C91.4475 430.916 92.0235 428.72 93.1755 426.776C94.3275 424.808 95.8875 423.272 97.8555 422.168C99.8235 421.064 101.984 420.512 104.336 420.512C106.712 420.512 108.872 421.064 110.816 422.168C112.784 423.272 114.332 424.808 115.46 426.776C116.612 428.72 117.188 430.916 117.188 433.364C117.188 435.836 116.612 438.056 115.46 440.024C114.332 441.968 112.784 443.492 110.816 444.596C108.848 445.7 106.688 446.252 104.336 446.252ZM104.336 441.752C105.848 441.752 107.18 441.416 108.332 440.744C109.484 440.048 110.384 439.064 111.032 437.792C111.68 436.52 112.004 435.044 112.004 433.364C112.004 431.684 111.68 430.22 111.032 428.972C110.384 427.7 109.484 426.728 108.332 426.056C107.18 425.384 105.848 425.048 104.336 425.048C102.824 425.048 101.48 425.384 100.304 426.056C99.1515 426.728 98.2515 427.7 97.6035 428.972C96.9555 430.22 96.6315 431.684 96.6315 433.364C96.6315 435.044 96.9555 436.52 97.6035 437.792C98.2515 439.064 99.1515 440.048 100.304 440.744C101.48 441.416 102.824 441.752 104.336 441.752ZM139.261 428.648C139.261 429.992 138.937 431.252 138.289 432.428C137.665 433.604 136.669 434.552 135.301 435.272C133.957 435.992 132.253 436.352 130.189 436.352H125.977V446H120.937V420.872H130.189C132.133 420.872 133.789 421.208 135.157 421.88C136.525 422.552 137.545 423.476 138.217 424.652C138.913 425.828 139.261 427.16 139.261 428.648ZM129.973 432.284C131.365 432.284 132.397 431.972 133.069 431.348C133.741 430.7 134.077 429.8 134.077 428.648C134.077 426.2 132.709 424.976 129.973 424.976H125.977V432.284H129.973ZM163.683 420.872V446H158.643V435.308H147.879V446H142.839V420.872H147.879V431.204H158.643V420.872H163.683ZM180.308 446.252C177.956 446.252 175.796 445.7 173.828 444.596C171.86 443.492 170.3 441.968 169.148 440.024C167.996 438.056 167.42 435.836 167.42 433.364C167.42 430.916 167.996 428.72 169.148 426.776C170.3 424.808 171.86 423.272 173.828 422.168C175.796 421.064 177.956 420.512 180.308 420.512C182.684 420.512 184.844 421.064 186.788 422.168C188.756 423.272 190.304 424.808 191.432 426.776C192.584 428.72 193.16 430.916 193.16 433.364C193.16 435.836 192.584 438.056 191.432 440.024C190.304 441.968 188.756 443.492 186.788 444.596C184.82 445.7 182.66 446.252 180.308 446.252ZM180.308 441.752C181.82 441.752 183.152 441.416 184.304 440.744C185.456 440.048 186.356 439.064 187.004 437.792C187.652 436.52 187.976 435.044 187.976 433.364C187.976 431.684 187.652 430.22 187.004 428.972C186.356 427.7 185.456 426.728 184.304 426.056C183.152 425.384 181.82 425.048 180.308 425.048C178.796 425.048 177.452 425.384 176.276 426.056C175.124 426.728 174.224 427.7 173.576 428.972C172.928 430.22 172.604 431.684 172.604 433.364C172.604 435.044 172.928 436.52 173.576 437.792C174.224 439.064 175.124 440.048 176.276 440.744C177.452 441.416 178.796 441.752 180.308 441.752ZM224.306 420.872V446H219.266V429.656L212.534 446H208.718L201.95 429.656V446H196.91V420.872H202.634L210.626 439.556L218.618 420.872H224.306ZM240.953 446.252C238.601 446.252 236.441 445.7 234.473 444.596C232.505 443.492 230.945 441.968 229.793 440.024C228.641 438.056 228.065 435.836 228.065 433.364C228.065 430.916 228.641 428.72 229.793 426.776C230.945 424.808 232.505 423.272 234.473 422.168C236.441 421.064 238.601 420.512 240.953 420.512C243.329 420.512 245.489 421.064 247.433 422.168C249.401 423.272 250.949 424.808 252.077 426.776C253.229 428.72 253.805 430.916 253.805 433.364C253.805 435.836 253.229 438.056 252.077 440.024C250.949 441.968 249.401 443.492 247.433 444.596C245.465 445.7 243.305 446.252 240.953 446.252ZM240.953 441.752C242.465 441.752 243.797 441.416 244.949 440.744C246.101 440.048 247.001 439.064 247.649 437.792C248.297 436.52 248.621 435.044 248.621 433.364C248.621 431.684 248.297 430.22 247.649 428.972C247.001 427.7 246.101 426.728 244.949 426.056C243.797 425.384 242.465 425.048 240.953 425.048C239.441 425.048 238.097 425.384 236.921 426.056C235.769 426.728 234.869 427.7 234.221 428.972C233.573 430.22 233.249 431.684 233.249 433.364C233.249 435.044 233.573 436.52 234.221 437.792C234.869 439.064 235.769 440.048 236.921 440.744C238.097 441.416 239.441 441.752 240.953 441.752ZM270.514 446L264.97 436.208H262.594V446H257.554V420.872H266.986C268.93 420.872 270.586 421.22 271.954 421.916C273.322 422.588 274.342 423.512 275.014 424.688C275.71 425.84 276.058 427.136 276.058 428.576C276.058 430.232 275.578 431.732 274.618 433.076C273.658 434.396 272.23 435.308 270.334 435.812L276.346 446H270.514ZM262.594 432.428H266.806C268.174 432.428 269.194 432.104 269.866 431.456C270.538 430.784 270.874 429.86 270.874 428.684C270.874 427.532 270.538 426.644 269.866 426.02C269.194 425.372 268.174 425.048 266.806 425.048H262.594V432.428ZM285.657 424.94V431.24H294.117V435.236H285.657V441.896H295.197V446H280.617V420.836H295.197V424.94H285.657ZM328.335 420.872L319.839 437.252V446H314.799V437.252L306.267 420.872H311.955L317.355 432.356L322.719 420.872H328.335ZM336.282 424.94V431.24H344.742V435.236H336.282V441.896H345.822V446H331.242V420.836H345.822V424.94H336.282ZM365.81 441.212H355.802L354.146 446H348.854L357.89 420.836H363.758L372.794 446H367.466L365.81 441.212ZM364.442 437.18L360.806 426.668L357.17 437.18H364.442ZM389.132 446L383.588 436.208H381.212V446H376.172V420.872H385.604C387.548 420.872 389.204 421.22 390.572 421.916C391.94 422.588 392.96 423.512 393.632 424.688C394.328 425.84 394.676 427.136 394.676 428.576C394.676 430.232 394.196 431.732 393.236 433.076C392.276 434.396 390.848 435.308 388.952 435.812L394.964 446H389.132ZM381.212 432.428H385.424C386.792 432.428 387.812 432.104 388.484 431.456C389.156 430.784 389.492 429.86 389.492 428.684C389.492 427.532 389.156 426.644 388.484 426.02C387.812 425.372 386.792 425.048 385.424 425.048H381.212V432.428Z" fill="#F3BB02"/>
<path d="M43.8142 480.696C46.2463 480.696 48.3476 481.155 50.1183 482.072C51.9103 482.968 53.2756 484.259 54.2143 485.944C55.1743 487.629 55.6543 489.613 55.6543 491.896C55.6543 494.179 55.1743 496.163 54.2143 497.848C53.2756 499.512 51.9103 500.792 50.1183 501.688C48.3476 502.563 46.2463 503 43.8142 503H36.8703V480.696H43.8142ZM43.8142 500.6C46.6943 500.6 48.8916 499.843 50.4062 498.328C51.9209 496.792 52.6783 494.648 52.6783 491.896C52.6783 489.123 51.9103 486.957 50.3743 485.4C48.8596 483.843 46.6729 483.064 43.8142 483.064H39.7823V500.6H43.8142ZM75.4953 493.56C75.4953 494.115 75.4633 494.701 75.3993 495.32H61.3833C61.4899 497.048 62.0766 498.403 63.1433 499.384C64.2313 500.344 65.5433 500.824 67.0793 500.824C68.3379 500.824 69.3833 500.536 70.2153 499.96C71.0686 499.363 71.6659 498.573 72.0073 497.592H75.1433C74.6739 499.277 73.7353 500.653 72.3273 501.72C70.9193 502.765 69.1699 503.288 67.0793 503.288C65.4153 503.288 63.9219 502.915 62.5993 502.168C61.2979 501.421 60.2739 500.365 59.5273 499C58.7806 497.613 58.4073 496.013 58.4073 494.2C58.4073 492.387 58.7699 490.797 59.4953 489.432C60.2206 488.067 61.2339 487.021 62.5353 486.296C63.8579 485.549 65.3726 485.176 67.0793 485.176C68.7433 485.176 70.2153 485.539 71.4953 486.264C72.7753 486.989 73.7566 487.992 74.4393 489.272C75.1433 490.531 75.4953 491.96 75.4953 493.56ZM72.4873 492.952C72.4873 491.843 72.2419 490.893 71.7513 490.104C71.2606 489.293 70.5886 488.685 69.7353 488.28C68.9033 487.853 67.9753 487.64 66.9513 487.64C65.4793 487.64 64.2206 488.109 63.1753 489.048C62.1513 489.987 61.5646 491.288 61.4153 492.952H72.4873ZM82.251 488.696C82.827 487.693 83.6803 486.861 84.811 486.2C85.963 485.517 87.2963 485.176 88.811 485.176C90.3683 485.176 91.7763 485.549 93.035 486.296C94.315 487.043 95.3177 488.099 96.043 489.464C96.7683 490.808 97.131 492.376 97.131 494.168C97.131 495.939 96.7683 497.517 96.043 498.904C95.3177 500.291 94.315 501.368 93.035 502.136C91.7763 502.904 90.3683 503.288 88.811 503.288C87.3177 503.288 85.995 502.957 84.843 502.296C83.7123 501.613 82.8483 500.771 82.251 499.768V511.32H79.339V485.464H82.251V488.696ZM94.155 494.168C94.155 492.845 93.8883 491.693 93.355 490.712C92.8217 489.731 92.0963 488.984 91.179 488.472C90.283 487.96 89.291 487.704 88.203 487.704C87.1363 487.704 86.1443 487.971 85.227 488.504C84.331 489.016 83.6057 489.773 83.051 490.776C82.5177 491.757 82.251 492.899 82.251 494.2C82.251 495.523 82.5177 496.685 83.051 497.688C83.6057 498.669 84.331 499.427 85.227 499.96C86.1443 500.472 87.1363 500.728 88.203 500.728C89.291 500.728 90.283 500.472 91.179 499.96C92.0963 499.427 92.8217 498.669 93.355 497.688C93.8883 496.685 94.155 495.512 94.155 494.168ZM99.876 494.168C99.876 492.376 100.239 490.808 100.964 489.464C101.689 488.099 102.681 487.043 103.94 486.296C105.22 485.549 106.639 485.176 108.196 485.176C109.732 485.176 111.065 485.507 112.196 486.168C113.327 486.829 114.169 487.661 114.724 488.664V485.464H117.668V503H114.724V499.736C114.148 500.76 113.284 501.613 112.132 502.296C111.001 502.957 109.679 503.288 108.164 503.288C106.607 503.288 105.199 502.904 103.94 502.136C102.681 501.368 101.689 500.291 100.964 498.904C100.239 497.517 99.876 495.939 99.876 494.168ZM114.724 494.2C114.724 492.877 114.457 491.725 113.924 490.744C113.391 489.763 112.665 489.016 111.748 488.504C110.852 487.971 109.86 487.704 108.772 487.704C107.684 487.704 106.692 487.96 105.796 488.472C104.9 488.984 104.185 489.731 103.652 490.712C103.119 491.693 102.852 492.845 102.852 494.168C102.852 495.512 103.119 496.685 103.652 497.688C104.185 498.669 104.9 499.427 105.796 499.96C106.692 500.472 107.684 500.728 108.772 500.728C109.86 500.728 110.852 500.472 111.748 499.96C112.665 499.427 113.391 498.669 113.924 497.688C114.457 496.685 114.724 495.523 114.724 494.2ZM125.501 488.312C126.013 487.309 126.738 486.531 127.677 485.976C128.637 485.421 129.8 485.144 131.165 485.144V488.152H130.397C127.133 488.152 125.501 489.923 125.501 493.464V503H122.589V485.464H125.501V488.312ZM138.079 487.864V498.2C138.079 499.053 138.26 499.661 138.623 500.024C138.985 500.365 139.615 500.536 140.51 500.536H142.655V503H140.031C138.409 503 137.193 502.627 136.383 501.88C135.572 501.133 135.167 499.907 135.167 498.2V487.864H132.895V485.464H135.167V481.048H138.079V485.464H142.655V487.864H138.079ZM167.271 485.144C168.636 485.144 169.852 485.432 170.919 486.008C171.985 486.563 172.828 487.405 173.447 488.536C174.065 489.667 174.375 491.043 174.375 492.664V503H171.495V493.08C171.495 491.331 171.057 489.997 170.183 489.08C169.329 488.141 168.167 487.672 166.695 487.672C165.18 487.672 163.975 488.163 163.079 489.144C162.183 490.104 161.735 491.501 161.735 493.336V503H158.855V493.08C158.855 491.331 158.417 489.997 157.543 489.08C156.689 488.141 155.527 487.672 154.055 487.672C152.54 487.672 151.335 488.163 150.439 489.144C149.543 490.104 149.095 491.501 149.095 493.336V503H146.183V485.464H149.095V487.992C149.671 487.075 150.439 486.371 151.399 485.88C152.38 485.389 153.457 485.144 154.631 485.144C156.103 485.144 157.404 485.475 158.535 486.136C159.665 486.797 160.508 487.768 161.063 489.048C161.553 487.811 162.364 486.851 163.495 486.168C164.625 485.485 165.884 485.144 167.271 485.144ZM195.152 493.56C195.152 494.115 195.12 494.701 195.056 495.32H181.04C181.146 497.048 181.733 498.403 182.8 499.384C183.888 500.344 185.2 500.824 186.736 500.824C187.994 500.824 189.04 500.536 189.872 499.96C190.725 499.363 191.322 498.573 191.664 497.592H194.8C194.33 499.277 193.392 500.653 191.984 501.72C190.576 502.765 188.826 503.288 186.736 503.288C185.072 503.288 183.578 502.915 182.256 502.168C180.954 501.421 179.93 500.365 179.184 499C178.437 497.613 178.064 496.013 178.064 494.2C178.064 492.387 178.426 490.797 179.152 489.432C179.877 488.067 180.89 487.021 182.192 486.296C183.514 485.549 185.029 485.176 186.736 485.176C188.4 485.176 189.872 485.539 191.152 486.264C192.432 486.989 193.413 487.992 194.096 489.272C194.8 490.531 195.152 491.96 195.152 493.56ZM192.144 492.952C192.144 491.843 191.898 490.893 191.408 490.104C190.917 489.293 190.245 488.685 189.392 488.28C188.56 487.853 187.632 487.64 186.608 487.64C185.136 487.64 183.877 488.109 182.832 489.048C181.808 489.987 181.221 491.288 181.072 492.952H192.144ZM207.539 485.144C209.673 485.144 211.401 485.795 212.723 487.096C214.046 488.376 214.707 490.232 214.707 492.664V503H211.827V493.08C211.827 491.331 211.39 489.997 210.515 489.08C209.641 488.141 208.446 487.672 206.931 487.672C205.395 487.672 204.169 488.152 203.251 489.112C202.355 490.072 201.907 491.469 201.907 493.304V503H198.995V485.464H201.907V487.96C202.483 487.064 203.262 486.371 204.243 485.88C205.246 485.389 206.345 485.144 207.539 485.144ZM223.016 487.864V498.2C223.016 499.053 223.197 499.661 223.56 500.024C223.923 500.365 224.552 500.536 225.448 500.536H227.592V503H224.968C223.347 503 222.131 502.627 221.32 501.88C220.509 501.133 220.104 499.907 220.104 498.2V487.864H217.832V485.464H220.104V481.048H223.016V485.464H227.592V487.864H223.016ZM230.032 494.168C230.032 492.376 230.395 490.808 231.12 489.464C231.846 488.099 232.838 487.043 234.096 486.296C235.376 485.549 236.795 485.176 238.352 485.176C239.888 485.176 241.222 485.507 242.352 486.168C243.483 486.829 244.326 487.661 244.88 488.664V485.464H247.824V503H244.88V499.736C244.304 500.76 243.44 501.613 242.288 502.296C241.158 502.957 239.835 503.288 238.32 503.288C236.763 503.288 235.355 502.904 234.096 502.136C232.838 501.368 231.846 500.291 231.12 498.904C230.395 497.517 230.032 495.939 230.032 494.168ZM244.88 494.2C244.88 492.877 244.614 491.725 244.08 490.744C243.547 489.763 242.822 489.016 241.904 488.504C241.008 487.971 240.016 487.704 238.928 487.704C237.84 487.704 236.848 487.96 235.952 488.472C235.056 488.984 234.342 489.731 233.808 490.712C233.275 491.693 233.008 492.845 233.008 494.168C233.008 495.512 233.275 496.685 233.808 497.688C234.342 498.669 235.056 499.427 235.952 499.96C236.848 500.472 237.84 500.728 238.928 500.728C240.016 500.728 241.008 500.472 241.904 499.96C242.822 499.427 243.547 498.669 244.08 497.688C244.614 496.685 244.88 495.523 244.88 494.2ZM255.657 479.32V503H252.745V479.32H255.657ZM280.896 503L275.584 493.88H272.064V503H269.152V480.696H276.352C278.037 480.696 279.456 480.984 280.608 481.56C281.781 482.136 282.656 482.915 283.232 483.896C283.808 484.877 284.096 485.997 284.096 487.256C284.096 488.792 283.648 490.147 282.752 491.32C281.877 492.493 280.554 493.272 278.784 493.656L284.384 503H280.896ZM272.064 491.544H276.352C277.93 491.544 279.114 491.16 279.904 490.392C280.693 489.603 281.088 488.557 281.088 487.256C281.088 485.933 280.693 484.909 279.904 484.184C279.136 483.459 277.952 483.096 276.352 483.096H272.064V491.544ZM304.62 493.56C304.62 494.115 304.588 494.701 304.524 495.32H290.508C290.615 497.048 291.202 498.403 292.268 499.384C293.356 500.344 294.668 500.824 296.204 500.824C297.463 500.824 298.508 500.536 299.34 499.96C300.194 499.363 300.791 498.573 301.132 497.592H304.268C303.799 499.277 302.86 500.653 301.452 501.72C300.044 502.765 298.295 503.288 296.204 503.288C294.54 503.288 293.047 502.915 291.724 502.168C290.423 501.421 289.399 500.365 288.652 499C287.906 497.613 287.532 496.013 287.532 494.2C287.532 492.387 287.895 490.797 288.62 489.432C289.346 488.067 290.359 487.021 291.66 486.296C292.983 485.549 294.498 485.176 296.204 485.176C297.868 485.176 299.34 485.539 300.62 486.264C301.9 486.989 302.882 487.992 303.564 489.272C304.268 490.531 304.62 491.96 304.62 493.56ZM301.612 492.952C301.612 491.843 301.367 490.893 300.876 490.104C300.386 489.293 299.714 488.685 298.86 488.28C298.028 487.853 297.1 487.64 296.076 487.64C294.604 487.64 293.346 488.109 292.3 489.048C291.276 489.987 290.69 491.288 290.54 492.952H301.612ZM314.672 503.288C313.328 503.288 312.123 503.064 311.056 502.616C309.989 502.147 309.147 501.507 308.528 500.696C307.909 499.864 307.568 498.915 307.504 497.848H310.512C310.597 498.723 311.003 499.437 311.728 499.992C312.475 500.547 313.445 500.824 314.64 500.824C315.749 500.824 316.624 500.579 317.264 500.088C317.904 499.597 318.224 498.979 318.224 498.232C318.224 497.464 317.883 496.899 317.2 496.536C316.517 496.152 315.461 495.779 314.032 495.416C312.731 495.075 311.664 494.733 310.832 494.392C310.021 494.029 309.317 493.507 308.72 492.824C308.144 492.12 307.856 491.203 307.856 490.072C307.856 489.176 308.123 488.355 308.656 487.608C309.189 486.861 309.947 486.275 310.928 485.848C311.909 485.4 313.029 485.176 314.288 485.176C316.229 485.176 317.797 485.667 318.992 486.648C320.187 487.629 320.827 488.973 320.912 490.68H318C317.936 489.763 317.563 489.027 316.88 488.472C316.219 487.917 315.323 487.64 314.192 487.64C313.147 487.64 312.315 487.864 311.696 488.312C311.077 488.76 310.768 489.347 310.768 490.072C310.768 490.648 310.949 491.128 311.312 491.512C311.696 491.875 312.165 492.173 312.72 492.408C313.296 492.621 314.085 492.867 315.088 493.144C316.347 493.485 317.371 493.827 318.16 494.168C318.949 494.488 319.621 494.979 320.176 495.64C320.752 496.301 321.051 497.165 321.072 498.232C321.072 499.192 320.805 500.056 320.272 500.824C319.739 501.592 318.981 502.2 318 502.648C317.04 503.075 315.931 503.288 314.672 503.288ZM332.831 503.288C331.188 503.288 329.695 502.915 328.351 502.168C327.028 501.421 325.983 500.365 325.215 499C324.468 497.613 324.095 496.013 324.095 494.2C324.095 492.408 324.479 490.829 325.247 489.464C326.036 488.077 327.103 487.021 328.447 486.296C329.791 485.549 331.295 485.176 332.959 485.176C334.623 485.176 336.127 485.549 337.471 486.296C338.815 487.021 339.871 488.067 340.639 489.432C341.428 490.797 341.823 492.387 341.823 494.2C341.823 496.013 341.417 497.613 340.607 499C339.817 500.365 338.74 501.421 337.375 502.168C336.009 502.915 334.495 503.288 332.831 503.288ZM332.831 500.728C333.876 500.728 334.857 500.483 335.775 499.992C336.692 499.501 337.428 498.765 337.983 497.784C338.559 496.803 338.847 495.608 338.847 494.2C338.847 492.792 338.569 491.597 338.015 490.616C337.46 489.635 336.735 488.909 335.839 488.44C334.943 487.949 333.972 487.704 332.927 487.704C331.86 487.704 330.879 487.949 329.983 488.44C329.108 488.909 328.404 489.635 327.871 490.616C327.337 491.597 327.071 492.792 327.071 494.2C327.071 495.629 327.327 496.835 327.839 497.816C328.372 498.797 329.076 499.533 329.951 500.024C330.825 500.493 331.785 500.728 332.831 500.728ZM361.204 485.464V503H358.292V500.408C357.737 501.304 356.958 502.008 355.956 502.52C354.974 503.011 353.886 503.256 352.692 503.256C351.326 503.256 350.1 502.979 349.012 502.424C347.924 501.848 347.06 500.995 346.42 499.864C345.801 498.733 345.492 497.357 345.492 495.736V485.464H348.372V495.352C348.372 497.08 348.809 498.413 349.684 499.352C350.558 500.269 351.753 500.728 353.268 500.728C354.825 500.728 356.052 500.248 356.948 499.288C357.844 498.328 358.292 496.931 358.292 495.096V485.464H361.204ZM369.032 488.312C369.544 487.309 370.27 486.531 371.208 485.976C372.168 485.421 373.331 485.144 374.696 485.144V488.152H373.928C370.664 488.152 369.032 489.923 369.032 493.464V503H366.12V485.464H369.032V488.312ZM376.97 494.2C376.97 492.387 377.332 490.808 378.058 489.464C378.783 488.099 379.786 487.043 381.066 486.296C382.367 485.549 383.85 485.176 385.514 485.176C387.668 485.176 389.439 485.699 390.826 486.744C392.234 487.789 393.162 489.24 393.61 491.096H390.474C390.175 490.029 389.588 489.187 388.714 488.568C387.86 487.949 386.794 487.64 385.514 487.64C383.85 487.64 382.506 488.216 381.482 489.368C380.458 490.499 379.946 492.109 379.946 494.2C379.946 496.312 380.458 497.944 381.482 499.096C382.506 500.248 383.85 500.824 385.514 500.824C386.794 500.824 387.86 500.525 388.714 499.928C389.567 499.331 390.154 498.477 390.474 497.368H393.61C393.14 499.16 392.202 500.6 390.794 501.688C389.386 502.755 387.626 503.288 385.514 503.288C383.85 503.288 382.367 502.915 381.066 502.168C379.786 501.421 378.783 500.365 378.058 499C377.332 497.635 376.97 496.035 376.97 494.2ZM413.495 493.56C413.495 494.115 413.463 494.701 413.399 495.32H399.383C399.49 497.048 400.077 498.403 401.143 499.384C402.231 500.344 403.543 500.824 405.079 500.824C406.338 500.824 407.383 500.536 408.215 499.96C409.069 499.363 409.666 498.573 410.007 497.592H413.143C412.674 499.277 411.735 500.653 410.327 501.72C408.919 502.765 407.17 503.288 405.079 503.288C403.415 503.288 401.922 502.915 400.599 502.168C399.298 501.421 398.274 500.365 397.527 499C396.781 497.613 396.407 496.013 396.407 494.2C396.407 492.387 396.77 490.797 397.495 489.432C398.221 488.067 399.234 487.021 400.535 486.296C401.858 485.549 403.373 485.176 405.079 485.176C406.743 485.176 408.215 485.539 409.495 486.264C410.775 486.989 411.757 487.992 412.439 489.272C413.143 490.531 413.495 491.96 413.495 493.56ZM410.487 492.952C410.487 491.843 410.242 490.893 409.751 490.104C409.261 489.293 408.589 488.685 407.735 488.28C406.903 487.853 405.975 487.64 404.951 487.64C403.479 487.64 402.221 488.109 401.175 489.048C400.151 489.987 399.565 491.288 399.415 492.952H410.487ZM423.547 503.288C422.203 503.288 420.998 503.064 419.931 502.616C418.864 502.147 418.022 501.507 417.403 500.696C416.784 499.864 416.443 498.915 416.379 497.848H419.387C419.472 498.723 419.878 499.437 420.603 499.992C421.35 500.547 422.32 500.824 423.515 500.824C424.624 500.824 425.499 500.579 426.139 500.088C426.779 499.597 427.099 498.979 427.099 498.232C427.099 497.464 426.758 496.899 426.075 496.536C425.392 496.152 424.336 495.779 422.907 495.416C421.606 495.075 420.539 494.733 419.707 494.392C418.896 494.029 418.192 493.507 417.595 492.824C417.019 492.12 416.731 491.203 416.731 490.072C416.731 489.176 416.998 488.355 417.531 487.608C418.064 486.861 418.822 486.275 419.803 485.848C420.784 485.4 421.904 485.176 423.163 485.176C425.104 485.176 426.672 485.667 427.867 486.648C429.062 487.629 429.702 488.973 429.787 490.68H426.875C426.811 489.763 426.438 489.027 425.755 488.472C425.094 487.917 424.198 487.64 423.067 487.64C422.022 487.64 421.19 487.864 420.571 488.312C419.952 488.76 419.643 489.347 419.643 490.072C419.643 490.648 419.824 491.128 420.187 491.512C420.571 491.875 421.04 492.173 421.595 492.408C422.171 492.621 422.96 492.867 423.963 493.144C425.222 493.485 426.246 493.827 427.035 494.168C427.824 494.488 428.496 494.979 429.051 495.64C429.627 496.301 429.926 497.165 429.947 498.232C429.947 499.192 429.68 500.056 429.147 500.824C428.614 501.592 427.856 502.2 426.875 502.648C425.915 503.075 424.806 503.288 423.547 503.288Z" fill="#F3BB02"/>
<line x1="230.5" y1="583.009" x2="230.5" y2="524" stroke="#F3BB02" stroke-width="2"/>
<path d="M77.0829 559.224C75.6109 559.224 74.2882 558.968 73.1149 558.456C71.9629 557.923 71.0562 557.197 70.3949 556.28C69.7335 555.341 69.3922 554.264 69.3709 553.048H72.4749C72.5815 554.093 73.0082 554.979 73.7549 555.704C74.5229 556.408 75.6322 556.76 77.0829 556.76C78.4695 556.76 79.5575 556.419 80.3469 555.736C81.1575 555.032 81.5629 554.136 81.5629 553.048C81.5629 552.195 81.3282 551.501 80.8589 550.968C80.3895 550.435 79.8029 550.029 79.0989 549.752C78.3949 549.475 77.4455 549.176 76.2509 548.856C74.7789 548.472 73.5949 548.088 72.6989 547.704C71.8242 547.32 71.0669 546.723 70.4269 545.912C69.8082 545.08 69.4989 543.971 69.4989 542.584C69.4989 541.368 69.8082 540.291 70.4269 539.352C71.0455 538.413 71.9095 537.688 73.0189 537.176C74.1495 536.664 75.4402 536.408 76.8909 536.408C78.9815 536.408 80.6882 536.931 82.0109 537.976C83.3549 539.021 84.1122 540.408 84.2829 542.136H81.0829C80.9762 541.283 80.5282 540.536 79.7389 539.896C78.9495 539.235 77.9042 538.904 76.6029 538.904C75.3869 538.904 74.3949 539.224 73.6269 539.864C72.8589 540.483 72.4749 541.357 72.4749 542.488C72.4749 543.299 72.6989 543.96 73.1469 544.472C73.6162 544.984 74.1815 545.379 74.8429 545.656C75.5255 545.912 76.4749 546.211 77.6909 546.552C79.1629 546.957 80.3469 547.363 81.2429 547.768C82.1389 548.152 82.9069 548.76 83.5469 549.592C84.1869 550.403 84.5069 551.512 84.5069 552.92C84.5069 554.008 84.2189 555.032 83.6429 555.992C83.0669 556.952 82.2135 557.731 81.0829 558.328C79.9522 558.925 78.6189 559.224 77.0829 559.224ZM91.7041 539.064V546.52H99.8321V548.92H91.7041V556.6H100.792V559H88.7921V536.664H100.792V539.064H91.7041ZM127.822 536.856V559H124.91V542.488L117.55 559H115.502L108.11 542.456V559H105.198V536.856H108.334L116.526 555.16L124.718 536.856H127.822ZM144.204 536.696V559H141.292V536.696H144.204ZM152.079 536.696V559H149.167V536.696H152.079ZM159.954 536.696V559H157.042V536.696H159.954Z" fill="#F3BB02"/>
<path d="M307.145 559.224C305.673 559.224 304.351 558.968 303.177 558.456C302.025 557.923 301.119 557.197 300.457 556.28C299.796 555.341 299.455 554.264 299.433 553.048H302.537C302.644 554.093 303.071 554.979 303.817 555.704C304.585 556.408 305.695 556.76 307.145 556.76C308.532 556.76 309.62 556.419 310.409 555.736C311.22 555.032 311.625 554.136 311.625 553.048C311.625 552.195 311.391 551.501 310.921 550.968C310.452 550.435 309.865 550.029 309.161 549.752C308.457 549.475 307.508 549.176 306.313 548.856C304.841 548.472 303.657 548.088 302.761 547.704C301.887 547.32 301.129 546.723 300.489 545.912C299.871 545.08 299.561 543.971 299.561 542.584C299.561 541.368 299.871 540.291 300.489 539.352C301.108 538.413 301.972 537.688 303.081 537.176C304.212 536.664 305.503 536.408 306.953 536.408C309.044 536.408 310.751 536.931 312.073 537.976C313.417 539.021 314.175 540.408 314.345 542.136H311.145C311.039 541.283 310.591 540.536 309.801 539.896C309.012 539.235 307.967 538.904 306.665 538.904C305.449 538.904 304.457 539.224 303.689 539.864C302.921 540.483 302.537 541.357 302.537 542.488C302.537 543.299 302.761 543.96 303.209 544.472C303.679 544.984 304.244 545.379 304.905 545.656C305.588 545.912 306.537 546.211 307.753 546.552C309.225 546.957 310.409 547.363 311.305 547.768C312.201 548.152 312.969 548.76 313.609 549.592C314.249 550.403 314.569 551.512 314.569 552.92C314.569 554.008 314.281 555.032 313.705 555.992C313.129 556.952 312.276 557.731 311.145 558.328C310.015 558.925 308.681 559.224 307.145 559.224ZM321.767 539.064V546.52H329.895V548.92H321.767V556.6H330.855V559H318.855V536.664H330.855V539.064H321.767ZM357.885 536.856V559H354.973V542.488L347.613 559H345.565L338.173 542.456V559H335.261V536.856H338.397L346.589 555.16L354.781 536.856H357.885ZM374.267 536.696V559H371.355V536.696H374.267ZM397.662 536.696L389.246 559H385.886L377.47 536.696H380.574L387.582 555.928L394.59 536.696H397.662Z" fill="#F3BB02"/>
</g>
<defs>
<clipPath id="clip0">
<rect width="465" height="603" rx="25" fill="white"/>
</clipPath>
<clipPath id="clip1">
<rect width="282" height="337" fill="white" transform="matrix(-1 0 0 1 374 13)"/>
</clipPath>
</defs>
</svg>
