<svg width="455" height="591" viewBox="0 0 455 591" fill="none" xmlns="http://www.w3.org/2000/svg">
<g clip-path="url(#clip0)">
<line x1="82" y1="396.5" x2="384.002" y2="396.5" stroke="#5193DE" stroke-width="3"/>
<path d="M151.834 420.872V424.94H141.358V431.384H149.386V435.38H141.358V446H136.318V420.872H151.834ZM160.448 420.872V446H155.408V420.872H160.448ZM186.919 446H181.879L170.467 428.756V446H165.427V420.836H170.467L181.879 438.116V420.836H186.919V446ZM207.308 441.212H197.3L195.644 446H190.352L199.388 420.836H205.256L214.292 446H208.964L207.308 441.212ZM205.94 437.18L202.304 426.668L198.668 437.18H205.94ZM222.71 442.004H230.99V446H217.67V420.872H222.71V442.004ZM262.751 420.872L254.255 437.252V446H249.215V437.252L240.683 420.872H246.371L251.771 432.356L257.135 420.872H262.751ZM270.698 424.94V431.24H279.158V435.236H270.698V441.896H280.238V446H265.658V420.836H280.238V424.94H270.698ZM300.226 441.212H290.218L288.562 446H283.27L292.306 420.836H298.174L307.21 446H301.882L300.226 441.212ZM298.858 437.18L295.222 426.668L291.586 437.18H298.858ZM323.548 446L318.004 436.208H315.628V446H310.588V420.872H320.02C321.964 420.872 323.62 421.22 324.988 421.916C326.356 422.588 327.376 423.512 328.048 424.688C328.744 425.84 329.092 427.136 329.092 428.576C329.092 430.232 328.612 431.732 327.652 433.076C326.692 434.396 325.264 435.308 323.368 435.812L329.38 446H323.548ZM315.628 432.428H319.84C321.208 432.428 322.228 432.104 322.9 431.456C323.572 430.784 323.908 429.86 323.908 428.684C323.908 427.532 323.572 426.644 322.9 426.02C322.228 425.372 321.208 425.048 319.84 425.048H315.628V432.428Z" fill="#595959"/>
<path d="M54.6033 480.696V483.064H44.9073V490.584H52.7793V492.952H44.9073V503H41.9953V480.696H54.6033ZM59.6243 482.616C59.0696 482.616 58.6003 482.424 58.2163 482.04C57.8323 481.656 57.6403 481.187 57.6403 480.632C57.6403 480.077 57.8323 479.608 58.2163 479.224C58.6003 478.84 59.0696 478.648 59.6243 478.648C60.1576 478.648 60.6056 478.84 60.9683 479.224C61.3523 479.608 61.5443 480.077 61.5443 480.632C61.5443 481.187 61.3523 481.656 60.9683 482.04C60.6056 482.424 60.1576 482.616 59.6243 482.616ZM61.0323 485.464V503H58.1203V485.464H61.0323ZM74.5393 485.144C76.6726 485.144 78.4006 485.795 79.7233 487.096C81.0459 488.376 81.7073 490.232 81.7073 492.664V503H78.8273V493.08C78.8273 491.331 78.3899 489.997 77.5153 489.08C76.6406 488.141 75.4459 487.672 73.9313 487.672C72.3953 487.672 71.1686 488.152 70.2513 489.112C69.3553 490.072 68.9073 491.469 68.9073 493.304V503H65.9953V485.464H68.9073V487.96C69.4833 487.064 70.2619 486.371 71.2433 485.88C72.2459 485.389 73.3446 485.144 74.5393 485.144ZM85.376 494.168C85.376 492.376 85.7387 490.808 86.464 489.464C87.1893 488.099 88.1813 487.043 89.44 486.296C90.72 485.549 92.1387 485.176 93.696 485.176C95.232 485.176 96.5653 485.507 97.696 486.168C98.8267 486.829 99.6693 487.661 100.224 488.664V485.464H103.168V503H100.224V499.736C99.648 500.76 98.784 501.613 97.632 502.296C96.5013 502.957 95.1787 503.288 93.664 503.288C92.1067 503.288 90.6987 502.904 89.44 502.136C88.1813 501.368 87.1893 500.291 86.464 498.904C85.7387 497.517 85.376 495.939 85.376 494.168ZM100.224 494.2C100.224 492.877 99.9573 491.725 99.424 490.744C98.8907 489.763 98.1653 489.016 97.248 488.504C96.352 487.971 95.36 487.704 94.272 487.704C93.184 487.704 92.192 487.96 91.296 488.472C90.4 488.984 89.6853 489.731 89.152 490.712C88.6187 491.693 88.352 492.845 88.352 494.168C88.352 495.512 88.6187 496.685 89.152 497.688C89.6853 498.669 90.4 499.427 91.296 499.96C92.192 500.472 93.184 500.728 94.272 500.728C95.36 500.728 96.352 500.472 97.248 499.96C98.1653 499.427 98.8907 498.669 99.424 497.688C99.9573 496.685 100.224 495.523 100.224 494.2ZM111.001 479.32V503H108.089V479.32H111.001ZM130.703 503.288C129.359 503.288 128.154 503.064 127.087 502.616C126.021 502.147 125.178 501.507 124.559 500.696C123.941 499.864 123.599 498.915 123.535 497.848H126.543C126.629 498.723 127.034 499.437 127.759 499.992C128.506 500.547 129.477 500.824 130.671 500.824C131.781 500.824 132.655 500.579 133.295 500.088C133.935 499.597 134.255 498.979 134.255 498.232C134.255 497.464 133.914 496.899 133.231 496.536C132.549 496.152 131.493 495.779 130.063 495.416C128.762 495.075 127.695 494.733 126.863 494.392C126.053 494.029 125.349 493.507 124.751 492.824C124.175 492.12 123.887 491.203 123.887 490.072C123.887 489.176 124.154 488.355 124.687 487.608C125.221 486.861 125.978 486.275 126.959 485.848C127.941 485.4 129.061 485.176 130.319 485.176C132.261 485.176 133.829 485.667 135.023 486.648C136.218 487.629 136.858 488.973 136.943 490.68H134.031C133.967 489.763 133.594 489.027 132.911 488.472C132.25 487.917 131.354 487.64 130.223 487.64C129.178 487.64 128.346 487.864 127.727 488.312C127.109 488.76 126.799 489.347 126.799 490.072C126.799 490.648 126.981 491.128 127.343 491.512C127.727 491.875 128.197 492.173 128.751 492.408C129.327 492.621 130.117 492.867 131.119 493.144C132.378 493.485 133.402 493.827 134.191 494.168C134.981 494.488 135.653 494.979 136.207 495.64C136.783 496.301 137.082 497.165 137.103 498.232C137.103 499.192 136.837 500.056 136.303 500.824C135.77 501.592 135.013 502.2 134.031 502.648C133.071 503.075 131.962 503.288 130.703 503.288ZM144.766 487.864V498.2C144.766 499.053 144.947 499.661 145.31 500.024C145.673 500.365 146.302 500.536 147.198 500.536H149.342V503H146.718C145.097 503 143.881 502.627 143.07 501.88C142.259 501.133 141.854 499.907 141.854 498.2V487.864H139.582V485.464H141.854V481.048H144.766V485.464H149.342V487.864H144.766ZM168.87 493.56C168.87 494.115 168.838 494.701 168.774 495.32H154.758C154.865 497.048 155.452 498.403 156.518 499.384C157.606 500.344 158.918 500.824 160.454 500.824C161.713 500.824 162.758 500.536 163.59 499.96C164.444 499.363 165.041 498.573 165.382 497.592H168.518C168.049 499.277 167.11 500.653 165.702 501.72C164.294 502.765 162.545 503.288 160.454 503.288C158.79 503.288 157.297 502.915 155.974 502.168C154.673 501.421 153.649 500.365 152.902 499C152.156 497.613 151.782 496.013 151.782 494.2C151.782 492.387 152.145 490.797 152.87 489.432C153.596 488.067 154.609 487.021 155.91 486.296C157.233 485.549 158.748 485.176 160.454 485.176C162.118 485.176 163.59 485.539 164.87 486.264C166.15 486.989 167.132 487.992 167.814 489.272C168.518 490.531 168.87 491.96 168.87 493.56ZM165.862 492.952C165.862 491.843 165.617 490.893 165.126 490.104C164.636 489.293 163.964 488.685 163.11 488.28C162.278 487.853 161.35 487.64 160.326 487.64C158.854 487.64 157.596 488.109 156.55 489.048C155.526 489.987 154.94 491.288 154.79 492.952H165.862ZM175.626 488.696C176.202 487.693 177.055 486.861 178.186 486.2C179.338 485.517 180.671 485.176 182.186 485.176C183.743 485.176 185.151 485.549 186.41 486.296C187.69 487.043 188.693 488.099 189.418 489.464C190.143 490.808 190.506 492.376 190.506 494.168C190.506 495.939 190.143 497.517 189.418 498.904C188.693 500.291 187.69 501.368 186.41 502.136C185.151 502.904 183.743 503.288 182.186 503.288C180.693 503.288 179.37 502.957 178.218 502.296C177.087 501.613 176.223 500.771 175.626 499.768V511.32H172.714V485.464H175.626V488.696ZM187.53 494.168C187.53 492.845 187.263 491.693 186.73 490.712C186.197 489.731 185.471 488.984 184.554 488.472C183.658 487.96 182.666 487.704 181.578 487.704C180.511 487.704 179.519 487.971 178.602 488.504C177.706 489.016 176.981 489.773 176.426 490.776C175.893 491.757 175.626 492.899 175.626 494.2C175.626 495.523 175.893 496.685 176.426 497.688C176.981 498.669 177.706 499.427 178.602 499.96C179.519 500.472 180.511 500.728 181.578 500.728C182.666 500.728 183.658 500.472 184.554 499.96C185.471 499.427 186.197 498.669 186.73 497.688C187.263 496.685 187.53 495.512 187.53 494.168ZM204.374 482.616C203.82 482.616 203.35 482.424 202.966 482.04C202.582 481.656 202.39 481.187 202.39 480.632C202.39 480.077 202.582 479.608 202.966 479.224C203.35 478.84 203.82 478.648 204.374 478.648C204.908 478.648 205.356 478.84 205.718 479.224C206.102 479.608 206.294 480.077 206.294 480.632C206.294 481.187 206.102 481.656 205.718 482.04C205.356 482.424 204.908 482.616 204.374 482.616ZM205.782 485.464V503H202.87V485.464H205.782ZM219.289 485.144C221.423 485.144 223.151 485.795 224.473 487.096C225.796 488.376 226.457 490.232 226.457 492.664V503H223.577V493.08C223.577 491.331 223.14 489.997 222.265 489.08C221.391 488.141 220.196 487.672 218.681 487.672C217.145 487.672 215.919 488.152 215.001 489.112C214.105 490.072 213.657 491.469 213.657 493.304V503H210.745V485.464H213.657V487.96C214.233 487.064 215.012 486.371 215.993 485.88C216.996 485.389 218.095 485.144 219.289 485.144ZM243.297 487.864V498.2C243.297 499.053 243.479 499.661 243.841 500.024C244.204 500.365 244.833 500.536 245.729 500.536H247.873V503H245.249C243.628 503 242.412 502.627 241.601 501.88C240.791 501.133 240.385 499.907 240.385 498.2V487.864H238.113V485.464H240.385V481.048H243.297V485.464H247.873V487.864H243.297ZM260.106 485.144C261.428 485.144 262.623 485.432 263.69 486.008C264.756 486.563 265.588 487.405 266.186 488.536C266.804 489.667 267.114 491.043 267.114 492.664V503H264.234V493.08C264.234 491.331 263.796 489.997 262.922 489.08C262.047 488.141 260.852 487.672 259.338 487.672C257.802 487.672 256.575 488.152 255.658 489.112C254.762 490.072 254.314 491.469 254.314 493.304V503H251.402V479.32H254.314V487.96C254.89 487.064 255.679 486.371 256.682 485.88C257.706 485.389 258.847 485.144 260.106 485.144ZM287.87 493.56C287.87 494.115 287.838 494.701 287.774 495.32H273.758C273.865 497.048 274.452 498.403 275.518 499.384C276.606 500.344 277.918 500.824 279.454 500.824C280.713 500.824 281.758 500.536 282.59 499.96C283.444 499.363 284.041 498.573 284.382 497.592H287.518C287.049 499.277 286.11 500.653 284.702 501.72C283.294 502.765 281.545 503.288 279.454 503.288C277.79 503.288 276.297 502.915 274.974 502.168C273.673 501.421 272.649 500.365 271.902 499C271.156 497.613 270.782 496.013 270.782 494.2C270.782 492.387 271.145 490.797 271.87 489.432C272.596 488.067 273.609 487.021 274.91 486.296C276.233 485.549 277.748 485.176 279.454 485.176C281.118 485.176 282.59 485.539 283.87 486.264C285.15 486.989 286.132 487.992 286.814 489.272C287.518 490.531 287.87 491.96 287.87 493.56ZM284.862 492.952C284.862 491.843 284.617 490.893 284.126 490.104C283.636 489.293 282.964 488.685 282.11 488.28C281.278 487.853 280.35 487.64 279.326 487.64C277.854 487.64 276.596 488.109 275.55 489.048C274.526 489.987 273.94 491.288 273.79 492.952H284.862ZM301.813 482.616C301.259 482.616 300.789 482.424 300.405 482.04C300.043 481.656 299.861 481.187 299.861 480.632C299.861 480.077 300.043 479.608 300.405 479.224C300.789 478.84 301.259 478.648 301.813 478.648C302.368 478.648 302.827 478.84 303.189 479.224C303.573 479.608 303.765 480.077 303.765 480.632C303.765 481.187 303.573 481.656 303.189 482.04C302.827 482.424 302.368 482.616 301.813 482.616ZM303.253 506.808C303.253 508.365 302.859 509.507 302.069 510.232C301.28 510.957 300.128 511.32 298.613 511.32H296.917V508.856H298.133C298.944 508.856 299.509 508.696 299.829 508.376C300.171 508.056 300.341 507.512 300.341 506.744V485.464H303.253V506.808ZM315.831 503.288C314.188 503.288 312.695 502.915 311.351 502.168C310.028 501.421 308.983 500.365 308.215 499C307.468 497.613 307.095 496.013 307.095 494.2C307.095 492.408 307.479 490.829 308.247 489.464C309.036 488.077 310.103 487.021 311.447 486.296C312.791 485.549 314.295 485.176 315.959 485.176C317.623 485.176 319.127 485.549 320.471 486.296C321.815 487.021 322.871 488.067 323.639 489.432C324.428 490.797 324.823 492.387 324.823 494.2C324.823 496.013 324.417 497.613 323.607 499C322.817 500.365 321.74 501.421 320.375 502.168C319.009 502.915 317.495 503.288 315.831 503.288ZM315.831 500.728C316.876 500.728 317.857 500.483 318.775 499.992C319.692 499.501 320.428 498.765 320.983 497.784C321.559 496.803 321.847 495.608 321.847 494.2C321.847 492.792 321.569 491.597 321.015 490.616C320.46 489.635 319.735 488.909 318.839 488.44C317.943 487.949 316.972 487.704 315.927 487.704C314.86 487.704 313.879 487.949 312.983 488.44C312.108 488.909 311.404 489.635 310.871 490.616C310.337 491.597 310.071 492.792 310.071 494.2C310.071 495.629 310.327 496.835 310.839 497.816C311.372 498.797 312.076 499.533 312.951 500.024C313.825 500.493 314.785 500.728 315.831 500.728ZM344.204 485.464V503H341.292V500.408C340.737 501.304 339.958 502.008 338.956 502.52C337.974 503.011 336.886 503.256 335.692 503.256C334.326 503.256 333.1 502.979 332.012 502.424C330.924 501.848 330.06 500.995 329.42 499.864C328.801 498.733 328.492 497.357 328.492 495.736V485.464H331.372V495.352C331.372 497.08 331.809 498.413 332.684 499.352C333.558 500.269 334.753 500.728 336.268 500.728C337.825 500.728 339.052 500.248 339.948 499.288C340.844 498.328 341.292 496.931 341.292 495.096V485.464H344.204ZM352.032 488.312C352.544 487.309 353.27 486.531 354.208 485.976C355.168 485.421 356.331 485.144 357.696 485.144V488.152H356.928C353.664 488.152 352.032 489.923 352.032 493.464V503H349.12V485.464H352.032V488.312ZM369.602 485.144C371.735 485.144 373.463 485.795 374.786 487.096C376.108 488.376 376.77 490.232 376.77 492.664V503H373.89V493.08C373.89 491.331 373.452 489.997 372.578 489.08C371.703 488.141 370.508 487.672 368.994 487.672C367.458 487.672 366.231 488.152 365.314 489.112C364.418 490.072 363.97 491.469 363.97 493.304V503H361.058V485.464H363.97V487.96C364.546 487.064 365.324 486.371 366.306 485.88C367.308 485.389 368.407 485.144 369.602 485.144ZM397.527 493.56C397.527 494.115 397.495 494.701 397.431 495.32H383.415C383.521 497.048 384.108 498.403 385.175 499.384C386.263 500.344 387.575 500.824 389.111 500.824C390.369 500.824 391.415 500.536 392.247 499.96C393.1 499.363 393.697 498.573 394.039 497.592H397.175C396.705 499.277 395.767 500.653 394.359 501.72C392.951 502.765 391.201 503.288 389.111 503.288C387.447 503.288 385.953 502.915 384.631 502.168C383.329 501.421 382.305 500.365 381.559 499C380.812 497.613 380.439 496.013 380.439 494.2C380.439 492.387 380.801 490.797 381.527 489.432C382.252 488.067 383.265 487.021 384.567 486.296C385.889 485.549 387.404 485.176 389.111 485.176C390.775 485.176 392.247 485.539 393.527 486.264C394.807 486.989 395.788 487.992 396.471 489.272C397.175 490.531 397.527 491.96 397.527 493.56ZM394.519 492.952C394.519 491.843 394.273 490.893 393.783 490.104C393.292 489.293 392.62 488.685 391.767 488.28C390.935 487.853 390.007 487.64 388.983 487.64C387.511 487.64 386.252 488.109 385.207 489.048C384.183 489.987 383.596 491.288 383.447 492.952H394.519ZM416.474 485.464L405.914 511.256H402.906L406.362 502.808L399.29 485.464H402.522L408.026 499.672L413.466 485.464H416.474ZM423.178 480.696L422.826 496.696H420.394L420.042 480.696H423.178ZM421.738 503.192C421.183 503.192 420.714 503 420.33 502.616C419.946 502.232 419.754 501.763 419.754 501.208C419.754 500.653 419.946 500.184 420.33 499.8C420.714 499.416 421.183 499.224 421.738 499.224C422.271 499.224 422.719 499.416 423.082 499.8C423.466 500.184 423.658 500.653 423.658 501.208C423.658 501.763 423.466 502.232 423.082 502.616C422.719 503 422.271 503.192 421.738 503.192Z" fill="#595959"/>
<line x1="231.5" y1="583.009" x2="231.5" y2="524" stroke="#5193DE" stroke-width="2"/>
<path d="M71.2079 559.224C69.7359 559.224 68.4132 558.968 67.2399 558.456C66.0879 557.923 65.1812 557.197 64.5199 556.28C63.8585 555.341 63.5172 554.264 63.4959 553.048H66.5999C66.7065 554.093 67.1332 554.979 67.8799 555.704C68.6479 556.408 69.7572 556.76 71.2079 556.76C72.5945 556.76 73.6825 556.419 74.4719 555.736C75.2825 555.032 75.6879 554.136 75.6879 553.048C75.6879 552.195 75.4532 551.501 74.9839 550.968C74.5145 550.435 73.9279 550.029 73.2239 549.752C72.5199 549.475 71.5705 549.176 70.3759 548.856C68.9039 548.472 67.7199 548.088 66.8239 547.704C65.9492 547.32 65.1919 546.723 64.5519 545.912C63.9332 545.08 63.6239 543.971 63.6239 542.584C63.6239 541.368 63.9332 540.291 64.5519 539.352C65.1705 538.413 66.0345 537.688 67.1439 537.176C68.2745 536.664 69.5652 536.408 71.0159 536.408C73.1065 536.408 74.8132 536.931 76.1359 537.976C77.4799 539.021 78.2372 540.408 78.4079 542.136H75.2079C75.1012 541.283 74.6532 540.536 73.8639 539.896C73.0745 539.235 72.0292 538.904 70.7279 538.904C69.5119 538.904 68.5199 539.224 67.7519 539.864C66.9839 540.483 66.5999 541.357 66.5999 542.488C66.5999 543.299 66.8239 543.96 67.2719 544.472C67.7412 544.984 68.3065 545.379 68.9679 545.656C69.6505 545.912 70.5999 546.211 71.8159 546.552C73.2879 546.957 74.4719 547.363 75.3679 547.768C76.2639 548.152 77.0319 548.76 77.6719 549.592C78.3119 550.403 78.6319 551.512 78.6319 552.92C78.6319 554.008 78.3439 555.032 77.7679 555.992C77.1919 556.952 76.3385 557.731 75.2079 558.328C74.0772 558.925 72.7439 559.224 71.2079 559.224ZM85.8291 539.064V546.52H93.9571V548.92H85.8291V556.6H94.9171V559H82.9171V536.664H94.9171V539.064H85.8291ZM121.947 536.856V559H119.035V542.488L111.675 559H109.627L102.235 542.456V559H99.3234V536.856H102.459L110.651 555.16L118.843 536.856H121.947ZM153.849 536.696L145.433 559H142.073L133.657 536.696H136.761L143.769 555.928L150.777 536.696H153.849ZM159.954 536.696V559H157.042V536.696H159.954ZM167.829 536.696V559H164.917V536.696H167.829Z" fill="#595959"/>
<path d="M300.27 559.224C298.798 559.224 297.476 558.968 296.302 558.456C295.15 557.923 294.244 557.197 293.582 556.28C292.921 555.341 292.58 554.264 292.558 553.048H295.662C295.769 554.093 296.196 554.979 296.942 555.704C297.71 556.408 298.82 556.76 300.27 556.76C301.657 556.76 302.745 556.419 303.534 555.736C304.345 555.032 304.75 554.136 304.75 553.048C304.75 552.195 304.516 551.501 304.046 550.968C303.577 550.435 302.99 550.029 302.286 549.752C301.582 549.475 300.633 549.176 299.438 548.856C297.966 548.472 296.782 548.088 295.886 547.704C295.012 547.32 294.254 546.723 293.614 545.912C292.996 545.08 292.686 543.971 292.686 542.584C292.686 541.368 292.996 540.291 293.614 539.352C294.233 538.413 295.097 537.688 296.206 537.176C297.337 536.664 298.628 536.408 300.078 536.408C302.169 536.408 303.876 536.931 305.198 537.976C306.542 539.021 307.3 540.408 307.47 542.136H304.27C304.164 541.283 303.716 540.536 302.926 539.896C302.137 539.235 301.092 538.904 299.79 538.904C298.574 538.904 297.582 539.224 296.814 539.864C296.046 540.483 295.662 541.357 295.662 542.488C295.662 543.299 295.886 543.96 296.334 544.472C296.804 544.984 297.369 545.379 298.03 545.656C298.713 545.912 299.662 546.211 300.878 546.552C302.35 546.957 303.534 547.363 304.43 547.768C305.326 548.152 306.094 548.76 306.734 549.592C307.374 550.403 307.694 551.512 307.694 552.92C307.694 554.008 307.406 555.032 306.83 555.992C306.254 556.952 305.401 557.731 304.27 558.328C303.14 558.925 301.806 559.224 300.27 559.224ZM314.892 539.064V546.52H323.02V548.92H314.892V556.6H323.98V559H311.98V536.664H323.98V539.064H314.892ZM351.01 536.856V559H348.098V542.488L340.738 559H338.69L331.298 542.456V559H328.386V536.856H331.522L339.714 555.16L347.906 536.856H351.01ZM382.912 536.696L374.496 559H371.136L362.72 536.696H365.824L372.832 555.928L379.84 536.696H382.912ZM389.017 536.696V559H386.105V536.696H389.017ZM396.892 536.696V559H393.98V536.696H396.892ZM404.767 536.696V559H401.855V536.696H404.767Z" fill="#595959"/>
<g clip-path="url(#clip1)">
<g opacity="0.1">
<path opacity="0.1" d="M409.164 323.529C408.65 326.695 406.816 329.106 405.076 331.317L384.37 357.579C382.705 359.693 380.916 361.891 378.679 362.464C374.005 363.702 370.246 357.699 366.251 354.186C352.047 341.699 332.636 360.71 316.581 353.44C310.158 350.532 304.956 343.622 298.409 341.282C281.075 335.065 266.388 362.53 248.491 363.929C242.614 364.373 236.848 361.957 231.233 359.555L193.779 343.516C191.177 342.401 188.532 341.295 185.789 341.229C181.181 341.149 176.889 344.115 172.552 346.251C155.095 354.857 135.711 350.212 117.778 343.693C99.8456 337.175 81.7844 328.786 63.2482 330.176C58.4232 330.54 52.0492 330.234 50.7309 323.902C49.9452 320.136 60.5494 324.084 63.004 322.054C65.4587 320.025 59.6173 311.557 62.4803 311.197C79.1389 309.11 96.1127 309.052 112.394 314.306C120.828 317.023 129.124 321.162 137.784 322.01C146.812 322.898 155.792 320.163 164.656 317.676C187.103 311.379 209.931 306.575 232.848 307.552C273.578 309.328 313.696 329.426 354.222 323.6C366.262 321.818 377.893 317.922 388.578 312.09C394.046 309.137 393.802 319.594 399.381 323.116C401.197 324.261 405.951 313.577 407.371 315.633C408.18 316.764 408.756 318.044 409.064 319.4C409.372 320.756 409.406 322.16 409.164 323.529V323.529Z" fill="#003F88"/>
</g>
<path d="M363.192 330.252L351.372 331.731L344.479 297.734L357.777 289.847L375.013 308.573L363.192 330.252Z" fill="#EFB7B9"/>
<path opacity="0.03" d="M363.192 330.252L351.372 331.731L344.479 297.734L357.777 289.847L375.013 308.573L363.192 330.252Z" fill="black"/>
<path d="M204.622 163.224L233.186 188.847C233.186 188.847 288.346 201.165 274.555 183.917C266.743 174.148 267.781 159.321 270.152 148.3C271.212 143.302 272.685 138.4 274.555 133.646C274.555 133.646 203.624 90.7989 213.473 123.322C216.394 132.966 216.802 140.404 215.937 146.088C213.868 159.57 204.622 163.224 204.622 163.224Z" fill="#EFB7B9"/>
<path opacity="0.1" d="M213.473 123.322C216.394 132.967 216.802 140.404 215.937 146.088C224.017 151.094 233.252 153.928 242.748 154.317C252.244 154.706 261.68 152.636 270.143 148.309C271.203 143.311 272.676 138.409 274.546 133.655C274.546 133.655 203.624 90.799 213.473 123.322Z" fill="black"/>
<path d="M186 98.1831C186 109.096 189.235 119.764 195.295 128.839C201.355 137.913 209.968 144.986 220.046 149.163C230.124 153.341 241.214 154.435 251.914 152.307C262.613 150.18 272.442 144.926 280.157 137.211C287.872 129.496 293.127 119.665 295.258 108.962C297.389 98.2594 296.3 87.1647 292.128 77.081C287.957 66.9972 280.89 58.3773 271.822 52.3111C262.754 46.2448 252.091 43.0047 241.183 43.0003C233.931 42.9763 226.746 44.387 220.042 47.1515C213.337 49.9159 207.246 53.9793 202.117 59.108C196.988 64.2367 192.924 70.3294 190.158 77.0355C187.392 83.7416 185.979 90.9286 186 98.1831V98.1831Z" fill="#EFB7B9"/>
<path d="M282.918 169.632V270.633L185.896 262.751L202.146 159.779L244.993 185.396L282.918 169.632Z" fill="#E1E7EF"/>
<path opacity="0.1" d="M230.221 231.711L241.02 201.165H240.576C229.249 188.847 234.176 181.458 234.176 181.458H249.898C259.907 188.562 252.96 197.768 250.603 200.419L255.317 231.711H230.221Z" fill="black"/>
<path d="M230.221 230.725L241.02 200.179H240.576C229.249 187.861 234.176 180.472 234.176 180.472H249.898C259.907 187.577 252.96 196.782 250.603 199.433L255.317 230.725H230.221Z" fill="#444053"/>
<path opacity="0.1" d="M215.804 147.834C215.804 147.834 218.911 162.239 240.559 181.453C240.559 181.453 233.9 183.673 232.924 201.409L224.797 212.51C224.797 212.51 218.396 189.353 207.068 181.471C195.741 173.589 207.068 152.896 207.068 152.896L215.804 147.834Z" fill="black"/>
<path d="M215.804 146.857C215.804 146.857 218.911 161.262 240.559 180.476C240.559 180.476 233.9 182.696 232.924 200.432L224.797 211.533C224.797 211.533 218.396 188.376 207.068 180.494C195.741 172.612 207.068 151.919 207.068 151.919L215.804 146.857Z" fill="#E1E7EF"/>
<path opacity="0.1" d="M245.015 181.453C245.015 181.453 254.336 188.846 254.842 200.672C255.348 212.497 260.257 212.497 260.257 212.497C260.257 212.497 272.571 174.561 276.508 171.111C280.445 167.661 269.406 153.109 269.406 153.109C269.406 153.109 263.214 173.571 245.015 181.453Z" fill="black"/>
<path d="M245.015 180.472C245.015 180.472 254.337 187.861 254.843 199.699C255.349 211.538 260.258 211.525 260.258 211.525C260.258 211.525 272.575 173.571 276.53 170.125C280.485 166.679 269.428 152.123 269.428 152.123C269.428 152.123 263.214 172.585 245.015 180.472Z" fill="#E1E7EF"/>
<path opacity="0.1" d="M216.43 146.968L204.117 151.897C204.117 151.897 190.325 160.778 140.092 167.665C140.092 167.665 132.706 167.665 127.779 191.316L64.7487 275.566C64.7487 275.566 34.2145 298.213 59.8217 320.895L116.194 327.055C116.194 327.055 83.6888 296.015 132.937 295.029L123.837 287.387C123.837 287.387 138.121 274.065 141.073 265.708C144.025 257.351 168.149 247.973 168.149 247.973L165.193 318.919L209.536 325.811L215.928 193.793C216.236 187.567 215.879 181.325 214.863 175.174C213.194 165.161 211.432 149.299 216.43 146.968Z" fill="black"/>
<path d="M215.937 146.968L203.624 151.897C203.624 151.897 189.833 160.778 139.599 167.665C139.599 167.665 132.213 167.665 127.286 191.316L64.256 275.566C64.256 275.566 33.7218 298.213 59.329 320.895L115.701 327.055C115.701 327.055 83.1962 296.015 132.444 295.029L123.331 287.391C123.331 287.391 137.615 274.07 140.567 265.713C143.519 257.356 167.643 247.977 167.643 247.977L164.687 318.924L209.061 325.811L215.453 193.793C215.761 187.567 215.404 181.325 214.388 175.174C212.701 165.161 210.939 149.299 215.937 146.968Z" fill="#67647E"/>
<path opacity="0.1" d="M269.127 151.892L331.673 168.171C331.673 168.171 341.03 162.261 352.358 208.581L392.249 280.518C392.249 280.518 415.397 303.164 397.664 322.396C379.931 341.629 357.76 332.219 357.76 332.219C357.76 332.219 377.952 300.691 342.49 292.805L329.174 276.055L269.091 282.951L270.605 196.236L268.922 186.129C267.103 175.205 267.103 164.055 268.922 153.131L269.127 151.892Z" fill="black"/>
<path d="M269.619 151.892L332.166 168.171C332.166 168.171 341.522 162.261 352.85 208.581L392.741 280.518C392.741 280.518 415.907 303.164 398.152 322.365C380.397 341.566 358.261 332.219 358.261 332.219C358.261 332.219 378.453 300.691 342.992 292.805L329.675 276.055L269.592 282.951L271.097 196.236L269.428 186.129C267.608 175.205 267.608 164.055 269.428 153.131L269.619 151.892Z" fill="#67647E"/>
<path d="M331.18 200.179L337.093 204.611L247.949 227.275V218.407L331.18 200.179Z" fill="#E4E6ED"/>
<path d="M158.806 198.7L152.898 203.136L247.949 227.275V218.407L158.806 198.7Z" fill="#E4E6ED"/>
<path d="M342.508 200.179L259.769 219.393L253.862 339.612L326.258 316.948L342.508 200.179Z" fill="#5193DE"/>
<path d="M148.956 200.179L237.114 220.379L232.192 341.091L150.434 315.962L148.956 200.179Z" fill="#003F88"/>
<path d="M262.726 219.393C262.726 219.393 248.282 228.274 233.097 219.393L230.141 342.077H253.857L262.726 219.393Z" fill="#003F88"/>
<path opacity="0.1" d="M262.726 219.393C262.726 219.393 248.282 228.274 233.097 219.393L230.141 342.077H253.857L262.726 219.393Z" fill="black"/>
<path d="M329.209 198.7V202.151L247.949 218.407C247.949 218.407 289.318 203.132 329.209 198.7Z" fill="#D8D9E5"/>
<path d="M160.284 196.729V200.179L247.949 218.407C247.949 218.407 200.184 201.165 160.284 196.729Z" fill="#D8D9E5"/>
<path d="M133.345 294.807L135.915 295.5C135.915 295.5 152.654 280.846 173.991 303.049C195.328 325.252 166.889 336.118 166.889 336.118C166.889 336.118 137.593 337.374 128.391 331.93C124.431 329.555 120.094 327.874 115.568 326.961C112.8 326.418 110.281 324.997 108.386 322.907V322.907C106.663 321.019 105.383 318.77 104.641 316.324C103.9 313.877 103.714 311.296 104.098 308.768V308.768C104.596 305.451 106.055 302.352 108.296 299.856C110.537 297.361 113.46 295.577 116.704 294.727V294.727C122.164 293.308 127.899 293.335 133.345 294.807V294.807Z" fill="#EFB7B9"/>
<path d="M350.387 297.241C350.387 297.241 330.688 279.505 306.554 309.066C282.421 338.627 325.273 339.133 325.273 339.133C325.273 339.133 348.438 344.537 357.285 325.323C366.131 306.108 350.387 297.241 350.387 297.241Z" fill="#EFB7B9"/>
<path opacity="0.1" d="M131.259 293.604C131.259 293.604 108.359 300.291 113.269 326.726L99.4285 325.216L96.5078 311.775L102.416 293.053L113.743 288.613L131.259 293.604Z" fill="black"/>
<path d="M130.766 293.604C130.766 293.604 107.867 300.291 112.776 326.726L98.9358 325.216L96.0151 311.775L101.923 293.053L113.251 288.613L130.766 293.604Z" fill="#67647E"/>
<path d="M256.833 81.1952C251.591 79.7565 246.624 76.7191 241.213 76.879C235.23 77.0522 230.076 81.0709 225.908 85.3694C221.31 90.1074 217.306 95.4139 212.53 99.9788C207.754 104.544 201.997 108.416 195.472 109.424C188.947 110.432 181.601 107.976 178.214 102.319C173.389 94.246 177.97 84.0194 177.868 74.6143C177.801 68.6684 175.795 62.8424 176.021 56.9009C176.212 51.9275 177.956 47.1317 179.861 42.5535C180.788 40.3332 181.805 38.033 183.58 36.3855C188.281 32.0338 195.885 33.8988 201.921 31.754C209.725 28.9787 213.364 20.3329 217.874 13.3834C219.614 10.7191 222.757 7.87271 225.589 9.33809C228.922 11.061 228.017 16.9492 231.386 18.6011C233.428 19.6002 235.922 18.3391 237.378 16.594C238.834 14.8488 239.673 12.6552 241.102 10.8923C242.374 9.36762 244.041 8.22201 245.919 7.58063C247.798 6.93925 249.817 6.82676 251.755 7.25547C252.523 7.38263 253.23 7.75127 253.775 8.30788C254.849 9.58676 254.179 11.4918 254.103 13.1614C253.846 18.7743 260.571 21.8916 266.154 22.4866C271.738 23.0816 278.286 23.1527 281.615 27.6776C283.39 30.0711 283.754 33.1883 284.944 35.9148C287.705 42.2382 294.372 45.6841 300.235 49.3298C306.099 52.9755 312.131 58.2553 312.078 65.1515C312.025 71.7812 306.307 77.141 305.295 83.6819C304.763 87.1545 305.593 90.7424 304.927 94.1927C303.706 100.525 297.905 104.775 292.552 108.371C291.22 109.26 289.8 110.188 288.202 110.201C285.538 110.223 283.545 107.741 282.227 105.401C280.426 102.195 279.006 98.79 277.997 95.254C277.069 92.008 277.624 85.991 276.053 83.2645C273.372 78.5842 262.319 82.7006 256.833 81.1952Z" fill="#585268"/>
</g>
</g>
<defs>
<clipPath id="clip0">
<rect width="455" height="590.032" rx="25" fill="white"/>
</clipPath>
<clipPath id="clip1">
<rect width="366" height="337" fill="white" transform="matrix(-1 0 0 1 410 5)"/>
</clipPath>
</defs>
</svg>
