<svg width="465" height="603" viewBox="0 0 465 603" fill="none" xmlns="http://www.w3.org/2000/svg">
<rect width="465" height="603" rx="25" fill="#00296B"/>
<g clip-path="url(#clip0)">
<path d="M272.094 23.5034C272.094 23.5034 236.727 4.77828 210.045 63.339C183.362 121.9 152.228 167.421 143 189.85C143 189.85 176.217 148.943 193.663 134C211.108 119.057 205.536 117.43 205.536 117.43C205.536 117.43 183.353 143.089 183.094 163.281C182.836 183.473 190.801 198.437 186.556 219.623C182.312 240.808 361.203 189.85 361.203 189.85C361.203 189.85 371.433 154.459 358.493 123.787C345.552 93.1139 328.898 13.578 272.094 23.5034Z" fill="#2F2E41"/>
<path d="M230.402 98.5087C230.402 98.5087 237.592 148.875 206.779 160.181C175.965 171.488 187.264 186.906 187.264 186.906L233.483 209.52L282.784 194.102L299.218 169.432C299.218 169.432 272.513 163.265 279.703 144.763C286.893 126.261 288.947 120.094 288.947 120.094L230.402 98.5087Z" fill="#FFB9B9"/>
<path opacity="0.1" d="M230.402 98.5087C230.402 98.5087 237.592 148.875 206.779 160.181C175.965 171.488 187.264 186.906 187.264 186.906L233.483 209.52L282.784 194.102L299.218 169.432C299.218 169.432 272.513 163.265 279.703 144.763C286.893 126.261 288.947 120.094 288.947 120.094L230.402 98.5087Z" fill="black"/>
<path d="M359.817 242.412C359.817 242.412 352.627 336.977 354.682 341.088C356.736 345.2 354.682 488.075 354.682 488.075C354.682 488.075 369.061 565.166 350.573 569.278C332.085 573.389 336.194 482.936 336.194 482.936L317.706 363.702L319.76 245.495L359.817 242.412Z" fill="#FFB9B9"/>
<path opacity="0.1" d="M359.817 242.412C359.817 242.412 352.627 336.977 354.682 341.088C356.736 345.2 354.682 488.075 354.682 488.075C354.682 488.075 369.061 565.166 350.573 569.278C332.085 573.389 336.194 482.936 336.194 482.936L317.706 363.702L319.76 245.495L359.817 242.412Z" fill="black"/>
<path d="M271.487 137.568C298.715 137.568 320.788 115.479 320.788 88.2298C320.788 60.9811 298.715 38.8916 271.487 38.8916C244.259 38.8916 222.186 60.9811 222.186 88.2298C222.186 115.479 244.259 137.568 271.487 137.568Z" fill="#FFB9B9"/>
<path d="M185.21 168.404L198.777 163.664C198.777 163.664 193.426 172.516 222.185 177.655C250.944 182.795 280.727 184.614 294.081 167.772C294.081 167.772 299.218 165.321 306.408 172.516C313.597 179.711 317.706 177.655 317.706 177.655L312.57 204.38L302.299 253.719L288.947 290.722L250.944 282.499L209.86 252.691L194.454 212.603V175.6L185.21 168.404Z" fill="#003F88"/>
<path d="M310.517 182.795L320.788 175.6C320.788 175.6 355.709 181.767 357.764 198.213L331.059 249.607C336.506 263.907 336.137 279.774 330.032 293.806C319.761 317.447 320.788 322.586 320.788 322.586L313.598 353.423L183.156 363.702C183.156 363.702 178.02 351.367 175.966 349.311C173.912 347.256 173.912 340.06 175.966 340.06C178.02 340.06 175.966 336.977 173.912 333.893C171.858 330.809 170.831 329.782 173.912 325.67C176.993 321.559 168.776 284.555 168.776 284.555V244.468L133.855 198.213C133.855 198.213 146.18 179.711 152.343 177.655C158.505 175.6 187.821 167.492 187.821 167.492L194.454 177.267L203.698 251.663L217.05 296.889L273.27 287.33L295.11 250.635L309.49 207.464L310.517 182.795Z" fill="#003F88"/>
<path d="M349.547 192.046L357.764 198.213C357.764 198.213 364.953 255.774 362.899 259.886C360.845 263.997 324.896 268.109 323.869 266.053C322.842 263.997 349.547 192.046 349.547 192.046Z" fill="#003F88"/>
<path d="M126.665 254.746C126.665 254.746 133.855 349.311 131.8 353.423C129.746 357.534 131.8 500.41 131.8 500.41C131.8 500.41 117.421 577.501 135.909 581.612C154.397 585.724 150.288 495.27 150.288 495.27L168.776 376.036L166.722 257.83L126.665 254.746Z" fill="#FFB9B9"/>
<path d="M180.074 163.265L190.345 231.105C190.345 231.105 181.101 331.837 183.156 352.395L185.21 358.562C185.21 358.562 181.101 356.506 180.074 360.618C179.047 364.729 180.074 378.092 180.074 378.092C180.074 378.092 173.912 384.259 171.857 418.179C169.803 452.099 145.153 533.302 154.397 536.385C163.64 539.469 219.104 554.887 248.89 551.804C278.676 548.72 385.495 512.744 384.468 503.493C383.441 494.242 332.085 363.702 332.085 363.702C332.085 363.702 322.842 348.283 322.842 346.228C322.842 344.172 335.167 335.949 332.085 327.726C329.004 319.503 312.57 233.161 312.57 233.161L323.869 171.488L308.462 167.377L297.164 226.994C297.164 226.994 252.999 248.579 206.779 229.049L196.508 159.154L180.074 163.265Z" fill="#2F2E41"/>
<path d="M142.071 195.129L133.855 198.213C133.855 198.213 118.448 262.969 122.556 262.969C126.665 262.969 175.966 269.137 175.966 267.081C175.966 265.025 166.722 214.659 166.722 214.659L142.071 195.129Z" fill="#003F88"/>
<path d="M232 53.5576C232 53.5576 308.006 105.98 328.548 82.3383C349.09 58.697 292.599 38.1395 292.599 38.1395L245.352 33L232 53.5576Z" fill="#2F2E41"/>
</g>
<line x1="82" y1="396.5" x2="384.002" y2="396.5" stroke="#F3BB02" stroke-width="3"/>
<path d="M103.934 420.872V424.94H93.4576V431.384H101.486V435.38H93.4576V446H88.4176V420.872H103.934ZM120.467 446L114.923 436.208H112.547V446H107.507V420.872H116.939C118.883 420.872 120.539 421.22 121.907 421.916C123.275 422.588 124.295 423.512 124.967 424.688C125.663 425.84 126.011 427.136 126.011 428.576C126.011 430.232 125.531 431.732 124.571 433.076C123.611 434.396 122.183 435.308 120.287 435.812L126.299 446H120.467ZM112.547 432.428H116.759C118.127 432.428 119.147 432.104 119.819 431.456C120.491 430.784 120.827 429.86 120.827 428.684C120.827 427.532 120.491 426.644 119.819 426.02C119.147 425.372 118.127 425.048 116.759 425.048H112.547V432.428ZM135.61 424.94V431.24H144.07V435.236H135.61V441.896H145.15V446H130.57V420.836H145.15V424.94H135.61ZM158.406 446.252C156.654 446.252 155.07 445.952 153.654 445.352C152.262 444.752 151.158 443.888 150.342 442.76C149.526 441.632 149.106 440.3 149.082 438.764H154.482C154.554 439.796 154.914 440.612 155.562 441.212C156.234 441.812 157.146 442.112 158.298 442.112C159.474 442.112 160.398 441.836 161.07 441.284C161.742 440.708 162.078 439.964 162.078 439.052C162.078 438.308 161.85 437.696 161.394 437.216C160.938 436.736 160.362 436.364 159.666 436.1C158.994 435.812 158.058 435.5 156.858 435.164C155.226 434.684 153.894 434.216 152.862 433.76C151.854 433.28 150.978 432.572 150.234 431.636C149.514 430.676 149.154 429.404 149.154 427.82C149.154 426.332 149.526 425.036 150.27 423.932C151.014 422.828 152.058 421.988 153.402 421.412C154.746 420.812 156.282 420.512 158.01 420.512C160.602 420.512 162.702 421.148 164.31 422.42C165.942 423.668 166.842 425.42 167.01 427.676H161.466C161.418 426.812 161.046 426.104 160.35 425.552C159.678 424.976 158.778 424.688 157.65 424.688C156.666 424.688 155.874 424.94 155.274 425.444C154.698 425.948 154.41 426.68 154.41 427.64C154.41 428.312 154.626 428.876 155.058 429.332C155.514 429.764 156.066 430.124 156.714 430.412C157.386 430.676 158.322 430.988 159.522 431.348C161.154 431.828 162.486 432.308 163.518 432.788C164.55 433.268 165.438 433.988 166.182 434.948C166.926 435.908 167.298 437.168 167.298 438.728C167.298 440.072 166.95 441.32 166.254 442.472C165.558 443.624 164.538 444.548 163.194 445.244C161.85 445.916 160.254 446.252 158.406 446.252ZM192.512 420.872V446H187.472V435.308H176.708V446H171.668V420.872H176.708V431.204H187.472V420.872H192.512ZM224.868 420.872V446H219.828V429.656L213.096 446H209.28L202.512 429.656V446H197.472V420.872H203.196L211.188 439.556L219.18 420.872H224.868ZM245.259 441.212H235.251L233.595 446H228.303L237.339 420.836H243.207L252.243 446H246.915L245.259 441.212ZM243.891 437.18L240.255 426.668L236.619 437.18H243.891ZM277.113 446H272.073L260.661 428.756V446H255.621V420.836H260.661L272.073 438.116V420.836H277.113V446ZM310.652 420.872L302.156 437.252V446H297.116V437.252L288.584 420.872H294.272L299.672 432.356L305.036 420.872H310.652ZM318.598 424.94V431.24H327.058V435.236H318.598V441.896H328.138V446H313.558V420.836H328.138V424.94H318.598ZM348.126 441.212H338.118L336.462 446H331.17L340.206 420.836H346.074L355.11 446H349.782L348.126 441.212ZM346.758 437.18L343.122 426.668L339.486 437.18H346.758ZM371.448 446L365.904 436.208H363.528V446H358.488V420.872H367.92C369.864 420.872 371.52 421.22 372.888 421.916C374.256 422.588 375.276 423.512 375.948 424.688C376.644 425.84 376.992 427.136 376.992 428.576C376.992 430.232 376.512 431.732 375.552 433.076C374.592 434.396 373.164 435.308 371.268 435.812L377.28 446H371.448ZM363.528 432.428H367.74C369.108 432.428 370.128 432.104 370.8 431.456C371.472 430.784 371.808 429.86 371.808 428.684C371.808 427.532 371.472 426.644 370.8 426.02C370.128 425.372 369.108 425.048 367.74 425.048H363.528V432.428Z" fill="#F3BB02"/>
<path d="M59.4314 480.696V483.064H49.7354V490.584H57.6074V492.952H49.7354V503H46.8234V480.696H59.4314ZM64.4524 482.616C63.8977 482.616 63.4284 482.424 63.0444 482.04C62.6604 481.656 62.4684 481.187 62.4684 480.632C62.4684 480.077 62.6604 479.608 63.0444 479.224C63.4284 478.84 63.8977 478.648 64.4524 478.648C64.9857 478.648 65.4337 478.84 65.7964 479.224C66.1804 479.608 66.3724 480.077 66.3724 480.632C66.3724 481.187 66.1804 481.656 65.7964 482.04C65.4337 482.424 64.9857 482.616 64.4524 482.616ZM65.8604 485.464V503H62.9484V485.464H65.8604ZM73.7354 488.312C74.2474 487.309 74.9727 486.531 75.9114 485.976C76.8714 485.421 78.034 485.144 79.3994 485.144V488.152H78.6314C75.3674 488.152 73.7354 489.923 73.7354 493.464V503H70.8234V485.464H73.7354V488.312ZM88.9689 503.288C87.6249 503.288 86.4195 503.064 85.3529 502.616C84.2862 502.147 83.4435 501.507 82.8249 500.696C82.2062 499.864 81.8649 498.915 81.8009 497.848H84.8089C84.8942 498.723 85.2995 499.437 86.0249 499.992C86.7715 500.547 87.7422 500.824 88.9369 500.824C90.0462 500.824 90.9209 500.579 91.5609 500.088C92.2009 499.597 92.5209 498.979 92.5209 498.232C92.5209 497.464 92.1795 496.899 91.4969 496.536C90.8142 496.152 89.7582 495.779 88.3289 495.416C87.0275 495.075 85.9609 494.733 85.1289 494.392C84.3182 494.029 83.6142 493.507 83.0169 492.824C82.4409 492.12 82.1529 491.203 82.1529 490.072C82.1529 489.176 82.4195 488.355 82.9529 487.608C83.4862 486.861 84.2435 486.275 85.2249 485.848C86.2062 485.4 87.3262 485.176 88.5849 485.176C90.5262 485.176 92.0942 485.667 93.2889 486.648C94.4835 487.629 95.1235 488.973 95.2089 490.68H92.2969C92.2329 489.763 91.8595 489.027 91.1769 488.472C90.5155 487.917 89.6195 487.64 88.4889 487.64C87.4435 487.64 86.6115 487.864 85.9929 488.312C85.3742 488.76 85.0649 489.347 85.0649 490.072C85.0649 490.648 85.2462 491.128 85.6089 491.512C85.9929 491.875 86.4622 492.173 87.0169 492.408C87.5929 492.621 88.3822 492.867 89.3849 493.144C90.6435 493.485 91.6675 493.827 92.4569 494.168C93.2462 494.488 93.9182 494.979 94.4729 495.64C95.0489 496.301 95.3475 497.165 95.3689 498.232C95.3689 499.192 95.1022 500.056 94.5689 500.824C94.0355 501.592 93.2782 502.2 92.2969 502.648C91.3369 503.075 90.2275 503.288 88.9689 503.288ZM103.032 487.864V498.2C103.032 499.053 103.213 499.661 103.576 500.024C103.938 500.365 104.568 500.536 105.464 500.536H107.608V503H104.984C103.362 503 102.146 502.627 101.336 501.88C100.525 501.133 100.12 499.907 100.12 498.2V487.864H97.8476V485.464H100.12V481.048H103.032V485.464H107.608V487.864H103.032ZM125.875 503.288C124.531 503.288 123.326 503.064 122.259 502.616C121.192 502.147 120.35 501.507 119.731 500.696C119.112 499.864 118.771 498.915 118.707 497.848H121.715C121.8 498.723 122.206 499.437 122.931 499.992C123.678 500.547 124.648 500.824 125.843 500.824C126.952 500.824 127.827 500.579 128.467 500.088C129.107 499.597 129.427 498.979 129.427 498.232C129.427 497.464 129.086 496.899 128.403 496.536C127.72 496.152 126.664 495.779 125.235 495.416C123.934 495.075 122.867 494.733 122.035 494.392C121.224 494.029 120.52 493.507 119.923 492.824C119.347 492.12 119.059 491.203 119.059 490.072C119.059 489.176 119.326 488.355 119.859 487.608C120.392 486.861 121.15 486.275 122.131 485.848C123.112 485.4 124.232 485.176 125.491 485.176C127.432 485.176 129 485.667 130.195 486.648C131.39 487.629 132.03 488.973 132.115 490.68H129.203C129.139 489.763 128.766 489.027 128.083 488.472C127.422 487.917 126.526 487.64 125.395 487.64C124.35 487.64 123.518 487.864 122.899 488.312C122.28 488.76 121.971 489.347 121.971 490.072C121.971 490.648 122.152 491.128 122.515 491.512C122.899 491.875 123.368 492.173 123.923 492.408C124.499 492.621 125.288 492.867 126.291 493.144C127.55 493.485 128.574 493.827 129.363 494.168C130.152 494.488 130.824 494.979 131.379 495.64C131.955 496.301 132.254 497.165 132.275 498.232C132.275 499.192 132.008 500.056 131.475 500.824C130.942 501.592 130.184 502.2 129.203 502.648C128.243 503.075 127.134 503.288 125.875 503.288ZM139.938 487.864V498.2C139.938 499.053 140.119 499.661 140.482 500.024C140.845 500.365 141.474 500.536 142.37 500.536H144.514V503H141.89C140.269 503 139.053 502.627 138.242 501.88C137.431 501.133 137.026 499.907 137.026 498.2V487.864H134.754V485.464H137.026V481.048H139.938V485.464H144.514V487.864H139.938ZM164.042 493.56C164.042 494.115 164.01 494.701 163.946 495.32H149.93C150.037 497.048 150.623 498.403 151.69 499.384C152.778 500.344 154.09 500.824 155.626 500.824C156.885 500.824 157.93 500.536 158.762 499.96C159.615 499.363 160.213 498.573 160.554 497.592H163.69C163.221 499.277 162.282 500.653 160.874 501.72C159.466 502.765 157.717 503.288 155.626 503.288C153.962 503.288 152.469 502.915 151.146 502.168C149.845 501.421 148.821 500.365 148.074 499C147.327 497.613 146.954 496.013 146.954 494.2C146.954 492.387 147.317 490.797 148.042 489.432C148.767 488.067 149.781 487.021 151.082 486.296C152.405 485.549 153.919 485.176 155.626 485.176C157.29 485.176 158.762 485.539 160.042 486.264C161.322 486.989 162.303 487.992 162.986 489.272C163.69 490.531 164.042 491.96 164.042 493.56ZM161.034 492.952C161.034 491.843 160.789 490.893 160.298 490.104C159.807 489.293 159.135 488.685 158.282 488.28C157.45 487.853 156.522 487.64 155.498 487.64C154.026 487.64 152.767 488.109 151.722 489.048C150.698 489.987 150.111 491.288 149.962 492.952H161.034ZM170.798 488.696C171.374 487.693 172.227 486.861 173.358 486.2C174.51 485.517 175.843 485.176 177.358 485.176C178.915 485.176 180.323 485.549 181.582 486.296C182.862 487.043 183.865 488.099 184.59 489.464C185.315 490.808 185.678 492.376 185.678 494.168C185.678 495.939 185.315 497.517 184.59 498.904C183.865 500.291 182.862 501.368 181.582 502.136C180.323 502.904 178.915 503.288 177.358 503.288C175.865 503.288 174.542 502.957 173.39 502.296C172.259 501.613 171.395 500.771 170.798 499.768V511.32H167.886V485.464H170.798V488.696ZM182.702 494.168C182.702 492.845 182.435 491.693 181.902 490.712C181.369 489.731 180.643 488.984 179.726 488.472C178.83 487.96 177.838 487.704 176.75 487.704C175.683 487.704 174.691 487.971 173.774 488.504C172.878 489.016 172.153 489.773 171.598 490.776C171.065 491.757 170.798 492.899 170.798 494.2C170.798 495.523 171.065 496.685 171.598 497.688C172.153 498.669 172.878 499.427 173.774 499.96C174.691 500.472 175.683 500.728 176.75 500.728C177.838 500.728 178.83 500.472 179.726 499.96C180.643 499.427 181.369 498.669 181.902 497.688C182.435 496.685 182.702 495.512 182.702 494.168ZM199.546 482.616C198.991 482.616 198.522 482.424 198.138 482.04C197.754 481.656 197.562 481.187 197.562 480.632C197.562 480.077 197.754 479.608 198.138 479.224C198.522 478.84 198.991 478.648 199.546 478.648C200.079 478.648 200.527 478.84 200.89 479.224C201.274 479.608 201.466 480.077 201.466 480.632C201.466 481.187 201.274 481.656 200.89 482.04C200.527 482.424 200.079 482.616 199.546 482.616ZM200.954 485.464V503H198.042V485.464H200.954ZM214.461 485.144C216.594 485.144 218.322 485.795 219.645 487.096C220.968 488.376 221.629 490.232 221.629 492.664V503H218.749V493.08C218.749 491.331 218.312 489.997 217.437 489.08C216.562 488.141 215.368 487.672 213.853 487.672C212.317 487.672 211.09 488.152 210.173 489.112C209.277 490.072 208.829 491.469 208.829 493.304V503H205.917V485.464H208.829V487.96C209.405 487.064 210.184 486.371 211.165 485.88C212.168 485.389 213.266 485.144 214.461 485.144ZM238.469 487.864V498.2C238.469 499.053 238.65 499.661 239.013 500.024C239.376 500.365 240.005 500.536 240.901 500.536H243.045V503H240.421C238.8 503 237.584 502.627 236.773 501.88C235.962 501.133 235.557 499.907 235.557 498.2V487.864H233.285V485.464H235.557V481.048H238.469V485.464H243.045V487.864H238.469ZM255.277 485.144C256.6 485.144 257.795 485.432 258.861 486.008C259.928 486.563 260.76 487.405 261.357 488.536C261.976 489.667 262.285 491.043 262.285 492.664V503H259.405V493.08C259.405 491.331 258.968 489.997 258.093 489.08C257.219 488.141 256.024 487.672 254.509 487.672C252.973 487.672 251.747 488.152 250.829 489.112C249.933 490.072 249.485 491.469 249.485 493.304V503H246.573V479.32H249.485V487.96C250.061 487.064 250.851 486.371 251.853 485.88C252.877 485.389 254.019 485.144 255.277 485.144ZM283.042 493.56C283.042 494.115 283.01 494.701 282.946 495.32H268.93C269.037 497.048 269.623 498.403 270.69 499.384C271.778 500.344 273.09 500.824 274.626 500.824C275.885 500.824 276.93 500.536 277.762 499.96C278.615 499.363 279.213 498.573 279.554 497.592H282.69C282.221 499.277 281.282 500.653 279.874 501.72C278.466 502.765 276.717 503.288 274.626 503.288C272.962 503.288 271.469 502.915 270.146 502.168C268.845 501.421 267.821 500.365 267.074 499C266.327 497.613 265.954 496.013 265.954 494.2C265.954 492.387 266.317 490.797 267.042 489.432C267.767 488.067 268.781 487.021 270.082 486.296C271.405 485.549 272.919 485.176 274.626 485.176C276.29 485.176 277.762 485.539 279.042 486.264C280.322 486.989 281.303 487.992 281.986 489.272C282.69 490.531 283.042 491.96 283.042 493.56ZM280.034 492.952C280.034 491.843 279.789 490.893 279.298 490.104C278.807 489.293 278.135 488.685 277.282 488.28C276.45 487.853 275.522 487.64 274.498 487.64C273.026 487.64 271.767 488.109 270.722 489.048C269.698 489.987 269.111 491.288 268.962 492.952H280.034ZM296.985 482.616C296.43 482.616 295.961 482.424 295.577 482.04C295.214 481.656 295.033 481.187 295.033 480.632C295.033 480.077 295.214 479.608 295.577 479.224C295.961 478.84 296.43 478.648 296.985 478.648C297.54 478.648 297.998 478.84 298.361 479.224C298.745 479.608 298.937 480.077 298.937 480.632C298.937 481.187 298.745 481.656 298.361 482.04C297.998 482.424 297.54 482.616 296.985 482.616ZM298.425 506.808C298.425 508.365 298.03 509.507 297.241 510.232C296.452 510.957 295.3 511.32 293.785 511.32H292.089V508.856H293.305C294.116 508.856 294.681 508.696 295.001 508.376C295.342 508.056 295.513 507.512 295.513 506.744V485.464H298.425V506.808ZM311.003 503.288C309.36 503.288 307.867 502.915 306.523 502.168C305.2 501.421 304.155 500.365 303.387 499C302.64 497.613 302.267 496.013 302.267 494.2C302.267 492.408 302.651 490.829 303.419 489.464C304.208 488.077 305.275 487.021 306.619 486.296C307.963 485.549 309.467 485.176 311.131 485.176C312.795 485.176 314.299 485.549 315.643 486.296C316.987 487.021 318.043 488.067 318.811 489.432C319.6 490.797 319.995 492.387 319.995 494.2C319.995 496.013 319.589 497.613 318.779 499C317.989 500.365 316.912 501.421 315.547 502.168C314.181 502.915 312.667 503.288 311.003 503.288ZM311.003 500.728C312.048 500.728 313.029 500.483 313.947 499.992C314.864 499.501 315.6 498.765 316.155 497.784C316.731 496.803 317.019 495.608 317.019 494.2C317.019 492.792 316.741 491.597 316.187 490.616C315.632 489.635 314.907 488.909 314.011 488.44C313.115 487.949 312.144 487.704 311.099 487.704C310.032 487.704 309.051 487.949 308.155 488.44C307.28 488.909 306.576 489.635 306.043 490.616C305.509 491.597 305.243 492.792 305.243 494.2C305.243 495.629 305.499 496.835 306.011 497.816C306.544 498.797 307.248 499.533 308.123 500.024C308.997 500.493 309.957 500.728 311.003 500.728ZM339.375 485.464V503H336.463V500.408C335.909 501.304 335.13 502.008 334.127 502.52C333.146 503.011 332.058 503.256 330.863 503.256C329.498 503.256 328.271 502.979 327.183 502.424C326.095 501.848 325.231 500.995 324.591 499.864C323.973 498.733 323.663 497.357 323.663 495.736V485.464H326.543V495.352C326.543 497.08 326.981 498.413 327.855 499.352C328.73 500.269 329.925 500.728 331.439 500.728C332.997 500.728 334.223 500.248 335.119 499.288C336.015 498.328 336.463 496.931 336.463 495.096V485.464H339.375ZM347.204 488.312C347.716 487.309 348.441 486.531 349.38 485.976C350.34 485.421 351.503 485.144 352.868 485.144V488.152H352.1C348.836 488.152 347.204 489.923 347.204 493.464V503H344.292V485.464H347.204V488.312ZM364.774 485.144C366.907 485.144 368.635 485.795 369.958 487.096C371.28 488.376 371.942 490.232 371.942 492.664V503H369.062V493.08C369.062 491.331 368.624 489.997 367.75 489.08C366.875 488.141 365.68 487.672 364.166 487.672C362.63 487.672 361.403 488.152 360.486 489.112C359.59 490.072 359.142 491.469 359.142 493.304V503H356.23V485.464H359.142V487.96C359.718 487.064 360.496 486.371 361.478 485.88C362.48 485.389 363.579 485.144 364.774 485.144ZM392.698 493.56C392.698 494.115 392.666 494.701 392.602 495.32H378.586C378.693 497.048 379.28 498.403 380.346 499.384C381.434 500.344 382.746 500.824 384.282 500.824C385.541 500.824 386.586 500.536 387.418 499.96C388.272 499.363 388.869 498.573 389.21 497.592H392.346C391.877 499.277 390.938 500.653 389.53 501.72C388.122 502.765 386.373 503.288 384.282 503.288C382.618 503.288 381.125 502.915 379.802 502.168C378.501 501.421 377.477 500.365 376.73 499C375.984 497.613 375.61 496.013 375.61 494.2C375.61 492.387 375.973 490.797 376.698 489.432C377.424 488.067 378.437 487.021 379.738 486.296C381.061 485.549 382.576 485.176 384.282 485.176C385.946 485.176 387.418 485.539 388.698 486.264C389.978 486.989 390.96 487.992 391.642 489.272C392.346 490.531 392.698 491.96 392.698 493.56ZM389.69 492.952C389.69 491.843 389.445 490.893 388.954 490.104C388.464 489.293 387.792 488.685 386.938 488.28C386.106 487.853 385.178 487.64 384.154 487.64C382.682 487.64 381.424 488.109 380.378 489.048C379.354 489.987 378.768 491.288 378.618 492.952H389.69ZM411.646 485.464L401.086 511.256H398.078L401.534 502.808L394.462 485.464H397.694L403.198 499.672L408.638 485.464H411.646ZM418.349 480.696L417.997 496.696H415.565L415.213 480.696H418.349ZM416.909 503.192C416.355 503.192 415.885 503 415.501 502.616C415.117 502.232 414.925 501.763 414.925 501.208C414.925 500.653 415.117 500.184 415.501 499.8C415.885 499.416 416.355 499.224 416.909 499.224C417.443 499.224 417.891 499.416 418.253 499.8C418.637 500.184 418.829 500.653 418.829 501.208C418.829 501.763 418.637 502.232 418.253 502.616C417.891 503 417.443 503.192 416.909 503.192Z" fill="#F3BB02"/>
<line x1="231.5" y1="583.009" x2="231.5" y2="524" stroke="#F3BB02" stroke-width="2"/>
<path d="M85.9579 559.224C84.4859 559.224 83.1632 558.968 81.9899 558.456C80.8379 557.923 79.9312 557.197 79.2699 556.28C78.6085 555.341 78.2672 554.264 78.2459 553.048H81.3499C81.4565 554.093 81.8832 554.979 82.6299 555.704C83.3979 556.408 84.5072 556.76 85.9579 556.76C87.3445 556.76 88.4325 556.419 89.2219 555.736C90.0325 555.032 90.4379 554.136 90.4379 553.048C90.4379 552.195 90.2032 551.501 89.7339 550.968C89.2645 550.435 88.6779 550.029 87.9739 549.752C87.2699 549.475 86.3205 549.176 85.1259 548.856C83.6539 548.472 82.4699 548.088 81.5739 547.704C80.6992 547.32 79.9419 546.723 79.3019 545.912C78.6832 545.08 78.3739 543.971 78.3739 542.584C78.3739 541.368 78.6832 540.291 79.3019 539.352C79.9205 538.413 80.7845 537.688 81.8939 537.176C83.0245 536.664 84.3152 536.408 85.7659 536.408C87.8565 536.408 89.5632 536.931 90.8859 537.976C92.2299 539.021 92.9872 540.408 93.1579 542.136H89.9579C89.8512 541.283 89.4032 540.536 88.6139 539.896C87.8245 539.235 86.7792 538.904 85.4779 538.904C84.2619 538.904 83.2699 539.224 82.5019 539.864C81.7339 540.483 81.3499 541.357 81.3499 542.488C81.3499 543.299 81.5739 543.96 82.0219 544.472C82.4912 544.984 83.0565 545.379 83.7179 545.656C84.4005 545.912 85.3499 546.211 86.5659 546.552C88.0379 546.957 89.2219 547.363 90.1179 547.768C91.0139 548.152 91.7819 548.76 92.4219 549.592C93.0619 550.403 93.3819 551.512 93.3819 552.92C93.3819 554.008 93.0939 555.032 92.5179 555.992C91.9419 556.952 91.0885 557.731 89.9579 558.328C88.8272 558.925 87.4939 559.224 85.9579 559.224ZM100.579 539.064V546.52H108.707V548.92H100.579V556.6H109.667V559H97.6671V536.664H109.667V539.064H100.579ZM136.697 536.856V559H133.785V542.488L126.425 559H124.377L116.985 542.456V559H114.073V536.856H117.209L125.401 555.16L133.593 536.856H136.697ZM153.079 536.696V559H150.167V536.696H153.079Z" fill="#F3BB02"/>
<path d="M315.02 559.224C313.548 559.224 312.226 558.968 311.052 558.456C309.9 557.923 308.994 557.197 308.332 556.28C307.671 555.341 307.33 554.264 307.308 553.048H310.412C310.519 554.093 310.946 554.979 311.692 555.704C312.46 556.408 313.57 556.76 315.02 556.76C316.407 556.76 317.495 556.419 318.284 555.736C319.095 555.032 319.5 554.136 319.5 553.048C319.5 552.195 319.266 551.501 318.796 550.968C318.327 550.435 317.74 550.029 317.036 549.752C316.332 549.475 315.383 549.176 314.188 548.856C312.716 548.472 311.532 548.088 310.636 547.704C309.762 547.32 309.004 546.723 308.364 545.912C307.746 545.08 307.436 543.971 307.436 542.584C307.436 541.368 307.746 540.291 308.364 539.352C308.983 538.413 309.847 537.688 310.956 537.176C312.087 536.664 313.378 536.408 314.828 536.408C316.919 536.408 318.626 536.931 319.948 537.976C321.292 539.021 322.05 540.408 322.22 542.136H319.02C318.914 541.283 318.466 540.536 317.676 539.896C316.887 539.235 315.842 538.904 314.54 538.904C313.324 538.904 312.332 539.224 311.564 539.864C310.796 540.483 310.412 541.357 310.412 542.488C310.412 543.299 310.636 543.96 311.084 544.472C311.554 544.984 312.119 545.379 312.78 545.656C313.463 545.912 314.412 546.211 315.628 546.552C317.1 546.957 318.284 547.363 319.18 547.768C320.076 548.152 320.844 548.76 321.484 549.592C322.124 550.403 322.444 551.512 322.444 552.92C322.444 554.008 322.156 555.032 321.58 555.992C321.004 556.952 320.151 557.731 319.02 558.328C317.89 558.925 316.556 559.224 315.02 559.224ZM329.642 539.064V546.52H337.77V548.92H329.642V556.6H338.73V559H326.73V536.664H338.73V539.064H329.642ZM365.76 536.856V559H362.848V542.488L355.488 559H353.44L346.048 542.456V559H343.136V536.856H346.272L354.464 555.16L362.656 536.856H365.76ZM382.142 536.696V559H379.23V536.696H382.142ZM390.017 536.696V559H387.105V536.696H390.017Z" fill="#F3BB02"/>
<defs>
<clipPath id="clip0">
<rect width="255" height="337" fill="white" transform="translate(113 13)"/>
</clipPath>
</defs>
</svg>
